M48
; DRILL file KiCad 10.0.5 date 2026-09-04T04:56:43
; FORMAT={-:-/ absolute / metric / decimal}
; #@! TF.CreationDate,2026-09-04T04:56:43-04:00
; #@! TF.GenerationSoftware,Kicad,Pcbnew,10.0.5
; #@! TF.FileFunction,Plated,1,2,PTH
FMAT,2
METRIC
; #@! TA.AperFunction,Plated,PTH,ViaDrill
T1C0.300
; #@! TA.AperFunction,Plated,PTH,ComponentDrill
T2C0.600
; #@! TA.AperFunction,Plated,PTH,ComponentDrill
T3C0.800
; #@! TA.AperFunction,Plated,PTH,ComponentDrill
T4C1.000
; #@! TA.AperFunction,Plated,PTH,ComponentDrill
T5C1.200
; #@! TA.AperFunction,Plated,PTH,ComponentDrill
T6C1.300
%
G90
G05
T1
X24.0Y-18.25
X24.0Y-77.75
X65.0Y-36.5
X65.0Y-38.0
X68.5Y-36.5
X68.5Y-40.0
X72.0Y-36.5
X72.0Y-42.0
X91.0Y-58.5
X91.0Y-79.25
X93.0Y-68.5
X93.0Y-78.75
X94.0Y-18.25
X94.0Y-77.25
X108.0Y-70.5
X112.0Y-76.75
X116.0Y-68.5
X116.0Y-78.25
X120.0Y-66.0
X122.0Y-61.0
X122.75Y-82.0
X123.25Y-74.5
X123.25Y-83.0
X123.75Y-73.5
X123.75Y-84.0
X124.0Y-78.0
X124.25Y-71.5
X124.25Y-82.0
X125.25Y-70.0
X126.0Y-68.0
X127.0Y-73.5
X127.0Y-74.5
X127.0Y-91.0
X128.0Y-76.75
X128.0Y-78.75
X128.625Y-97.0
X129.0Y-73.5
X129.0Y-74.5
X129.875Y-93.0
X130.0Y-84.0
X132.0Y-86.0
X134.0Y-68.0
X134.0Y-88.0
X135.0Y-84.0
X137.0Y-38.0
X137.0Y-78.25
X139.0Y-40.0
X139.0Y-77.75
X141.0Y-42.0
X141.0Y-77.25
X141.0Y-86.0
T2
X66.595Y-31.0
X67.865Y-31.0
X69.135Y-31.0
X70.405Y-31.0
T3
X98.0Y-86.0
X102.0Y-88.0
X106.0Y-90.0
X110.0Y-90.0
T4
X100.0Y-63.5
X100.0Y-68.5
X105.0Y-58.5
X105.0Y-68.5
X110.0Y-63.5
X110.0Y-68.5
T5
X27.25Y-18.25
X27.25Y-23.25
X39.75Y-18.25
X39.75Y-23.25
X97.25Y-18.25
X97.25Y-23.25
X109.75Y-18.25
X109.75Y-23.25
T6
X139.0Y-92.0
X142.81Y-92.0
M30
