%TF.GenerationSoftware,KiCad,Pcbnew,10.0.5*%
%TF.CreationDate,2026-09-07T18:36:45-04:00*%
%TF.ProjectId,IPC101,49504331-3031-42e6-9b69-6361645f7063,rev?*%
%TF.SameCoordinates,Original*%
%TF.FileFunction,Soldermask,Top*%
%TF.FilePolarity,Negative*%
%FSLAX46Y46*%
G04 Gerber Fmt 4.6, Leading zero omitted, Abs format (unit mm)*
G04 Created by KiCad (PCBNEW 10.0.5) date 2026-09-07 18:36:45*
%MOMM*%
%LPD*%
G01*
G04 APERTURE LIST*
G04 Aperture macros list*
%AMRoundRect*
0 Rectangle with rounded corners*
0 $1 Rounding radius*
0 $2 $3 $4 $5 $6 $7 $8 $9 X,Y pos of 4 corners*
0 Add a 4 corners polygon primitive as box body*
4,1,4,$2,$3,$4,$5,$6,$7,$8,$9,$2,$3,0*
0 Add four circle primitives for the rounded corners*
1,1,$1+$1,$2,$3*
1,1,$1+$1,$4,$5*
1,1,$1+$1,$6,$7*
1,1,$1+$1,$8,$9*
0 Add four rect primitives between the rounded corners*
20,1,$1+$1,$2,$3,$4,$5,0*
20,1,$1+$1,$4,$5,$6,$7,0*
20,1,$1+$1,$6,$7,$8,$9,0*
20,1,$1+$1,$8,$9,$2,$3,0*%
G04 Aperture macros list end*
%ADD10C,2.000000*%
%ADD11RoundRect,0.150000X-0.150000X-0.700000X0.150000X-0.700000X0.150000X0.700000X-0.150000X0.700000X0*%
%ADD12RoundRect,0.250000X-0.250000X-1.100000X0.250000X-1.100000X0.250000X1.100000X-0.250000X1.100000X0*%
%ADD13C,1.000000*%
%ADD14R,1.000000X1.000000*%
%ADD15RoundRect,0.240000X-0.360000X-0.460000X0.360000X-0.460000X0.360000X0.460000X-0.360000X0.460000X0*%
%ADD16R,3.000000X3.000000*%
%ADD17C,3.000000*%
%ADD18RoundRect,0.240000X0.460000X-0.360000X0.460000X0.360000X-0.460000X0.360000X-0.460000X-0.360000X0*%
%ADD19C,2.500000*%
%ADD20R,1.000000X0.250000*%
%ADD21R,0.250000X1.000000*%
%ADD22R,2.700000X2.700000*%
%ADD23R,0.700000X2.000000*%
%ADD24R,2.200000X2.200000*%
%ADD25C,2.200000*%
%ADD26RoundRect,0.250000X-0.600000X-0.725000X0.600000X-0.725000X0.600000X0.725000X-0.600000X0.725000X0*%
%ADD27O,1.700000X1.950000*%
G04 APERTURE END LIST*
D10*
%TO.C,TP4*%
X98000000Y-86000000D03*
%TD*%
%TO.C,TP2*%
X106000000Y-90000000D03*
%TD*%
D11*
%TO.C,J4*%
X79500000Y-93150000D03*
X80750000Y-93150000D03*
X82000000Y-93150000D03*
X83250000Y-93150000D03*
X84500000Y-93150000D03*
D12*
X77650000Y-96350000D03*
X86350000Y-96350000D03*
%TD*%
D13*
%TO.C,D1*%
X66595000Y-31000000D03*
D14*
X67865000Y-31000000D03*
D13*
X69135000Y-31000000D03*
X70405000Y-31000000D03*
%TD*%
D15*
%TO.C,C1*%
X137000000Y-86000000D03*
X139000000Y-86000000D03*
%TD*%
%TO.C,C2*%
X123000000Y-91000000D03*
X125000000Y-91000000D03*
%TD*%
D16*
%TO.C,J3*%
X139000000Y-92000000D03*
D17*
X142810000Y-92000000D03*
%TD*%
D15*
%TO.C,R1*%
X115000000Y-67000000D03*
X117000000Y-67000000D03*
%TD*%
D18*
%TO.C,R4*%
X72000000Y-36500000D03*
X72000000Y-34500000D03*
%TD*%
%TO.C,R2*%
X65000000Y-36500000D03*
X65000000Y-34500000D03*
%TD*%
%TO.C,R3*%
X68500000Y-36500000D03*
X68500000Y-34500000D03*
%TD*%
D10*
%TO.C,TP3*%
X102000000Y-88000000D03*
%TD*%
%TO.C,TP1*%
X110000000Y-90000000D03*
%TD*%
D19*
%TO.C,SW2*%
X97250000Y-18250000D03*
X97250000Y-23250000D03*
X109750000Y-18250000D03*
X109750000Y-23250000D03*
%TD*%
D20*
%TO.C,U1*%
X121800000Y-76750000D03*
X121800000Y-77250000D03*
X121800000Y-77750000D03*
X121800000Y-78250000D03*
X121800000Y-78750000D03*
X121800000Y-79250000D03*
D21*
X122750000Y-80200000D03*
X123250000Y-80200000D03*
X123750000Y-80200000D03*
X124250000Y-80200000D03*
X124750000Y-80200000D03*
X125250000Y-80200000D03*
D20*
X126200000Y-79250000D03*
X126200000Y-78750000D03*
X126200000Y-78250000D03*
X126200000Y-77750000D03*
X126200000Y-77250000D03*
X126200000Y-76750000D03*
D21*
X125250000Y-75800000D03*
X124750000Y-75800000D03*
X124250000Y-75800000D03*
X123750000Y-75800000D03*
X123250000Y-75800000D03*
X122750000Y-75800000D03*
D22*
X124000000Y-78000000D03*
%TD*%
D23*
%TO.C,J1*%
X126125000Y-95000000D03*
X127375000Y-95000000D03*
X128625000Y-95000000D03*
X129875000Y-95000000D03*
%TD*%
D24*
%TO.C,SW3*%
X105000000Y-68500000D03*
D25*
X100000000Y-63500000D03*
X110000000Y-63500000D03*
X105000000Y-58500000D03*
X100000000Y-68500000D03*
X110000000Y-68500000D03*
%TD*%
D26*
%TO.C,J2*%
X65000000Y-70000000D03*
D27*
X67500000Y-70000000D03*
X70000000Y-70000000D03*
X72500000Y-70000000D03*
X75000000Y-70000000D03*
%TD*%
D19*
%TO.C,SW1*%
X27250000Y-18250000D03*
X27250000Y-23250000D03*
X39750000Y-18250000D03*
X39750000Y-23250000D03*
%TD*%
M02*
