%TF.GenerationSoftware,KiCad,Pcbnew,10.0.5*%
%TF.CreationDate,2026-09-07T18:36:45-04:00*%
%TF.ProjectId,IPC101,49504331-3031-42e6-9b69-6361645f7063,rev?*%
%TF.SameCoordinates,Original*%
%TF.FileFunction,Copper,L1,Top*%
%TF.FilePolarity,Positive*%
%FSLAX46Y46*%
G04 Gerber Fmt 4.6, Leading zero omitted, Abs format (unit mm)*
G04 Created by KiCad (PCBNEW 10.0.5) date 2026-09-07 18:36:45*
%MOMM*%
%LPD*%
G01*
G04 APERTURE LIST*
G04 Aperture macros list*
%AMRoundRect*
0 Rectangle with rounded corners*
0 $1 Rounding radius*
0 $2 $3 $4 $5 $6 $7 $8 $9 X,Y pos of 4 corners*
0 Add a 4 corners polygon primitive as box body*
4,1,4,$2,$3,$4,$5,$6,$7,$8,$9,$2,$3,0*
0 Add four circle primitives for the rounded corners*
1,1,$1+$1,$2,$3*
1,1,$1+$1,$4,$5*
1,1,$1+$1,$6,$7*
1,1,$1+$1,$8,$9*
0 Add four rect primitives between the rounded corners*
20,1,$1+$1,$2,$3,$4,$5,0*
20,1,$1+$1,$4,$5,$6,$7,0*
20,1,$1+$1,$6,$7,$8,$9,0*
20,1,$1+$1,$8,$9,$2,$3,0*%
G04 Aperture macros list end*
%TA.AperFunction,ComponentPad*%
%ADD10C,2.000000*%
%TD*%
%TA.AperFunction,SMDPad,CuDef*%
%ADD11RoundRect,0.150000X-0.150000X-0.700000X0.150000X-0.700000X0.150000X0.700000X-0.150000X0.700000X0*%
%TD*%
%TA.AperFunction,SMDPad,CuDef*%
%ADD12RoundRect,0.250000X-0.250000X-1.100000X0.250000X-1.100000X0.250000X1.100000X-0.250000X1.100000X0*%
%TD*%
%TA.AperFunction,ComponentPad*%
%ADD13C,1.000000*%
%TD*%
%TA.AperFunction,ComponentPad*%
%ADD14R,1.000000X1.000000*%
%TD*%
%TA.AperFunction,SMDPad,CuDef*%
%ADD15RoundRect,0.240000X-0.360000X-0.460000X0.360000X-0.460000X0.360000X0.460000X-0.360000X0.460000X0*%
%TD*%
%TA.AperFunction,ComponentPad*%
%ADD16R,3.000000X3.000000*%
%TD*%
%TA.AperFunction,ComponentPad*%
%ADD17C,3.000000*%
%TD*%
%TA.AperFunction,SMDPad,CuDef*%
%ADD18RoundRect,0.240000X0.460000X-0.360000X0.460000X0.360000X-0.460000X0.360000X-0.460000X-0.360000X0*%
%TD*%
%TA.AperFunction,ComponentPad*%
%ADD19C,2.500000*%
%TD*%
%TA.AperFunction,SMDPad,CuDef*%
%ADD20R,1.000000X0.250000*%
%TD*%
%TA.AperFunction,SMDPad,CuDef*%
%ADD21R,0.250000X1.000000*%
%TD*%
%TA.AperFunction,SMDPad,CuDef*%
%ADD22R,2.700000X2.700000*%
%TD*%
%TA.AperFunction,SMDPad,CuDef*%
%ADD23R,0.700000X2.000000*%
%TD*%
%TA.AperFunction,ComponentPad*%
%ADD24R,2.200000X2.200000*%
%TD*%
%TA.AperFunction,ComponentPad*%
%ADD25C,2.200000*%
%TD*%
%TA.AperFunction,ComponentPad*%
%ADD26RoundRect,0.250000X-0.600000X-0.725000X0.600000X-0.725000X0.600000X0.725000X-0.600000X0.725000X0*%
%TD*%
%TA.AperFunction,ComponentPad*%
%ADD27O,1.700000X1.950000*%
%TD*%
%TA.AperFunction,ViaPad*%
%ADD28C,0.500000*%
%TD*%
%TA.AperFunction,Conductor*%
%ADD29C,0.200000*%
%TD*%
G04 APERTURE END LIST*
D10*
%TO.P,TP4,1,1_1*%
%TO.N,/SCL*%
X98000000Y-86000000D03*
%TD*%
%TO.P,TP2,1,1_1*%
%TO.N,/GND*%
X106000000Y-90000000D03*
%TD*%
D11*
%TO.P,J4,1*%
%TO.N,/OLED_VCC*%
X79500000Y-93150000D03*
%TO.P,J4,2*%
%TO.N,/OLED_GND*%
X80750000Y-93150000D03*
%TO.P,J4,3*%
%TO.N,/OLED_SDA*%
X82000000Y-93150000D03*
%TO.P,J4,4*%
%TO.N,/OLED_SCL*%
X83250000Y-93150000D03*
%TO.P,J4,5*%
%TO.N,/OLED_RESET*%
X84500000Y-93150000D03*
D12*
%TO.P,J4,MP*%
%TO.N,N/C*%
X77650000Y-96350000D03*
X86350000Y-96350000D03*
%TD*%
D13*
%TO.P,D1,1*%
%TO.N,/RGB_R_K*%
X66595000Y-31000000D03*
D14*
%TO.P,D1,2*%
%TO.N,/+3V3*%
X67865000Y-31000000D03*
D13*
%TO.P,D1,3*%
%TO.N,/RGB_G_K*%
X69135000Y-31000000D03*
%TO.P,D1,4*%
%TO.N,/RGB_B_K*%
X70405000Y-31000000D03*
%TD*%
D15*
%TO.P,C1,1,1_1*%
%TO.N,/+3V3*%
X137000000Y-86000000D03*
%TO.P,C1,2,2_2*%
%TO.N,/GND*%
X139000000Y-86000000D03*
%TD*%
%TO.P,C2,1,1_1*%
%TO.N,/+3V3*%
X123000000Y-91000000D03*
%TO.P,C2,2,2_2*%
%TO.N,/GND*%
X125000000Y-91000000D03*
%TD*%
D16*
%TO.P,J3,1,1_1*%
%TO.N,/STOP_IN_RAW*%
X139000000Y-92000000D03*
D17*
%TO.P,J3,2,2_2*%
%TO.N,/STOP_RETURN*%
X142810000Y-92000000D03*
%TD*%
D15*
%TO.P,R1,1,1_1*%
%TO.N,/+3V3*%
X115000000Y-67000000D03*
%TO.P,R1,2,2_2*%
%TO.N,/RESET*%
X117000000Y-67000000D03*
%TD*%
D18*
%TO.P,R4,1,1_1*%
%TO.N,/RGB_B_GPIO*%
X72000000Y-36500000D03*
%TO.P,R4,2,2_2*%
%TO.N,/RGB_B_K*%
X72000000Y-34500000D03*
%TD*%
%TO.P,R2,1,1_1*%
%TO.N,/RGB_R_GPIO*%
X65000000Y-36500000D03*
%TO.P,R2,2,2_2*%
%TO.N,/RGB_R_K*%
X65000000Y-34500000D03*
%TD*%
%TO.P,R3,1,1_1*%
%TO.N,/RGB_G_GPIO*%
X68500000Y-36500000D03*
%TO.P,R3,2,2_2*%
%TO.N,/RGB_G_K*%
X68500000Y-34500000D03*
%TD*%
D10*
%TO.P,TP3,1,1_1*%
%TO.N,/SDA*%
X102000000Y-88000000D03*
%TD*%
%TO.P,TP1,1,1_1*%
%TO.N,/+3V3*%
X110000000Y-90000000D03*
%TD*%
D19*
%TO.P,SW2,1,1_1*%
%TO.N,/R6_PULL*%
X97250000Y-18250000D03*
X97250000Y-23250000D03*
%TO.P,SW2,2,2_2*%
%TO.N,/C0*%
X109750000Y-18250000D03*
X109750000Y-23250000D03*
%TD*%
D20*
%TO.P,U1,1,ROW7_1*%
%TO.N,/+3V3*%
X121800000Y-76750000D03*
%TO.P,U1,2,ROW6_2*%
%TO.N,/R6_PULL*%
X121800000Y-77250000D03*
%TO.P,U1,3,ROW5_3*%
%TO.N,/R5_ARM*%
X121800000Y-77750000D03*
%TO.P,U1,4,ROW4_4*%
%TO.N,/R4_SELECT*%
X121800000Y-78250000D03*
%TO.P,U1,5,ROW3_5*%
%TO.N,/R3_DOWN*%
X121800000Y-78750000D03*
%TO.P,U1,6,ROW2_6*%
%TO.N,/R2_UP*%
X121800000Y-79250000D03*
D21*
%TO.P,U1,7,ROW1_7*%
%TO.N,/R1_RIGHT*%
X122750000Y-80200000D03*
%TO.P,U1,8,ROW0_8*%
%TO.N,/R0_LEFT*%
X123250000Y-80200000D03*
%TO.P,U1,9,COL0_9*%
%TO.N,/C0*%
X123750000Y-80200000D03*
%TO.P,U1,10,COL1_10*%
%TO.N,/+3V3*%
X124250000Y-80200000D03*
%TO.P,U1,11,COL2_11*%
X124750000Y-80200000D03*
%TO.P,U1,12,COL3_12*%
X125250000Y-80200000D03*
D20*
%TO.P,U1,13,COL4_13*%
X126200000Y-79250000D03*
%TO.P,U1,14,COL5_14*%
X126200000Y-78750000D03*
%TO.P,U1,15,COL6_15*%
%TO.N,/RGB_R_GPIO*%
X126200000Y-78250000D03*
%TO.P,U1,16,COL7_16*%
%TO.N,/RGB_G_GPIO*%
X126200000Y-77750000D03*
%TO.P,U1,17,COL8_17*%
%TO.N,/RGB_B_GPIO*%
X126200000Y-77250000D03*
%TO.P,U1,18,COL9_18*%
%TO.N,/+3V3*%
X126200000Y-76750000D03*
D21*
%TO.P,U1,19,GND_19*%
%TO.N,/GND*%
X125250000Y-75800000D03*
%TO.P,U1,20,~{RESET}_20*%
%TO.N,/RESET*%
X124750000Y-75800000D03*
%TO.P,U1,21,VCC_21*%
%TO.N,/+3V3*%
X124250000Y-75800000D03*
%TO.P,U1,22,SDA_22*%
%TO.N,/SDA*%
X123750000Y-75800000D03*
%TO.P,U1,23,SCL_23*%
%TO.N,/SCL*%
X123250000Y-75800000D03*
%TO.P,U1,24,~{INT}_24*%
%TO.N,/INT_TEST*%
X122750000Y-75800000D03*
D22*
%TO.P,U1,25,EP_25*%
%TO.N,/GND*%
X124000000Y-78000000D03*
%TD*%
D23*
%TO.P,J1,1,1_1*%
%TO.N,/+3V3*%
X126125000Y-95000000D03*
%TO.P,J1,2,2_2*%
%TO.N,/GND*%
X127375000Y-95000000D03*
%TO.P,J1,3,3_3*%
%TO.N,/SDA*%
X128625000Y-95000000D03*
%TO.P,J1,4,4_4*%
%TO.N,/SCL*%
X129875000Y-95000000D03*
%TD*%
D24*
%TO.P,SW3,1,COMMON_1*%
%TO.N,/C0*%
X105000000Y-68500000D03*
D25*
%TO.P,SW3,2,LEFT_2*%
%TO.N,/R0_LEFT*%
X100000000Y-63500000D03*
%TO.P,SW3,3,RIGHT_3*%
%TO.N,/R1_RIGHT*%
X110000000Y-63500000D03*
%TO.P,SW3,4,UP_4*%
%TO.N,/R2_UP*%
X105000000Y-58500000D03*
%TO.P,SW3,5,DOWN_5*%
%TO.N,/R3_DOWN*%
X100000000Y-68500000D03*
%TO.P,SW3,6,SELECT_6*%
%TO.N,/R4_SELECT*%
X110000000Y-68500000D03*
%TD*%
D26*
%TO.P,J2,1*%
%TO.N,/OLED_VCC*%
X65000000Y-70000000D03*
D27*
%TO.P,J2,2*%
%TO.N,/OLED_GND*%
X67500000Y-70000000D03*
%TO.P,J2,3*%
%TO.N,/OLED_SDA*%
X70000000Y-70000000D03*
%TO.P,J2,4*%
%TO.N,/OLED_SCL*%
X72500000Y-70000000D03*
%TO.P,J2,5*%
%TO.N,/OLED_RESET*%
X75000000Y-70000000D03*
%TD*%
D19*
%TO.P,SW1,1,1_1*%
%TO.N,/R5_ARM*%
X27250000Y-18250000D03*
X27250000Y-23250000D03*
%TO.P,SW1,2,2_2*%
%TO.N,/C0*%
X39750000Y-18250000D03*
X39750000Y-23250000D03*
%TD*%
D28*
%TO.N,/R5_ARM*%
X24000000Y-18250000D03*
X24000000Y-77750000D03*
%TO.N,/C0*%
X123750000Y-84000000D03*
X108000000Y-70500000D03*
%TO.N,/R6_PULL*%
X94000000Y-77250000D03*
X94000000Y-18250000D03*
%TO.N,/R0_LEFT*%
X120000000Y-66000000D03*
X123250000Y-83000000D03*
%TO.N,/R1_RIGHT*%
X122750000Y-82000000D03*
X122000000Y-61000000D03*
%TO.N,/R2_UP*%
X91000000Y-58500000D03*
X91000000Y-79250000D03*
%TO.N,/R3_DOWN*%
X93000000Y-68500000D03*
X93000000Y-78750000D03*
%TO.N,/R4_SELECT*%
X116000000Y-68500000D03*
X116000000Y-78250000D03*
%TO.N,/+3V3*%
X128000000Y-78750000D03*
X124250000Y-71500000D03*
X112000000Y-76750000D03*
X128000000Y-76750000D03*
X124250000Y-82000000D03*
%TO.N,/RGB_R_GPIO*%
X137000000Y-38000000D03*
X137000000Y-78250000D03*
X65000000Y-36500000D03*
X65000000Y-38000000D03*
%TO.N,/RGB_G_GPIO*%
X68500000Y-40000000D03*
X139000000Y-77750000D03*
X139000000Y-40000000D03*
X68500000Y-36500000D03*
%TO.N,/RGB_B_GPIO*%
X141000000Y-77250000D03*
X72000000Y-42000000D03*
X72000000Y-36500000D03*
X141000000Y-42000000D03*
%TO.N,/GND*%
X141000000Y-86000000D03*
X125250000Y-70000000D03*
X124000000Y-78000000D03*
X130000000Y-84000000D03*
X134000000Y-68000000D03*
X135000000Y-84000000D03*
X126000000Y-68000000D03*
X127000000Y-91000000D03*
%TO.N,/SDA*%
X127000000Y-73500000D03*
X128625000Y-97000000D03*
X123750000Y-73500000D03*
X129000000Y-73500000D03*
X134000000Y-88000000D03*
%TO.N,/SCL*%
X127000000Y-74500000D03*
X129875000Y-93000000D03*
X129000000Y-74500000D03*
X132000000Y-86000000D03*
X123250000Y-74500000D03*
%TO.N,/OLED_VCC*%
X79500000Y-91000000D03*
%TO.N,/OLED_GND*%
X80750000Y-91000000D03*
%TO.N,/OLED_SDA*%
X82000000Y-91000000D03*
%TO.N,/OLED_SCL*%
X83250000Y-91000000D03*
%TO.N,/OLED_RESET*%
X84500000Y-91000000D03*
%TD*%
%TO.N,/R5_ARM*%
D29*
X121800000Y-77750000D02*
X24000000Y-77750000D01*
X24000000Y-18250000D02*
X27250000Y-18250000D01*
%TO.N,/C0*%
X123750000Y-80200000D02*
X123750000Y-84000000D01*
X108000000Y-70500000D02*
X105000000Y-70500000D01*
X105000000Y-70500000D02*
X105000000Y-68500000D01*
%TO.N,/R6_PULL*%
X121800000Y-77250000D02*
X94000000Y-77250000D01*
X94000000Y-18250000D02*
X97250000Y-18250000D01*
%TO.N,/R0_LEFT*%
X100000000Y-66000000D02*
X100000000Y-63500000D01*
X120000000Y-66000000D02*
X100000000Y-66000000D01*
X123250000Y-80200000D02*
X123250000Y-83000000D01*
%TO.N,/R1_RIGHT*%
X122750000Y-80200000D02*
X122750000Y-82000000D01*
X122000000Y-61000000D02*
X110000000Y-61000000D01*
X110000000Y-61000000D02*
X110000000Y-63500000D01*
%TO.N,/R2_UP*%
X121800000Y-79250000D02*
X91000000Y-79250000D01*
X91000000Y-58500000D02*
X105000000Y-58500000D01*
%TO.N,/R3_DOWN*%
X93000000Y-68500000D02*
X100000000Y-68500000D01*
X121800000Y-78750000D02*
X93000000Y-78750000D01*
%TO.N,/R4_SELECT*%
X121800000Y-78250000D02*
X116000000Y-78250000D01*
X116000000Y-68500000D02*
X110000000Y-68500000D01*
%TO.N,/+3V3*%
X126200000Y-78750000D02*
X128000000Y-78750000D01*
X126200000Y-79250000D02*
X126200000Y-78750000D01*
X124250000Y-80200000D02*
X124250000Y-82000000D01*
X124250000Y-80200000D02*
X125250000Y-80200000D01*
X124250000Y-75800000D02*
X124250000Y-71500000D01*
X121800000Y-76750000D02*
X112000000Y-76750000D01*
X126200000Y-76750000D02*
X128000000Y-76750000D01*
%TO.N,/RGB_R_GPIO*%
X126200000Y-78250000D02*
X137000000Y-78250000D01*
X137000000Y-38000000D02*
X65000000Y-38000000D01*
%TO.N,/RGB_G_GPIO*%
X126200000Y-77750000D02*
X139000000Y-77750000D01*
X139000000Y-40000000D02*
X68500000Y-40000000D01*
%TO.N,/RGB_B_GPIO*%
X141000000Y-42000000D02*
X72000000Y-42000000D01*
X126200000Y-77250000D02*
X141000000Y-77250000D01*
%TO.N,/GND*%
X125250000Y-76500000D02*
X125250000Y-75800000D01*
X124000000Y-78000000D02*
X125250000Y-76500000D01*
X126000000Y-68000000D02*
X134000000Y-68000000D01*
X125000000Y-91000000D02*
X127000000Y-91000000D01*
X127375000Y-95000000D02*
X127000000Y-91000000D01*
X125250000Y-75800000D02*
X125250000Y-70000000D01*
X139000000Y-86000000D02*
X141000000Y-86000000D01*
X135000000Y-84000000D02*
X130000000Y-84000000D01*
%TO.N,/RESET*%
X124750000Y-69000000D02*
X117000000Y-69000000D01*
X124750000Y-75800000D02*
X124750000Y-69000000D01*
X117000000Y-69000000D02*
X117000000Y-67000000D01*
%TO.N,/SDA*%
X128625000Y-97000000D02*
X128625000Y-95000000D01*
X123750000Y-75800000D02*
X123750000Y-73500000D01*
X134000000Y-88000000D02*
X102000000Y-88000000D01*
X127000000Y-73500000D02*
X129000000Y-73500000D01*
%TO.N,/SCL*%
X129875000Y-93000000D02*
X129875000Y-95000000D01*
X132000000Y-86000000D02*
X98000000Y-86000000D01*
X123250000Y-75800000D02*
X123250000Y-74500000D01*
X127000000Y-74500000D02*
X129000000Y-74500000D01*
%TO.N,/RGB_R_K*%
X65000000Y-34500000D02*
X66595000Y-31000000D01*
%TO.N,/RGB_G_K*%
X68500000Y-34500000D02*
X69135000Y-31000000D01*
%TO.N,/RGB_B_K*%
X72000000Y-34500000D02*
X70405000Y-31000000D01*
%TO.N,/OLED_VCC*%
X79500000Y-91000000D02*
X79500000Y-93150000D01*
%TO.N,/OLED_GND*%
X80750000Y-91000000D02*
X80750000Y-93150000D01*
%TO.N,/OLED_SDA*%
X82000000Y-91000000D02*
X82000000Y-93150000D01*
%TO.N,/OLED_SCL*%
X83250000Y-91000000D02*
X83250000Y-93150000D01*
%TO.N,/OLED_RESET*%
X84500000Y-91000000D02*
X84500000Y-93150000D01*
%TD*%
%TA.AperFunction,Conductor*%
%TO.N,/+3V3*%
G36*
X147943039Y-2019685D02*
G01*
X147988794Y-2072489D01*
X148000000Y-2124000D01*
X148000000Y-97876000D01*
X147980315Y-97943039D01*
X147927511Y-97988794D01*
X147876000Y-98000000D01*
X87364713Y-98000000D01*
X87297674Y-97980315D01*
X87251919Y-97927511D01*
X87241975Y-97858353D01*
X87259174Y-97810904D01*
X87284810Y-97769340D01*
X87284814Y-97769334D01*
X87339999Y-97602797D01*
X87350500Y-97500009D01*
X87350499Y-95199992D01*
X87339999Y-95097203D01*
X87284814Y-94930666D01*
X87192712Y-94781344D01*
X87068656Y-94657288D01*
X86919334Y-94565186D01*
X86752797Y-94510001D01*
X86752795Y-94510000D01*
X86650010Y-94499500D01*
X86049998Y-94499500D01*
X86049980Y-94499501D01*
X85947203Y-94510000D01*
X85947200Y-94510001D01*
X85780668Y-94565185D01*
X85780663Y-94565187D01*
X85631342Y-94657289D01*
X85507289Y-94781342D01*
X85415187Y-94930663D01*
X85415186Y-94930666D01*
X85360001Y-95097203D01*
X85360001Y-95097204D01*
X85360000Y-95097204D01*
X85349500Y-95199983D01*
X85349500Y-97500001D01*
X85349501Y-97500018D01*
X85360000Y-97602796D01*
X85360001Y-97602799D01*
X85415185Y-97769331D01*
X85415189Y-97769340D01*
X85440826Y-97810904D01*
X85459266Y-97878296D01*
X85438343Y-97944960D01*
X85384701Y-97989729D01*
X85335287Y-98000000D01*
X78664713Y-98000000D01*
X78597674Y-97980315D01*
X78551919Y-97927511D01*
X78541975Y-97858353D01*
X78559174Y-97810904D01*
X78584810Y-97769340D01*
X78584814Y-97769334D01*
X78639999Y-97602797D01*
X78650500Y-97500009D01*
X78650499Y-95199992D01*
X78639999Y-95097203D01*
X78584814Y-94930666D01*
X78492712Y-94781344D01*
X78368656Y-94657288D01*
X78219334Y-94565186D01*
X78052797Y-94510001D01*
X78052795Y-94510000D01*
X77950010Y-94499500D01*
X77349998Y-94499500D01*
X77349980Y-94499501D01*
X77247203Y-94510000D01*
X77247200Y-94510001D01*
X77080668Y-94565185D01*
X77080663Y-94565187D01*
X76931342Y-94657289D01*
X76807289Y-94781342D01*
X76715187Y-94930663D01*
X76715186Y-94930666D01*
X76660001Y-95097203D01*
X76660001Y-95097204D01*
X76660000Y-95097204D01*
X76649500Y-95199983D01*
X76649500Y-97500001D01*
X76649501Y-97500018D01*
X76660000Y-97602796D01*
X76660001Y-97602799D01*
X76715185Y-97769331D01*
X76715189Y-97769340D01*
X76740826Y-97810904D01*
X76759266Y-97878296D01*
X76738343Y-97944960D01*
X76684701Y-97989729D01*
X76635287Y-98000000D01*
X2124000Y-98000000D01*
X2056961Y-97980315D01*
X2011206Y-97927511D01*
X2000000Y-97876000D01*
X2000000Y-94878711D01*
X3149500Y-94878711D01*
X3149500Y-95121288D01*
X3181161Y-95361785D01*
X3243947Y-95596104D01*
X3336773Y-95820205D01*
X3336776Y-95820212D01*
X3458064Y-96030289D01*
X3458066Y-96030292D01*
X3458067Y-96030293D01*
X3605733Y-96222736D01*
X3605739Y-96222743D01*
X3777256Y-96394260D01*
X3777263Y-96394266D01*
X3841808Y-96443793D01*
X3969711Y-96541936D01*
X4179788Y-96663224D01*
X4403900Y-96756054D01*
X4638211Y-96818838D01*
X4818586Y-96842584D01*
X4878711Y-96850500D01*
X4878712Y-96850500D01*
X5121289Y-96850500D01*
X5169388Y-96844167D01*
X5361789Y-96818838D01*
X5596100Y-96756054D01*
X5820212Y-96663224D01*
X6030289Y-96541936D01*
X6222738Y-96394265D01*
X6394265Y-96222738D01*
X6541936Y-96030289D01*
X6663224Y-95820212D01*
X6756054Y-95596100D01*
X6818838Y-95361789D01*
X6850500Y-95121288D01*
X6850500Y-94878712D01*
X6818838Y-94638211D01*
X6756054Y-94403900D01*
X6663224Y-94179788D01*
X6541936Y-93969711D01*
X6394265Y-93777262D01*
X6394260Y-93777256D01*
X6222743Y-93605739D01*
X6222736Y-93605733D01*
X6030293Y-93458067D01*
X6030292Y-93458066D01*
X6030289Y-93458064D01*
X5820212Y-93336776D01*
X5820205Y-93336773D01*
X5596104Y-93243947D01*
X5361785Y-93181161D01*
X5121289Y-93149500D01*
X5121288Y-93149500D01*
X4878712Y-93149500D01*
X4878711Y-93149500D01*
X4638214Y-93181161D01*
X4403895Y-93243947D01*
X4179794Y-93336773D01*
X4179785Y-93336777D01*
X3969706Y-93458067D01*
X3777263Y-93605733D01*
X3777256Y-93605739D01*
X3605739Y-93777256D01*
X3605733Y-93777263D01*
X3458067Y-93969706D01*
X3336777Y-94179785D01*
X3336773Y-94179794D01*
X3243947Y-94403895D01*
X3181161Y-94638214D01*
X3149500Y-94878711D01*
X2000000Y-94878711D01*
X2000000Y-92384298D01*
X78699500Y-92384298D01*
X78699500Y-93915701D01*
X78702401Y-93952567D01*
X78702402Y-93952573D01*
X78748254Y-94110393D01*
X78748255Y-94110396D01*
X78831917Y-94251862D01*
X78831923Y-94251870D01*
X78948129Y-94368076D01*
X78948133Y-94368079D01*
X78948135Y-94368081D01*
X79089602Y-94451744D01*
X79131224Y-94463836D01*
X79247426Y-94497597D01*
X79247429Y-94497597D01*
X79247431Y-94497598D01*
X79284306Y-94500500D01*
X79284314Y-94500500D01*
X79715686Y-94500500D01*
X79715694Y-94500500D01*
X79752569Y-94497598D01*
X79752571Y-94497597D01*
X79752573Y-94497597D01*
X79794191Y-94485505D01*
X79910398Y-94451744D01*
X80035048Y-94378026D01*
X80058580Y-94364110D01*
X80059747Y-94366083D01*
X80114035Y-94344769D01*
X80182553Y-94358448D01*
X80191404Y-94364136D01*
X80191420Y-94364110D01*
X80232034Y-94388128D01*
X80339602Y-94451744D01*
X80381224Y-94463836D01*
X80497426Y-94497597D01*
X80497429Y-94497597D01*
X80497431Y-94497598D01*
X80534306Y-94500500D01*
X80534314Y-94500500D01*
X80965686Y-94500500D01*
X80965694Y-94500500D01*
X81002569Y-94497598D01*
X81002571Y-94497597D01*
X81002573Y-94497597D01*
X81044191Y-94485505D01*
X81160398Y-94451744D01*
X81285048Y-94378026D01*
X81308580Y-94364110D01*
X81309747Y-94366083D01*
X81364035Y-94344769D01*
X81432553Y-94358448D01*
X81441404Y-94364136D01*
X81441420Y-94364110D01*
X81482034Y-94388128D01*
X81589602Y-94451744D01*
X81631224Y-94463836D01*
X81747426Y-94497597D01*
X81747429Y-94497597D01*
X81747431Y-94497598D01*
X81784306Y-94500500D01*
X81784314Y-94500500D01*
X82215686Y-94500500D01*
X82215694Y-94500500D01*
X82252569Y-94497598D01*
X82252571Y-94497597D01*
X82252573Y-94497597D01*
X82294191Y-94485505D01*
X82410398Y-94451744D01*
X82535048Y-94378026D01*
X82558580Y-94364110D01*
X82559747Y-94366083D01*
X82614035Y-94344769D01*
X82682553Y-94358448D01*
X82691404Y-94364136D01*
X82691420Y-94364110D01*
X82732034Y-94388128D01*
X82839602Y-94451744D01*
X82881224Y-94463836D01*
X82997426Y-94497597D01*
X82997429Y-94497597D01*
X82997431Y-94497598D01*
X83034306Y-94500500D01*
X83034314Y-94500500D01*
X83465686Y-94500500D01*
X83465694Y-94500500D01*
X83502569Y-94497598D01*
X83502571Y-94497597D01*
X83502573Y-94497597D01*
X83544191Y-94485505D01*
X83660398Y-94451744D01*
X83785048Y-94378026D01*
X83808580Y-94364110D01*
X83809747Y-94366083D01*
X83864035Y-94344769D01*
X83932553Y-94358448D01*
X83941404Y-94364136D01*
X83941420Y-94364110D01*
X83982034Y-94388128D01*
X84089602Y-94451744D01*
X84131224Y-94463836D01*
X84247426Y-94497597D01*
X84247429Y-94497597D01*
X84247431Y-94497598D01*
X84284306Y-94500500D01*
X84284314Y-94500500D01*
X84715686Y-94500500D01*
X84715694Y-94500500D01*
X84752569Y-94497598D01*
X84752571Y-94497597D01*
X84752573Y-94497597D01*
X84794191Y-94485505D01*
X84910398Y-94451744D01*
X85051865Y-94368081D01*
X85168081Y-94251865D01*
X85251744Y-94110398D01*
X85292619Y-93969706D01*
X85297597Y-93952573D01*
X85297598Y-93952567D01*
X85297632Y-93952135D01*
X85300500Y-93915694D01*
X85300500Y-92384306D01*
X85297598Y-92347431D01*
X85251744Y-92189602D01*
X85168081Y-92048135D01*
X85168079Y-92048133D01*
X85168076Y-92048129D01*
X85136819Y-92016872D01*
X85103334Y-91955549D01*
X85100500Y-91929191D01*
X85100500Y-91489767D01*
X85120185Y-91422728D01*
X85121398Y-91420876D01*
X85165080Y-91355501D01*
X85165080Y-91355500D01*
X85165084Y-91355495D01*
X85221658Y-91218913D01*
X85236457Y-91144514D01*
X85250500Y-91073920D01*
X85250500Y-90926079D01*
X85221659Y-90781092D01*
X85221658Y-90781091D01*
X85221658Y-90781087D01*
X85221656Y-90781082D01*
X85165087Y-90644511D01*
X85165080Y-90644498D01*
X85082951Y-90521584D01*
X85082948Y-90521580D01*
X84978419Y-90417051D01*
X84978415Y-90417048D01*
X84855501Y-90334919D01*
X84855488Y-90334912D01*
X84718917Y-90278343D01*
X84718907Y-90278340D01*
X84573920Y-90249500D01*
X84573918Y-90249500D01*
X84426082Y-90249500D01*
X84426080Y-90249500D01*
X84281092Y-90278340D01*
X84281082Y-90278343D01*
X84144511Y-90334912D01*
X84144498Y-90334919D01*
X84021584Y-90417048D01*
X84021580Y-90417051D01*
X83962681Y-90475951D01*
X83901358Y-90509436D01*
X83831666Y-90504452D01*
X83787319Y-90475951D01*
X83728419Y-90417051D01*
X83728415Y-90417048D01*
X83605501Y-90334919D01*
X83605488Y-90334912D01*
X83468917Y-90278343D01*
X83468907Y-90278340D01*
X83323920Y-90249500D01*
X83323918Y-90249500D01*
X83176082Y-90249500D01*
X83176080Y-90249500D01*
X83031092Y-90278340D01*
X83031082Y-90278343D01*
X82894511Y-90334912D01*
X82894498Y-90334919D01*
X82771584Y-90417048D01*
X82771580Y-90417051D01*
X82712681Y-90475951D01*
X82651358Y-90509436D01*
X82581666Y-90504452D01*
X82537319Y-90475951D01*
X82478419Y-90417051D01*
X82478415Y-90417048D01*
X82355501Y-90334919D01*
X82355488Y-90334912D01*
X82218917Y-90278343D01*
X82218907Y-90278340D01*
X82073920Y-90249500D01*
X82073918Y-90249500D01*
X81926082Y-90249500D01*
X81926080Y-90249500D01*
X81781092Y-90278340D01*
X81781082Y-90278343D01*
X81644511Y-90334912D01*
X81644498Y-90334919D01*
X81521584Y-90417048D01*
X81521580Y-90417051D01*
X81462681Y-90475951D01*
X81401358Y-90509436D01*
X81331666Y-90504452D01*
X81287319Y-90475951D01*
X81228419Y-90417051D01*
X81228415Y-90417048D01*
X81105501Y-90334919D01*
X81105488Y-90334912D01*
X80968917Y-90278343D01*
X80968907Y-90278340D01*
X80823920Y-90249500D01*
X80823918Y-90249500D01*
X80676082Y-90249500D01*
X80676080Y-90249500D01*
X80531092Y-90278340D01*
X80531082Y-90278343D01*
X80394511Y-90334912D01*
X80394498Y-90334919D01*
X80271584Y-90417048D01*
X80271580Y-90417051D01*
X80212681Y-90475951D01*
X80151358Y-90509436D01*
X80081666Y-90504452D01*
X80037319Y-90475951D01*
X79978419Y-90417051D01*
X79978415Y-90417048D01*
X79855501Y-90334919D01*
X79855488Y-90334912D01*
X79718917Y-90278343D01*
X79718907Y-90278340D01*
X79573920Y-90249500D01*
X79573918Y-90249500D01*
X79426082Y-90249500D01*
X79426080Y-90249500D01*
X79281092Y-90278340D01*
X79281082Y-90278343D01*
X79144511Y-90334912D01*
X79144498Y-90334919D01*
X79021584Y-90417048D01*
X79021580Y-90417051D01*
X78917051Y-90521580D01*
X78917048Y-90521584D01*
X78834919Y-90644498D01*
X78834912Y-90644511D01*
X78778343Y-90781082D01*
X78778340Y-90781092D01*
X78749500Y-90926079D01*
X78749500Y-90926082D01*
X78749500Y-91073918D01*
X78749500Y-91073920D01*
X78749499Y-91073920D01*
X78778340Y-91218907D01*
X78778343Y-91218917D01*
X78834912Y-91355488D01*
X78834919Y-91355501D01*
X78878602Y-91420876D01*
X78899480Y-91487553D01*
X78899500Y-91489767D01*
X78899500Y-91929191D01*
X78879815Y-91996230D01*
X78863181Y-92016872D01*
X78831923Y-92048129D01*
X78831917Y-92048137D01*
X78748255Y-92189603D01*
X78748254Y-92189606D01*
X78702402Y-92347426D01*
X78702401Y-92347432D01*
X78699500Y-92384298D01*
X2000000Y-92384298D01*
X2000000Y-85881902D01*
X96499500Y-85881902D01*
X96499500Y-86118097D01*
X96536446Y-86351368D01*
X96609433Y-86575996D01*
X96683653Y-86721659D01*
X96716657Y-86786433D01*
X96855483Y-86977510D01*
X97022490Y-87144517D01*
X97213567Y-87283343D01*
X97308659Y-87331795D01*
X97424003Y-87390566D01*
X97424005Y-87390566D01*
X97424008Y-87390568D01*
X97544412Y-87429689D01*
X97648631Y-87463553D01*
X97881903Y-87500500D01*
X97881908Y-87500500D01*
X98118097Y-87500500D01*
X98351368Y-87463553D01*
X98575992Y-87390568D01*
X98786433Y-87283343D01*
X98977510Y-87144517D01*
X99144517Y-86977510D01*
X99283343Y-86786433D01*
X99343583Y-86668204D01*
X99391558Y-86617409D01*
X99454068Y-86600500D01*
X100991811Y-86600500D01*
X101058850Y-86620185D01*
X101104605Y-86672989D01*
X101114549Y-86742147D01*
X101085524Y-86805703D01*
X101064697Y-86824818D01*
X101022488Y-86855484D01*
X100855485Y-87022487D01*
X100855485Y-87022488D01*
X100855483Y-87022490D01*
X100795862Y-87104550D01*
X100716657Y-87213566D01*
X100609433Y-87424003D01*
X100536446Y-87648631D01*
X100499500Y-87881902D01*
X100499500Y-88118097D01*
X100536446Y-88351368D01*
X100609433Y-88575996D01*
X100683653Y-88721659D01*
X100716657Y-88786433D01*
X100855483Y-88977510D01*
X101022490Y-89144517D01*
X101213567Y-89283343D01*
X101312991Y-89334002D01*
X101424003Y-89390566D01*
X101424005Y-89390566D01*
X101424008Y-89390568D01*
X101544412Y-89429689D01*
X101648631Y-89463553D01*
X101881903Y-89500500D01*
X101881908Y-89500500D01*
X102118097Y-89500500D01*
X102351368Y-89463553D01*
X102575992Y-89390568D01*
X102786433Y-89283343D01*
X102977510Y-89144517D01*
X103144517Y-88977510D01*
X103283343Y-88786433D01*
X103343583Y-88668204D01*
X103391558Y-88617409D01*
X103454068Y-88600500D01*
X104991811Y-88600500D01*
X105058850Y-88620185D01*
X105104605Y-88672989D01*
X105114549Y-88742147D01*
X105085524Y-88805703D01*
X105064697Y-88824818D01*
X105022488Y-88855484D01*
X104855485Y-89022487D01*
X104855485Y-89022488D01*
X104855483Y-89022490D01*
X104795862Y-89104550D01*
X104716657Y-89213566D01*
X104609433Y-89424003D01*
X104536446Y-89648631D01*
X104499500Y-89881902D01*
X104499500Y-90118097D01*
X104536446Y-90351368D01*
X104609433Y-90575996D01*
X104688732Y-90731628D01*
X104716657Y-90786433D01*
X104855483Y-90977510D01*
X105022490Y-91144517D01*
X105213567Y-91283343D01*
X105312991Y-91334002D01*
X105424003Y-91390566D01*
X105424005Y-91390566D01*
X105424008Y-91390568D01*
X105517286Y-91420876D01*
X105648631Y-91463553D01*
X105881903Y-91500500D01*
X105881908Y-91500500D01*
X106118097Y-91500500D01*
X106351368Y-91463553D01*
X106575992Y-91390568D01*
X106786433Y-91283343D01*
X106977510Y-91144517D01*
X107144517Y-90977510D01*
X107283343Y-90786433D01*
X107390568Y-90575992D01*
X107418298Y-90490649D01*
X123899500Y-90490649D01*
X123899500Y-91509335D01*
X123899501Y-91509352D01*
X123909860Y-91610760D01*
X123909861Y-91610763D01*
X123964309Y-91775076D01*
X123964314Y-91775087D01*
X124055183Y-91922407D01*
X124055186Y-91922411D01*
X124177588Y-92044813D01*
X124177592Y-92044816D01*
X124324912Y-92135685D01*
X124324915Y-92135686D01*
X124324921Y-92135690D01*
X124489239Y-92190139D01*
X124590657Y-92200500D01*
X125409342Y-92200499D01*
X125409350Y-92200498D01*
X125409353Y-92200498D01*
X125464885Y-92194825D01*
X125510761Y-92190139D01*
X125675079Y-92135690D01*
X125822411Y-92044814D01*
X125944814Y-91922411D01*
X126035690Y-91775079D01*
X126065374Y-91685496D01*
X126105146Y-91628051D01*
X126169662Y-91601228D01*
X126183080Y-91600500D01*
X126340244Y-91600500D01*
X126407283Y-91620185D01*
X126453038Y-91672989D01*
X126463702Y-91712925D01*
X126631265Y-93500249D01*
X126642677Y-93621982D01*
X126629336Y-93690566D01*
X126618486Y-93707865D01*
X126581203Y-93757669D01*
X126581202Y-93757671D01*
X126530908Y-93892517D01*
X126524501Y-93952116D01*
X126524501Y-93952123D01*
X126524500Y-93952135D01*
X126524500Y-96047870D01*
X126524501Y-96047876D01*
X126530908Y-96107483D01*
X126581202Y-96242328D01*
X126581206Y-96242335D01*
X126667452Y-96357544D01*
X126667455Y-96357547D01*
X126782664Y-96443793D01*
X126782671Y-96443797D01*
X126917517Y-96494091D01*
X126917516Y-96494091D01*
X126924444Y-96494835D01*
X126977127Y-96500500D01*
X127772872Y-96500499D01*
X127823271Y-96495081D01*
X127892029Y-96507487D01*
X127943166Y-96555098D01*
X127960445Y-96622798D01*
X127951085Y-96665823D01*
X127903343Y-96781082D01*
X127903340Y-96781092D01*
X127874500Y-96926079D01*
X127874500Y-96926082D01*
X127874500Y-97073918D01*
X127874500Y-97073920D01*
X127874499Y-97073920D01*
X127903340Y-97218907D01*
X127903343Y-97218917D01*
X127959912Y-97355488D01*
X127959919Y-97355501D01*
X128042048Y-97478415D01*
X128042051Y-97478419D01*
X128146580Y-97582948D01*
X128146584Y-97582951D01*
X128269498Y-97665080D01*
X128269511Y-97665087D01*
X128406082Y-97721656D01*
X128406087Y-97721658D01*
X128406091Y-97721658D01*
X128406092Y-97721659D01*
X128551079Y-97750500D01*
X128551082Y-97750500D01*
X128698920Y-97750500D01*
X128796462Y-97731096D01*
X128843913Y-97721658D01*
X128980495Y-97665084D01*
X129103416Y-97582951D01*
X129207951Y-97478416D01*
X129290084Y-97355495D01*
X129346658Y-97218913D01*
X129375500Y-97073918D01*
X129375500Y-96926082D01*
X129375500Y-96926079D01*
X129346659Y-96781092D01*
X129346658Y-96781091D01*
X129346658Y-96781087D01*
X129298913Y-96665822D01*
X129291445Y-96596353D01*
X129322720Y-96533874D01*
X129382809Y-96498222D01*
X129426727Y-96495081D01*
X129477127Y-96500500D01*
X130272872Y-96500499D01*
X130332483Y-96494091D01*
X130467331Y-96443796D01*
X130582546Y-96357546D01*
X130668796Y-96242331D01*
X130719091Y-96107483D01*
X130725500Y-96047873D01*
X130725499Y-93952128D01*
X130719091Y-93892517D01*
X130708066Y-93862958D01*
X130668797Y-93757671D01*
X130668793Y-93757664D01*
X130582548Y-93642457D01*
X130582546Y-93642454D01*
X130555199Y-93621982D01*
X130525188Y-93599515D01*
X130483318Y-93543581D01*
X130475500Y-93500249D01*
X130475500Y-93489767D01*
X130495185Y-93422728D01*
X130496398Y-93420876D01*
X130540080Y-93355501D01*
X130540080Y-93355500D01*
X130540084Y-93355495D01*
X130596658Y-93218913D01*
X130607164Y-93166097D01*
X130625500Y-93073920D01*
X130625500Y-92926079D01*
X130596659Y-92781092D01*
X130596658Y-92781091D01*
X130596658Y-92781087D01*
X130596656Y-92781082D01*
X130540087Y-92644511D01*
X130540080Y-92644498D01*
X130457951Y-92521584D01*
X130457948Y-92521580D01*
X130353419Y-92417051D01*
X130353415Y-92417048D01*
X130230501Y-92334919D01*
X130230488Y-92334912D01*
X130093917Y-92278343D01*
X130093907Y-92278340D01*
X129948920Y-92249500D01*
X129948918Y-92249500D01*
X129801082Y-92249500D01*
X129801080Y-92249500D01*
X129656092Y-92278340D01*
X129656082Y-92278343D01*
X129519511Y-92334912D01*
X129519498Y-92334919D01*
X129396584Y-92417048D01*
X129396580Y-92417051D01*
X129292051Y-92521580D01*
X129292048Y-92521584D01*
X129209919Y-92644498D01*
X129209912Y-92644511D01*
X129153343Y-92781082D01*
X129153340Y-92781092D01*
X129124500Y-92926079D01*
X129124500Y-92926082D01*
X129124500Y-93073918D01*
X129124500Y-93073920D01*
X129124499Y-93073920D01*
X129153340Y-93218907D01*
X129153343Y-93218917D01*
X129201085Y-93334177D01*
X129208554Y-93403646D01*
X129177279Y-93466125D01*
X129117189Y-93501777D01*
X129073272Y-93504918D01*
X129022873Y-93499500D01*
X129022864Y-93499500D01*
X128227129Y-93499500D01*
X128227123Y-93499501D01*
X128167515Y-93505909D01*
X128043331Y-93552226D01*
X127973640Y-93557210D01*
X127956666Y-93552226D01*
X127911130Y-93535242D01*
X127855196Y-93493371D01*
X127831005Y-93430636D01*
X127644092Y-91436906D01*
X127657433Y-91368325D01*
X127664459Y-91356430D01*
X127665084Y-91355495D01*
X127721658Y-91218913D01*
X127736457Y-91144514D01*
X127750500Y-91073920D01*
X127750500Y-90926079D01*
X127721659Y-90781092D01*
X127721658Y-90781091D01*
X127721658Y-90781087D01*
X127721656Y-90781082D01*
X127665087Y-90644511D01*
X127665080Y-90644498D01*
X127582950Y-90521583D01*
X127582948Y-90521580D01*
X127513503Y-90452135D01*
X136999500Y-90452135D01*
X136999500Y-93547870D01*
X136999501Y-93547876D01*
X137005908Y-93607483D01*
X137056202Y-93742328D01*
X137056206Y-93742335D01*
X137142452Y-93857544D01*
X137142455Y-93857547D01*
X137257664Y-93943793D01*
X137257671Y-93943797D01*
X137392517Y-93994091D01*
X137392516Y-93994091D01*
X137399444Y-93994835D01*
X137452127Y-94000500D01*
X140547872Y-94000499D01*
X140607483Y-93994091D01*
X140742331Y-93943796D01*
X140857546Y-93857546D01*
X140943796Y-93742331D01*
X140994091Y-93607483D01*
X141000500Y-93547873D01*
X141000499Y-93293281D01*
X141020183Y-93226245D01*
X141072987Y-93180490D01*
X141142146Y-93170546D01*
X141205701Y-93199571D01*
X141222874Y-93217797D01*
X141302718Y-93321851D01*
X141302726Y-93321860D01*
X141488140Y-93507274D01*
X141488148Y-93507281D01*
X141488149Y-93507282D01*
X141524587Y-93535242D01*
X141696196Y-93666924D01*
X141923299Y-93798041D01*
X141923309Y-93798046D01*
X142151383Y-93892517D01*
X142165581Y-93898398D01*
X142418884Y-93966270D01*
X142667188Y-93998960D01*
X142678864Y-94000498D01*
X142678880Y-94000500D01*
X142678887Y-94000500D01*
X142941113Y-94000500D01*
X142941120Y-94000500D01*
X143201116Y-93966270D01*
X143218275Y-93961672D01*
X143288124Y-93963333D01*
X143345988Y-94002495D01*
X143373493Y-94066723D01*
X143361907Y-94135625D01*
X143357758Y-94143444D01*
X143336779Y-94179782D01*
X143336773Y-94179794D01*
X143243947Y-94403895D01*
X143181161Y-94638214D01*
X143149500Y-94878711D01*
X143149500Y-95121288D01*
X143181161Y-95361785D01*
X143243947Y-95596104D01*
X143336773Y-95820205D01*
X143336776Y-95820212D01*
X143458064Y-96030289D01*
X143458066Y-96030292D01*
X143458067Y-96030293D01*
X143605733Y-96222736D01*
X143605739Y-96222743D01*
X143777256Y-96394260D01*
X143777263Y-96394266D01*
X143841808Y-96443793D01*
X143969711Y-96541936D01*
X144179788Y-96663224D01*
X144403900Y-96756054D01*
X144638211Y-96818838D01*
X144818586Y-96842584D01*
X144878711Y-96850500D01*
X144878712Y-96850500D01*
X145121289Y-96850500D01*
X145169388Y-96844167D01*
X145361789Y-96818838D01*
X145596100Y-96756054D01*
X145820212Y-96663224D01*
X146030289Y-96541936D01*
X146222738Y-96394265D01*
X146394265Y-96222738D01*
X146541936Y-96030289D01*
X146663224Y-95820212D01*
X146756054Y-95596100D01*
X146818838Y-95361789D01*
X146850500Y-95121288D01*
X146850500Y-94878712D01*
X146818838Y-94638211D01*
X146756054Y-94403900D01*
X146663224Y-94179788D01*
X146541936Y-93969711D01*
X146394265Y-93777262D01*
X146394260Y-93777256D01*
X146222743Y-93605739D01*
X146222736Y-93605733D01*
X146030293Y-93458067D01*
X146030292Y-93458066D01*
X146030289Y-93458064D01*
X145820212Y-93336776D01*
X145820205Y-93336773D01*
X145596104Y-93243947D01*
X145361785Y-93181161D01*
X145121289Y-93149500D01*
X145121288Y-93149500D01*
X144878712Y-93149500D01*
X144878711Y-93149500D01*
X144670862Y-93176863D01*
X144601827Y-93166097D01*
X144549571Y-93119717D01*
X144530686Y-93052448D01*
X144547290Y-92991924D01*
X144608043Y-92886697D01*
X144708398Y-92644419D01*
X144776270Y-92391116D01*
X144810500Y-92131120D01*
X144810500Y-91868880D01*
X144776270Y-91608884D01*
X144708398Y-91355581D01*
X144708365Y-91355501D01*
X144608046Y-91113309D01*
X144608041Y-91113299D01*
X144476924Y-90886196D01*
X144317281Y-90678148D01*
X144317274Y-90678140D01*
X144131860Y-90492726D01*
X144131851Y-90492718D01*
X143923803Y-90333075D01*
X143696700Y-90201958D01*
X143696690Y-90201953D01*
X143454428Y-90101605D01*
X143454421Y-90101603D01*
X143454419Y-90101602D01*
X143201116Y-90033730D01*
X143143339Y-90026123D01*
X142941127Y-89999500D01*
X142941120Y-89999500D01*
X142678880Y-89999500D01*
X142678872Y-89999500D01*
X142447772Y-90029926D01*
X142418884Y-90033730D01*
X142255188Y-90077592D01*
X142165581Y-90101602D01*
X142165571Y-90101605D01*
X141923309Y-90201953D01*
X141923299Y-90201958D01*
X141696196Y-90333075D01*
X141488148Y-90492718D01*
X141302718Y-90678148D01*
X141222874Y-90782202D01*
X141166446Y-90823405D01*
X141096700Y-90827559D01*
X141035780Y-90793346D01*
X141003027Y-90731628D01*
X141000499Y-90706715D01*
X141000499Y-90452129D01*
X141000498Y-90452123D01*
X141000497Y-90452116D01*
X140994091Y-90392517D01*
X140992868Y-90389239D01*
X140943797Y-90257671D01*
X140943793Y-90257664D01*
X140857547Y-90142455D01*
X140857544Y-90142452D01*
X140742335Y-90056206D01*
X140742328Y-90056202D01*
X140607482Y-90005908D01*
X140607483Y-90005908D01*
X140547883Y-89999501D01*
X140547881Y-89999500D01*
X140547873Y-89999500D01*
X140547864Y-89999500D01*
X137452129Y-89999500D01*
X137452123Y-89999501D01*
X137392516Y-90005908D01*
X137257671Y-90056202D01*
X137257664Y-90056206D01*
X137142455Y-90142452D01*
X137142452Y-90142455D01*
X137056206Y-90257664D01*
X137056202Y-90257671D01*
X137005908Y-90392517D01*
X136999501Y-90452116D01*
X136999501Y-90452123D01*
X136999500Y-90452135D01*
X127513503Y-90452135D01*
X127478419Y-90417051D01*
X127478415Y-90417048D01*
X127355501Y-90334919D01*
X127355488Y-90334912D01*
X127218917Y-90278343D01*
X127218907Y-90278340D01*
X127073920Y-90249500D01*
X127073918Y-90249500D01*
X126926082Y-90249500D01*
X126926080Y-90249500D01*
X126781092Y-90278340D01*
X126781082Y-90278343D01*
X126644511Y-90334912D01*
X126644498Y-90334919D01*
X126579124Y-90378602D01*
X126512447Y-90399480D01*
X126510233Y-90399500D01*
X126183080Y-90399500D01*
X126116041Y-90379815D01*
X126070286Y-90327011D01*
X126065374Y-90314503D01*
X126046540Y-90257664D01*
X126035690Y-90224921D01*
X126035686Y-90224915D01*
X126035685Y-90224912D01*
X125944816Y-90077592D01*
X125944813Y-90077588D01*
X125822411Y-89955186D01*
X125822407Y-89955183D01*
X125675087Y-89864314D01*
X125675081Y-89864311D01*
X125675079Y-89864310D01*
X125675076Y-89864309D01*
X125510762Y-89809861D01*
X125409344Y-89799500D01*
X124590664Y-89799500D01*
X124590646Y-89799501D01*
X124489239Y-89809860D01*
X124489236Y-89809861D01*
X124324923Y-89864309D01*
X124324912Y-89864314D01*
X124177592Y-89955183D01*
X124177588Y-89955186D01*
X124055186Y-90077588D01*
X124055183Y-90077592D01*
X123964314Y-90224912D01*
X123964309Y-90224923D01*
X123909861Y-90389237D01*
X123899500Y-90490649D01*
X107418298Y-90490649D01*
X107463553Y-90351368D01*
X107475119Y-90278342D01*
X107500500Y-90118097D01*
X107500500Y-89881902D01*
X107463553Y-89648631D01*
X107390566Y-89424003D01*
X107334002Y-89312991D01*
X107283343Y-89213567D01*
X107144517Y-89022490D01*
X106977510Y-88855483D01*
X106935302Y-88824817D01*
X106892638Y-88769487D01*
X106886659Y-88699874D01*
X106919265Y-88638079D01*
X106980104Y-88603722D01*
X107008189Y-88600500D01*
X133510233Y-88600500D01*
X133577272Y-88620185D01*
X133579124Y-88621398D01*
X133644498Y-88665080D01*
X133644511Y-88665087D01*
X133769013Y-88716657D01*
X133781087Y-88721658D01*
X133781091Y-88721658D01*
X133781092Y-88721659D01*
X133926079Y-88750500D01*
X133926082Y-88750500D01*
X134073920Y-88750500D01*
X134171462Y-88731096D01*
X134218913Y-88721658D01*
X134355495Y-88665084D01*
X134478416Y-88582951D01*
X134582951Y-88478416D01*
X134665084Y-88355495D01*
X134666794Y-88351368D01*
X134721656Y-88218917D01*
X134721658Y-88218913D01*
X134750500Y-88073918D01*
X134750500Y-87926082D01*
X134750500Y-87926079D01*
X134721659Y-87781092D01*
X134721658Y-87781091D01*
X134721658Y-87781087D01*
X134721656Y-87781082D01*
X134665087Y-87644511D01*
X134665080Y-87644498D01*
X134582951Y-87521584D01*
X134582948Y-87521580D01*
X134478419Y-87417051D01*
X134478415Y-87417048D01*
X134355501Y-87334919D01*
X134355488Y-87334912D01*
X134218917Y-87278343D01*
X134218907Y-87278340D01*
X134073920Y-87249500D01*
X134073918Y-87249500D01*
X133926082Y-87249500D01*
X133926080Y-87249500D01*
X133781092Y-87278340D01*
X133781082Y-87278343D01*
X133644511Y-87334912D01*
X133644498Y-87334919D01*
X133579124Y-87378602D01*
X133512447Y-87399480D01*
X133510233Y-87399500D01*
X103454068Y-87399500D01*
X103387029Y-87379815D01*
X103343583Y-87331795D01*
X103283343Y-87213567D01*
X103144517Y-87022490D01*
X102977510Y-86855483D01*
X102935302Y-86824817D01*
X102892638Y-86769487D01*
X102886659Y-86699874D01*
X102919265Y-86638079D01*
X102980104Y-86603722D01*
X103008189Y-86600500D01*
X131510233Y-86600500D01*
X131577272Y-86620185D01*
X131579124Y-86621398D01*
X131644498Y-86665080D01*
X131644511Y-86665087D01*
X131769013Y-86716657D01*
X131781087Y-86721658D01*
X131781091Y-86721658D01*
X131781092Y-86721659D01*
X131926079Y-86750500D01*
X131926082Y-86750500D01*
X132073920Y-86750500D01*
X132171462Y-86731096D01*
X132218913Y-86721658D01*
X132355495Y-86665084D01*
X132478416Y-86582951D01*
X132582951Y-86478416D01*
X132665084Y-86355495D01*
X132666794Y-86351368D01*
X132721656Y-86218917D01*
X132721658Y-86218913D01*
X132750500Y-86073918D01*
X132750500Y-85926082D01*
X132750500Y-85926079D01*
X132721659Y-85781092D01*
X132721658Y-85781091D01*
X132721658Y-85781087D01*
X132721656Y-85781082D01*
X132665087Y-85644511D01*
X132665080Y-85644498D01*
X132606209Y-85556391D01*
X132582951Y-85521584D01*
X132582948Y-85521580D01*
X132552017Y-85490649D01*
X137899500Y-85490649D01*
X137899500Y-86509335D01*
X137899501Y-86509352D01*
X137909860Y-86610760D01*
X137909861Y-86610763D01*
X137964309Y-86775076D01*
X137964314Y-86775087D01*
X138055183Y-86922407D01*
X138055186Y-86922411D01*
X138177588Y-87044813D01*
X138177592Y-87044816D01*
X138324912Y-87135685D01*
X138324915Y-87135686D01*
X138324921Y-87135690D01*
X138489239Y-87190139D01*
X138590657Y-87200500D01*
X139409342Y-87200499D01*
X139409350Y-87200498D01*
X139409353Y-87200498D01*
X139464885Y-87194825D01*
X139510761Y-87190139D01*
X139675079Y-87135690D01*
X139822411Y-87044814D01*
X139944814Y-86922411D01*
X140035690Y-86775079D01*
X140065374Y-86685496D01*
X140105146Y-86628051D01*
X140169662Y-86601228D01*
X140183080Y-86600500D01*
X140510233Y-86600500D01*
X140577272Y-86620185D01*
X140579124Y-86621398D01*
X140644498Y-86665080D01*
X140644511Y-86665087D01*
X140769013Y-86716657D01*
X140781087Y-86721658D01*
X140781091Y-86721658D01*
X140781092Y-86721659D01*
X140926079Y-86750500D01*
X140926082Y-86750500D01*
X141073920Y-86750500D01*
X141171462Y-86731096D01*
X141218913Y-86721658D01*
X141355495Y-86665084D01*
X141478416Y-86582951D01*
X141582951Y-86478416D01*
X141665084Y-86355495D01*
X141666794Y-86351368D01*
X141721656Y-86218917D01*
X141721658Y-86218913D01*
X141750500Y-86073918D01*
X141750500Y-85926082D01*
X141750500Y-85926079D01*
X141721659Y-85781092D01*
X141721658Y-85781091D01*
X141721658Y-85781087D01*
X141721656Y-85781082D01*
X141665087Y-85644511D01*
X141665080Y-85644498D01*
X141582951Y-85521584D01*
X141582948Y-85521580D01*
X141478419Y-85417051D01*
X141478415Y-85417048D01*
X141355501Y-85334919D01*
X141355488Y-85334912D01*
X141218917Y-85278343D01*
X141218907Y-85278340D01*
X141073920Y-85249500D01*
X141073918Y-85249500D01*
X140926082Y-85249500D01*
X140926080Y-85249500D01*
X140781092Y-85278340D01*
X140781082Y-85278343D01*
X140644511Y-85334912D01*
X140644498Y-85334919D01*
X140579124Y-85378602D01*
X140512447Y-85399480D01*
X140510233Y-85399500D01*
X140183080Y-85399500D01*
X140116041Y-85379815D01*
X140070286Y-85327011D01*
X140065374Y-85314503D01*
X140053391Y-85278340D01*
X140035690Y-85224921D01*
X140035686Y-85224915D01*
X140035685Y-85224912D01*
X139944816Y-85077592D01*
X139944813Y-85077588D01*
X139822411Y-84955186D01*
X139822407Y-84955183D01*
X139675087Y-84864314D01*
X139675081Y-84864311D01*
X139675079Y-84864310D01*
X139648441Y-84855483D01*
X139510762Y-84809861D01*
X139409344Y-84799500D01*
X138590664Y-84799500D01*
X138590646Y-84799501D01*
X138489239Y-84809860D01*
X138489236Y-84809861D01*
X138324923Y-84864309D01*
X138324912Y-84864314D01*
X138177592Y-84955183D01*
X138177588Y-84955186D01*
X138055186Y-85077588D01*
X138055183Y-85077592D01*
X137964314Y-85224912D01*
X137964309Y-85224923D01*
X137909861Y-85389237D01*
X137899500Y-85490649D01*
X132552017Y-85490649D01*
X132478419Y-85417051D01*
X132478415Y-85417048D01*
X132355501Y-85334919D01*
X132355488Y-85334912D01*
X132218917Y-85278343D01*
X132218907Y-85278340D01*
X132073920Y-85249500D01*
X132073918Y-85249500D01*
X131926082Y-85249500D01*
X131926080Y-85249500D01*
X131781092Y-85278340D01*
X131781082Y-85278343D01*
X131644511Y-85334912D01*
X131644498Y-85334919D01*
X131579124Y-85378602D01*
X131512447Y-85399480D01*
X131510233Y-85399500D01*
X99454068Y-85399500D01*
X99387029Y-85379815D01*
X99343583Y-85331795D01*
X99283343Y-85213567D01*
X99144517Y-85022490D01*
X98977510Y-84855483D01*
X98786433Y-84716657D01*
X98575996Y-84609433D01*
X98351368Y-84536446D01*
X98118097Y-84499500D01*
X98118092Y-84499500D01*
X97881908Y-84499500D01*
X97881903Y-84499500D01*
X97648631Y-84536446D01*
X97424003Y-84609433D01*
X97213566Y-84716657D01*
X97166986Y-84750500D01*
X97022490Y-84855483D01*
X97022488Y-84855485D01*
X97022487Y-84855485D01*
X96855485Y-85022487D01*
X96855485Y-85022488D01*
X96855483Y-85022490D01*
X96815452Y-85077588D01*
X96716657Y-85213566D01*
X96609433Y-85424003D01*
X96536446Y-85648631D01*
X96499500Y-85881902D01*
X2000000Y-85881902D01*
X2000000Y-82778711D01*
X10249500Y-82778711D01*
X10249500Y-83021288D01*
X10275516Y-83218907D01*
X10281162Y-83261789D01*
X10300757Y-83334919D01*
X10343947Y-83496104D01*
X10413941Y-83665084D01*
X10436776Y-83720212D01*
X10558064Y-83930289D01*
X10558066Y-83930292D01*
X10558067Y-83930293D01*
X10705733Y-84122736D01*
X10705739Y-84122743D01*
X10877256Y-84294260D01*
X10877263Y-84294266D01*
X10957059Y-84355495D01*
X11069711Y-84441936D01*
X11279788Y-84563224D01*
X11503900Y-84656054D01*
X11738211Y-84718838D01*
X11918586Y-84742584D01*
X11978711Y-84750500D01*
X11978712Y-84750500D01*
X12221289Y-84750500D01*
X12269388Y-84744167D01*
X12461789Y-84718838D01*
X12696100Y-84656054D01*
X12920212Y-84563224D01*
X13130289Y-84441936D01*
X13322738Y-84294265D01*
X13494265Y-84122738D01*
X13641936Y-83930289D01*
X13763224Y-83720212D01*
X13856054Y-83496100D01*
X13918838Y-83261789D01*
X13950500Y-83021288D01*
X13950500Y-82778712D01*
X13950500Y-82778711D01*
X79049500Y-82778711D01*
X79049500Y-83021288D01*
X79075516Y-83218907D01*
X79081162Y-83261789D01*
X79100757Y-83334919D01*
X79143947Y-83496104D01*
X79213941Y-83665084D01*
X79236776Y-83720212D01*
X79358064Y-83930289D01*
X79358066Y-83930292D01*
X79358067Y-83930293D01*
X79505733Y-84122736D01*
X79505739Y-84122743D01*
X79677256Y-84294260D01*
X79677263Y-84294266D01*
X79757059Y-84355495D01*
X79869711Y-84441936D01*
X80079788Y-84563224D01*
X80303900Y-84656054D01*
X80538211Y-84718838D01*
X80718586Y-84742584D01*
X80778711Y-84750500D01*
X80778712Y-84750500D01*
X81021289Y-84750500D01*
X81069388Y-84744167D01*
X81261789Y-84718838D01*
X81496100Y-84656054D01*
X81720212Y-84563224D01*
X81930289Y-84441936D01*
X82122738Y-84294265D01*
X82294265Y-84122738D01*
X82441936Y-83930289D01*
X82563224Y-83720212D01*
X82656054Y-83496100D01*
X82718838Y-83261789D01*
X82750500Y-83021288D01*
X82750500Y-82778712D01*
X82718838Y-82538211D01*
X82656054Y-82303900D01*
X82563224Y-82079788D01*
X82441936Y-81869711D01*
X82294265Y-81677262D01*
X82294260Y-81677256D01*
X82122743Y-81505739D01*
X82122736Y-81505733D01*
X81930293Y-81358067D01*
X81930292Y-81358066D01*
X81930289Y-81358064D01*
X81720212Y-81236776D01*
X81720205Y-81236773D01*
X81496104Y-81143947D01*
X81261785Y-81081161D01*
X81021289Y-81049500D01*
X81021288Y-81049500D01*
X80778712Y-81049500D01*
X80778711Y-81049500D01*
X80538214Y-81081161D01*
X80303895Y-81143947D01*
X80079794Y-81236773D01*
X80079785Y-81236777D01*
X79869706Y-81358067D01*
X79677263Y-81505733D01*
X79677256Y-81505739D01*
X79505739Y-81677256D01*
X79505733Y-81677263D01*
X79358067Y-81869706D01*
X79236777Y-82079785D01*
X79236773Y-82079794D01*
X79143947Y-82303895D01*
X79081161Y-82538214D01*
X79049500Y-82778711D01*
X13950500Y-82778711D01*
X13918838Y-82538211D01*
X13856054Y-82303900D01*
X13763224Y-82079788D01*
X13641936Y-81869711D01*
X13494265Y-81677262D01*
X13494260Y-81677256D01*
X13322743Y-81505739D01*
X13322736Y-81505733D01*
X13130293Y-81358067D01*
X13130292Y-81358066D01*
X13130289Y-81358064D01*
X12920212Y-81236776D01*
X12920205Y-81236773D01*
X12696104Y-81143947D01*
X12461785Y-81081161D01*
X12221289Y-81049500D01*
X12221288Y-81049500D01*
X11978712Y-81049500D01*
X11978711Y-81049500D01*
X11738214Y-81081161D01*
X11503895Y-81143947D01*
X11279794Y-81236773D01*
X11279785Y-81236777D01*
X11069706Y-81358067D01*
X10877263Y-81505733D01*
X10877256Y-81505739D01*
X10705739Y-81677256D01*
X10705733Y-81677263D01*
X10558067Y-81869706D01*
X10436777Y-82079785D01*
X10436773Y-82079794D01*
X10343947Y-82303895D01*
X10281161Y-82538214D01*
X10249500Y-82778711D01*
X2000000Y-82778711D01*
X2000000Y-77823920D01*
X23249499Y-77823920D01*
X23278340Y-77968907D01*
X23278343Y-77968917D01*
X23334912Y-78105488D01*
X23334919Y-78105501D01*
X23417048Y-78228415D01*
X23417051Y-78228419D01*
X23521580Y-78332948D01*
X23521584Y-78332951D01*
X23644498Y-78415080D01*
X23644511Y-78415087D01*
X23781082Y-78471656D01*
X23781087Y-78471658D01*
X23781091Y-78471658D01*
X23781092Y-78471659D01*
X23926079Y-78500500D01*
X23926082Y-78500500D01*
X24073920Y-78500500D01*
X24171462Y-78481096D01*
X24218913Y-78471658D01*
X24355495Y-78415084D01*
X24420876Y-78371398D01*
X24487553Y-78350520D01*
X24489767Y-78350500D01*
X90588030Y-78350500D01*
X90655069Y-78370185D01*
X90700824Y-78422989D01*
X90710768Y-78492147D01*
X90681743Y-78555703D01*
X90649509Y-78581440D01*
X90649570Y-78581531D01*
X90648507Y-78582241D01*
X90646481Y-78583859D01*
X90644506Y-78584914D01*
X90521584Y-78667048D01*
X90521580Y-78667051D01*
X90417051Y-78771580D01*
X90417048Y-78771584D01*
X90334919Y-78894498D01*
X90334912Y-78894511D01*
X90278343Y-79031082D01*
X90278340Y-79031092D01*
X90249500Y-79176079D01*
X90249500Y-79176082D01*
X90249500Y-79323918D01*
X90249500Y-79323920D01*
X90249499Y-79323920D01*
X90278340Y-79468907D01*
X90278343Y-79468917D01*
X90334912Y-79605488D01*
X90334919Y-79605501D01*
X90417048Y-79728415D01*
X90417051Y-79728419D01*
X90521580Y-79832948D01*
X90521584Y-79832951D01*
X90644498Y-79915080D01*
X90644511Y-79915087D01*
X90781082Y-79971656D01*
X90781087Y-79971658D01*
X90781091Y-79971658D01*
X90781092Y-79971659D01*
X90926079Y-80000500D01*
X90926082Y-80000500D01*
X91073920Y-80000500D01*
X91171462Y-79981096D01*
X91218913Y-79971658D01*
X91355495Y-79915084D01*
X91420876Y-79871398D01*
X91487553Y-79850520D01*
X91489767Y-79850500D01*
X121120300Y-79850500D01*
X121163632Y-79858317D01*
X121192517Y-79869091D01*
X121252127Y-79875500D01*
X122000500Y-79875499D01*
X122067539Y-79895183D01*
X122113294Y-79947987D01*
X122124500Y-79999499D01*
X122124500Y-80747870D01*
X122124501Y-80747876D01*
X122130908Y-80807481D01*
X122141682Y-80836366D01*
X122149500Y-80879700D01*
X122149500Y-81510232D01*
X122129815Y-81577271D01*
X122128603Y-81579122D01*
X122084914Y-81644508D01*
X122028343Y-81781082D01*
X122028340Y-81781092D01*
X121999500Y-81926079D01*
X121999500Y-81926082D01*
X121999500Y-82073918D01*
X121999500Y-82073920D01*
X121999499Y-82073920D01*
X122028340Y-82218907D01*
X122028343Y-82218917D01*
X122084912Y-82355488D01*
X122084919Y-82355501D01*
X122167048Y-82478415D01*
X122167051Y-82478419D01*
X122271580Y-82582948D01*
X122271584Y-82582951D01*
X122394498Y-82665080D01*
X122394505Y-82665084D01*
X122445454Y-82686187D01*
X122499856Y-82730027D01*
X122521922Y-82796320D01*
X122519618Y-82824939D01*
X122499500Y-82926077D01*
X122499500Y-82926082D01*
X122499500Y-83073918D01*
X122499500Y-83073920D01*
X122499499Y-83073920D01*
X122528340Y-83218907D01*
X122528343Y-83218917D01*
X122584912Y-83355488D01*
X122584919Y-83355501D01*
X122667048Y-83478415D01*
X122667051Y-83478419D01*
X122771580Y-83582948D01*
X122771584Y-83582951D01*
X122894498Y-83665080D01*
X122894505Y-83665084D01*
X122945454Y-83686187D01*
X122999856Y-83730027D01*
X123021922Y-83796320D01*
X123019618Y-83824939D01*
X122999500Y-83926077D01*
X122999500Y-83926082D01*
X122999500Y-84073918D01*
X122999500Y-84073920D01*
X122999499Y-84073920D01*
X123028340Y-84218907D01*
X123028343Y-84218917D01*
X123084912Y-84355488D01*
X123084919Y-84355501D01*
X123167048Y-84478415D01*
X123167051Y-84478419D01*
X123271580Y-84582948D01*
X123271584Y-84582951D01*
X123394498Y-84665080D01*
X123394511Y-84665087D01*
X123519013Y-84716657D01*
X123531087Y-84721658D01*
X123531091Y-84721658D01*
X123531092Y-84721659D01*
X123676079Y-84750500D01*
X123676082Y-84750500D01*
X123823920Y-84750500D01*
X123921462Y-84731096D01*
X123968913Y-84721658D01*
X124105495Y-84665084D01*
X124228416Y-84582951D01*
X124332951Y-84478416D01*
X124415084Y-84355495D01*
X124471658Y-84218913D01*
X124500500Y-84073920D01*
X129249499Y-84073920D01*
X129278340Y-84218907D01*
X129278343Y-84218917D01*
X129334912Y-84355488D01*
X129334919Y-84355501D01*
X129417048Y-84478415D01*
X129417051Y-84478419D01*
X129521580Y-84582948D01*
X129521584Y-84582951D01*
X129644498Y-84665080D01*
X129644511Y-84665087D01*
X129769013Y-84716657D01*
X129781087Y-84721658D01*
X129781091Y-84721658D01*
X129781092Y-84721659D01*
X129926079Y-84750500D01*
X129926082Y-84750500D01*
X130073920Y-84750500D01*
X130171462Y-84731096D01*
X130218913Y-84721658D01*
X130355495Y-84665084D01*
X130420876Y-84621398D01*
X130487553Y-84600520D01*
X130489767Y-84600500D01*
X134510233Y-84600500D01*
X134577272Y-84620185D01*
X134579124Y-84621398D01*
X134644498Y-84665080D01*
X134644511Y-84665087D01*
X134769013Y-84716657D01*
X134781087Y-84721658D01*
X134781091Y-84721658D01*
X134781092Y-84721659D01*
X134926079Y-84750500D01*
X134926082Y-84750500D01*
X135073920Y-84750500D01*
X135171462Y-84731096D01*
X135218913Y-84721658D01*
X135355495Y-84665084D01*
X135478416Y-84582951D01*
X135582951Y-84478416D01*
X135665084Y-84355495D01*
X135721658Y-84218913D01*
X135750500Y-84073918D01*
X135750500Y-83926082D01*
X135750500Y-83926079D01*
X135721659Y-83781092D01*
X135721658Y-83781091D01*
X135721658Y-83781087D01*
X135721656Y-83781082D01*
X135665087Y-83644511D01*
X135665080Y-83644498D01*
X135582951Y-83521584D01*
X135582948Y-83521580D01*
X135478419Y-83417051D01*
X135478415Y-83417048D01*
X135355501Y-83334919D01*
X135355488Y-83334912D01*
X135218917Y-83278343D01*
X135218907Y-83278340D01*
X135073920Y-83249500D01*
X135073918Y-83249500D01*
X134926082Y-83249500D01*
X134926080Y-83249500D01*
X134781092Y-83278340D01*
X134781082Y-83278343D01*
X134644511Y-83334912D01*
X134644498Y-83334919D01*
X134579124Y-83378602D01*
X134512447Y-83399480D01*
X134510233Y-83399500D01*
X130489767Y-83399500D01*
X130422728Y-83379815D01*
X130420876Y-83378602D01*
X130355501Y-83334919D01*
X130355488Y-83334912D01*
X130218917Y-83278343D01*
X130218907Y-83278340D01*
X130073920Y-83249500D01*
X130073918Y-83249500D01*
X129926082Y-83249500D01*
X129926080Y-83249500D01*
X129781092Y-83278340D01*
X129781082Y-83278343D01*
X129644511Y-83334912D01*
X129644498Y-83334919D01*
X129521584Y-83417048D01*
X129521580Y-83417051D01*
X129417051Y-83521580D01*
X129417048Y-83521584D01*
X129334919Y-83644498D01*
X129334912Y-83644511D01*
X129278343Y-83781082D01*
X129278340Y-83781092D01*
X129249500Y-83926079D01*
X129249500Y-83926082D01*
X129249500Y-84073918D01*
X129249500Y-84073920D01*
X129249499Y-84073920D01*
X124500500Y-84073920D01*
X124500500Y-84073918D01*
X124500500Y-83926082D01*
X124500500Y-83926079D01*
X124471659Y-83781092D01*
X124471658Y-83781091D01*
X124471658Y-83781087D01*
X124415084Y-83644505D01*
X124371396Y-83579121D01*
X124350520Y-83512444D01*
X124350500Y-83510232D01*
X124350500Y-80879700D01*
X124358318Y-80836366D01*
X124369091Y-80807483D01*
X124375500Y-80747873D01*
X124375499Y-79974498D01*
X124395183Y-79907460D01*
X124447987Y-79861705D01*
X124499499Y-79850499D01*
X125397871Y-79850499D01*
X125397872Y-79850499D01*
X125457483Y-79844091D01*
X125592331Y-79793796D01*
X125707546Y-79707546D01*
X125793796Y-79592331D01*
X125844091Y-79457483D01*
X125850500Y-79397873D01*
X125850499Y-78999498D01*
X125870183Y-78932460D01*
X125922987Y-78886705D01*
X125974499Y-78875499D01*
X126747871Y-78875499D01*
X126747872Y-78875499D01*
X126807483Y-78869091D01*
X126836367Y-78858317D01*
X126879700Y-78850500D01*
X136510233Y-78850500D01*
X136577272Y-78870185D01*
X136579124Y-78871398D01*
X136644498Y-78915080D01*
X136644511Y-78915087D01*
X136686454Y-78932460D01*
X136781087Y-78971658D01*
X136781091Y-78971658D01*
X136781092Y-78971659D01*
X136926079Y-79000500D01*
X136926082Y-79000500D01*
X137073920Y-79000500D01*
X137171462Y-78981096D01*
X137218913Y-78971658D01*
X137355495Y-78915084D01*
X137478416Y-78832951D01*
X137582951Y-78728416D01*
X137665084Y-78605495D01*
X137721658Y-78468913D01*
X137725359Y-78450309D01*
X137757743Y-78388398D01*
X137818459Y-78353824D01*
X137846976Y-78350500D01*
X138510233Y-78350500D01*
X138577272Y-78370185D01*
X138579124Y-78371398D01*
X138644498Y-78415080D01*
X138644511Y-78415087D01*
X138781082Y-78471656D01*
X138781087Y-78471658D01*
X138781091Y-78471658D01*
X138781092Y-78471659D01*
X138926079Y-78500500D01*
X138926082Y-78500500D01*
X139073920Y-78500500D01*
X139171462Y-78481096D01*
X139218913Y-78471658D01*
X139355495Y-78415084D01*
X139478416Y-78332951D01*
X139582951Y-78228416D01*
X139665084Y-78105495D01*
X139721658Y-77968913D01*
X139725359Y-77950309D01*
X139757743Y-77888398D01*
X139818459Y-77853824D01*
X139846976Y-77850500D01*
X140510233Y-77850500D01*
X140577272Y-77870185D01*
X140579124Y-77871398D01*
X140644498Y-77915080D01*
X140644511Y-77915087D01*
X140781082Y-77971656D01*
X140781087Y-77971658D01*
X140781091Y-77971658D01*
X140781092Y-77971659D01*
X140926079Y-78000500D01*
X140926082Y-78000500D01*
X141073920Y-78000500D01*
X141171462Y-77981096D01*
X141218913Y-77971658D01*
X141355495Y-77915084D01*
X141478416Y-77832951D01*
X141582951Y-77728416D01*
X141665084Y-77605495D01*
X141721658Y-77468913D01*
X141736459Y-77394505D01*
X141750500Y-77323920D01*
X141750500Y-77176079D01*
X141721659Y-77031092D01*
X141721658Y-77031091D01*
X141721658Y-77031087D01*
X141708574Y-76999500D01*
X141665087Y-76894511D01*
X141665080Y-76894498D01*
X141582951Y-76771584D01*
X141582948Y-76771580D01*
X141478419Y-76667051D01*
X141478415Y-76667048D01*
X141355501Y-76584919D01*
X141355488Y-76584912D01*
X141218917Y-76528343D01*
X141218907Y-76528340D01*
X141073920Y-76499500D01*
X141073918Y-76499500D01*
X140926082Y-76499500D01*
X140926080Y-76499500D01*
X140781092Y-76528340D01*
X140781082Y-76528343D01*
X140644511Y-76584912D01*
X140644498Y-76584919D01*
X140579124Y-76628602D01*
X140512447Y-76649480D01*
X140510233Y-76649500D01*
X126879700Y-76649500D01*
X126836367Y-76641682D01*
X126820095Y-76635613D01*
X126807481Y-76630908D01*
X126747883Y-76624501D01*
X126747881Y-76624500D01*
X126747873Y-76624500D01*
X126747865Y-76624500D01*
X125977534Y-76624500D01*
X125910495Y-76604815D01*
X125864740Y-76552011D01*
X125854043Y-76511727D01*
X125851928Y-76488463D01*
X125859237Y-76433902D01*
X125869090Y-76407485D01*
X125869091Y-76407483D01*
X125875500Y-76347873D01*
X125875499Y-75252128D01*
X125869091Y-75192517D01*
X125858317Y-75163632D01*
X125850500Y-75120300D01*
X125850500Y-73573920D01*
X126249499Y-73573920D01*
X126278340Y-73718907D01*
X126278343Y-73718917D01*
X126334912Y-73855488D01*
X126334919Y-73855501D01*
X126385439Y-73931109D01*
X126406317Y-73997787D01*
X126387832Y-74065167D01*
X126385439Y-74068891D01*
X126334919Y-74144498D01*
X126334912Y-74144511D01*
X126278343Y-74281082D01*
X126278340Y-74281092D01*
X126249500Y-74426079D01*
X126249500Y-74426082D01*
X126249500Y-74573918D01*
X126249500Y-74573920D01*
X126249499Y-74573920D01*
X126278340Y-74718907D01*
X126278343Y-74718917D01*
X126334912Y-74855488D01*
X126334919Y-74855501D01*
X126417048Y-74978415D01*
X126417051Y-74978419D01*
X126521580Y-75082948D01*
X126521584Y-75082951D01*
X126644498Y-75165080D01*
X126644511Y-75165087D01*
X126710734Y-75192517D01*
X126781087Y-75221658D01*
X126781091Y-75221658D01*
X126781092Y-75221659D01*
X126926079Y-75250500D01*
X126926082Y-75250500D01*
X127073920Y-75250500D01*
X127171462Y-75231096D01*
X127218913Y-75221658D01*
X127355495Y-75165084D01*
X127357667Y-75163633D01*
X127420876Y-75121398D01*
X127487553Y-75100520D01*
X127489767Y-75100500D01*
X128510233Y-75100500D01*
X128577272Y-75120185D01*
X128579124Y-75121398D01*
X128644498Y-75165080D01*
X128644511Y-75165087D01*
X128710734Y-75192517D01*
X128781087Y-75221658D01*
X128781091Y-75221658D01*
X128781092Y-75221659D01*
X128926079Y-75250500D01*
X128926082Y-75250500D01*
X129073920Y-75250500D01*
X129171462Y-75231096D01*
X129218913Y-75221658D01*
X129355495Y-75165084D01*
X129478416Y-75082951D01*
X129582951Y-74978416D01*
X129665084Y-74855495D01*
X129721658Y-74718913D01*
X129750500Y-74573918D01*
X129750500Y-74426082D01*
X129750500Y-74426079D01*
X129721659Y-74281092D01*
X129721658Y-74281091D01*
X129721658Y-74281087D01*
X129721656Y-74281082D01*
X129665087Y-74144511D01*
X129665083Y-74144504D01*
X129665079Y-74144498D01*
X129614559Y-74068888D01*
X129593682Y-74002214D01*
X129612166Y-73934834D01*
X129614531Y-73931151D01*
X129665084Y-73855495D01*
X129721658Y-73718913D01*
X129750500Y-73573918D01*
X129750500Y-73426082D01*
X129750500Y-73426079D01*
X129721659Y-73281092D01*
X129721658Y-73281091D01*
X129721658Y-73281087D01*
X129721656Y-73281082D01*
X129665087Y-73144511D01*
X129665080Y-73144498D01*
X129582951Y-73021584D01*
X129582948Y-73021580D01*
X129478419Y-72917051D01*
X129478415Y-72917048D01*
X129355501Y-72834919D01*
X129355488Y-72834912D01*
X129218917Y-72778343D01*
X129218907Y-72778340D01*
X129073920Y-72749500D01*
X129073918Y-72749500D01*
X128926082Y-72749500D01*
X128926080Y-72749500D01*
X128781092Y-72778340D01*
X128781082Y-72778343D01*
X128644511Y-72834912D01*
X128644498Y-72834919D01*
X128579124Y-72878602D01*
X128512447Y-72899480D01*
X128510233Y-72899500D01*
X127489767Y-72899500D01*
X127422728Y-72879815D01*
X127420876Y-72878602D01*
X127355501Y-72834919D01*
X127355488Y-72834912D01*
X127218917Y-72778343D01*
X127218907Y-72778340D01*
X127073920Y-72749500D01*
X127073918Y-72749500D01*
X126926082Y-72749500D01*
X126926080Y-72749500D01*
X126781092Y-72778340D01*
X126781082Y-72778343D01*
X126644511Y-72834912D01*
X126644498Y-72834919D01*
X126521584Y-72917048D01*
X126521580Y-72917051D01*
X126417051Y-73021580D01*
X126417048Y-73021584D01*
X126334919Y-73144498D01*
X126334912Y-73144511D01*
X126278343Y-73281082D01*
X126278340Y-73281092D01*
X126249500Y-73426079D01*
X126249500Y-73426082D01*
X126249500Y-73573918D01*
X126249500Y-73573920D01*
X126249499Y-73573920D01*
X125850500Y-73573920D01*
X125850500Y-70489767D01*
X125870185Y-70422728D01*
X125871398Y-70420876D01*
X125915080Y-70355501D01*
X125915080Y-70355500D01*
X125915084Y-70355495D01*
X125971658Y-70218913D01*
X125986459Y-70144505D01*
X126000500Y-70073920D01*
X126000500Y-69926079D01*
X125971659Y-69781092D01*
X125971658Y-69781091D01*
X125971658Y-69781087D01*
X125946684Y-69720794D01*
X125915087Y-69644511D01*
X125915080Y-69644498D01*
X125832951Y-69521584D01*
X125832948Y-69521580D01*
X125728419Y-69417051D01*
X125728415Y-69417048D01*
X125605501Y-69334919D01*
X125605488Y-69334912D01*
X125468915Y-69278342D01*
X125468912Y-69278341D01*
X125450305Y-69274640D01*
X125388395Y-69242253D01*
X125353823Y-69181536D01*
X125350500Y-69153023D01*
X125350500Y-68920945D01*
X125350500Y-68920943D01*
X125309577Y-68768216D01*
X125230520Y-68631284D01*
X125118716Y-68519480D01*
X125118714Y-68519479D01*
X125118709Y-68519475D01*
X124981790Y-68440426D01*
X124981786Y-68440424D01*
X124981784Y-68440423D01*
X124829057Y-68399500D01*
X124829056Y-68399500D01*
X117724500Y-68399500D01*
X117657461Y-68379815D01*
X117611706Y-68327011D01*
X117600500Y-68275500D01*
X117600500Y-68249463D01*
X117620185Y-68182424D01*
X117669077Y-68139718D01*
X117668932Y-68139482D01*
X117670350Y-68138606D01*
X117672100Y-68137079D01*
X117675074Y-68135691D01*
X117675079Y-68135690D01*
X117775223Y-68073920D01*
X125249499Y-68073920D01*
X125278340Y-68218907D01*
X125278343Y-68218917D01*
X125334912Y-68355488D01*
X125334919Y-68355501D01*
X125397928Y-68449800D01*
X125417049Y-68478416D01*
X125437571Y-68498938D01*
X125437576Y-68498944D01*
X125521580Y-68582948D01*
X125521584Y-68582951D01*
X125644498Y-68665080D01*
X125644511Y-68665087D01*
X125776961Y-68719949D01*
X125781087Y-68721658D01*
X125781091Y-68721658D01*
X125781092Y-68721659D01*
X125926079Y-68750500D01*
X125926082Y-68750500D01*
X126073920Y-68750500D01*
X126171462Y-68731096D01*
X126218913Y-68721658D01*
X126355495Y-68665084D01*
X126420876Y-68621398D01*
X126487553Y-68600520D01*
X126489767Y-68600500D01*
X133510233Y-68600500D01*
X133577272Y-68620185D01*
X133579124Y-68621398D01*
X133644498Y-68665080D01*
X133644511Y-68665087D01*
X133776961Y-68719949D01*
X133781087Y-68721658D01*
X133781091Y-68721658D01*
X133781092Y-68721659D01*
X133926079Y-68750500D01*
X133926082Y-68750500D01*
X134073920Y-68750500D01*
X134171462Y-68731096D01*
X134218913Y-68721658D01*
X134355495Y-68665084D01*
X134478416Y-68582951D01*
X134582951Y-68478416D01*
X134665084Y-68355495D01*
X134721658Y-68218913D01*
X134736459Y-68144505D01*
X134750500Y-68073920D01*
X134750500Y-67926079D01*
X134721659Y-67781092D01*
X134721658Y-67781091D01*
X134721658Y-67781087D01*
X134719173Y-67775087D01*
X134665087Y-67644511D01*
X134665080Y-67644498D01*
X134582951Y-67521584D01*
X134582948Y-67521580D01*
X134478419Y-67417051D01*
X134478415Y-67417048D01*
X134355501Y-67334919D01*
X134355488Y-67334912D01*
X134218917Y-67278343D01*
X134218907Y-67278340D01*
X134073920Y-67249500D01*
X134073918Y-67249500D01*
X133926082Y-67249500D01*
X133926080Y-67249500D01*
X133781092Y-67278340D01*
X133781082Y-67278343D01*
X133644511Y-67334912D01*
X133644498Y-67334919D01*
X133579124Y-67378602D01*
X133512447Y-67399480D01*
X133510233Y-67399500D01*
X126489767Y-67399500D01*
X126422728Y-67379815D01*
X126420876Y-67378602D01*
X126355501Y-67334919D01*
X126355488Y-67334912D01*
X126218917Y-67278343D01*
X126218907Y-67278340D01*
X126073920Y-67249500D01*
X126073918Y-67249500D01*
X125926082Y-67249500D01*
X125926080Y-67249500D01*
X125781092Y-67278340D01*
X125781082Y-67278343D01*
X125644511Y-67334912D01*
X125644498Y-67334919D01*
X125521584Y-67417048D01*
X125521580Y-67417051D01*
X125417051Y-67521580D01*
X125417048Y-67521584D01*
X125334919Y-67644498D01*
X125334912Y-67644511D01*
X125278343Y-67781082D01*
X125278340Y-67781092D01*
X125249500Y-67926079D01*
X125249500Y-67926082D01*
X125249500Y-68073918D01*
X125249500Y-68073920D01*
X125249499Y-68073920D01*
X117775223Y-68073920D01*
X117822411Y-68044814D01*
X117944814Y-67922411D01*
X118035690Y-67775079D01*
X118090139Y-67610761D01*
X118100500Y-67509343D01*
X118100499Y-66724499D01*
X118120183Y-66657461D01*
X118172987Y-66611706D01*
X118224499Y-66600500D01*
X119510233Y-66600500D01*
X119577272Y-66620185D01*
X119579124Y-66621398D01*
X119644498Y-66665080D01*
X119644511Y-66665087D01*
X119781082Y-66721656D01*
X119781087Y-66721658D01*
X119781091Y-66721658D01*
X119781092Y-66721659D01*
X119926079Y-66750500D01*
X119926082Y-66750500D01*
X120073920Y-66750500D01*
X120171462Y-66731096D01*
X120218913Y-66721658D01*
X120355495Y-66665084D01*
X120478416Y-66582951D01*
X120582951Y-66478416D01*
X120665084Y-66355495D01*
X120721658Y-66218913D01*
X120750500Y-66073918D01*
X120750500Y-65926082D01*
X120750500Y-65926079D01*
X120721659Y-65781092D01*
X120721658Y-65781091D01*
X120721658Y-65781087D01*
X120721656Y-65781082D01*
X120665087Y-65644511D01*
X120665080Y-65644498D01*
X120582951Y-65521584D01*
X120582948Y-65521580D01*
X120478419Y-65417051D01*
X120478415Y-65417048D01*
X120355501Y-65334919D01*
X120355488Y-65334912D01*
X120218917Y-65278343D01*
X120218907Y-65278340D01*
X120073920Y-65249500D01*
X120073918Y-65249500D01*
X119926082Y-65249500D01*
X119926080Y-65249500D01*
X119781092Y-65278340D01*
X119781082Y-65278343D01*
X119644511Y-65334912D01*
X119644498Y-65334919D01*
X119579124Y-65378602D01*
X119512447Y-65399480D01*
X119510233Y-65399500D01*
X100724500Y-65399500D01*
X100657461Y-65379815D01*
X100611706Y-65327011D01*
X100600500Y-65275500D01*
X100600500Y-65066300D01*
X100620185Y-64999261D01*
X100668204Y-64955815D01*
X100838845Y-64868870D01*
X101042656Y-64720793D01*
X101220793Y-64542656D01*
X101368870Y-64338845D01*
X101483241Y-64114379D01*
X101561090Y-63874785D01*
X101600500Y-63625962D01*
X101600500Y-63374038D01*
X108399500Y-63374038D01*
X108399500Y-63625961D01*
X108438910Y-63874785D01*
X108516760Y-64114383D01*
X108631132Y-64338848D01*
X108779201Y-64542649D01*
X108779205Y-64542654D01*
X108957345Y-64720794D01*
X108957350Y-64720798D01*
X109135117Y-64849952D01*
X109161155Y-64868870D01*
X109304184Y-64941747D01*
X109385616Y-64983239D01*
X109385618Y-64983239D01*
X109385621Y-64983241D01*
X109625215Y-65061090D01*
X109874038Y-65100500D01*
X109874039Y-65100500D01*
X110125961Y-65100500D01*
X110125962Y-65100500D01*
X110374785Y-65061090D01*
X110614379Y-64983241D01*
X110838845Y-64868870D01*
X111042656Y-64720793D01*
X111220793Y-64542656D01*
X111368870Y-64338845D01*
X111483241Y-64114379D01*
X111561090Y-63874785D01*
X111600500Y-63625962D01*
X111600500Y-63374038D01*
X111561090Y-63125215D01*
X111483241Y-62885621D01*
X111483239Y-62885618D01*
X111483239Y-62885616D01*
X111441747Y-62804184D01*
X111368870Y-62661155D01*
X111349952Y-62635117D01*
X111220798Y-62457350D01*
X111220794Y-62457345D01*
X111042654Y-62279205D01*
X111042649Y-62279201D01*
X110838848Y-62131132D01*
X110838847Y-62131131D01*
X110838845Y-62131130D01*
X110769186Y-62095637D01*
X110668205Y-62044184D01*
X110617409Y-61996209D01*
X110600500Y-61933699D01*
X110600500Y-61724500D01*
X110620185Y-61657461D01*
X110672989Y-61611706D01*
X110724500Y-61600500D01*
X121510233Y-61600500D01*
X121577272Y-61620185D01*
X121579124Y-61621398D01*
X121644498Y-61665080D01*
X121644511Y-61665087D01*
X121781082Y-61721656D01*
X121781087Y-61721658D01*
X121781091Y-61721658D01*
X121781092Y-61721659D01*
X121926079Y-61750500D01*
X121926082Y-61750500D01*
X122073920Y-61750500D01*
X122171462Y-61731096D01*
X122218913Y-61721658D01*
X122355495Y-61665084D01*
X122478416Y-61582951D01*
X122582951Y-61478416D01*
X122665084Y-61355495D01*
X122721658Y-61218913D01*
X122750500Y-61073918D01*
X122750500Y-60926082D01*
X122750500Y-60926079D01*
X122721659Y-60781092D01*
X122721658Y-60781091D01*
X122721658Y-60781087D01*
X122716324Y-60768209D01*
X122665087Y-60644511D01*
X122665080Y-60644498D01*
X122582951Y-60521584D01*
X122582948Y-60521580D01*
X122478419Y-60417051D01*
X122478415Y-60417048D01*
X122355501Y-60334919D01*
X122355488Y-60334912D01*
X122218917Y-60278343D01*
X122218907Y-60278340D01*
X122073920Y-60249500D01*
X122073918Y-60249500D01*
X121926082Y-60249500D01*
X121926080Y-60249500D01*
X121781092Y-60278340D01*
X121781082Y-60278343D01*
X121644511Y-60334912D01*
X121644498Y-60334919D01*
X121579124Y-60378602D01*
X121512447Y-60399480D01*
X121510233Y-60399500D01*
X109920943Y-60399500D01*
X109768216Y-60440423D01*
X109768209Y-60440426D01*
X109631290Y-60519475D01*
X109631282Y-60519481D01*
X109519481Y-60631282D01*
X109519475Y-60631290D01*
X109440426Y-60768209D01*
X109440423Y-60768216D01*
X109399500Y-60920943D01*
X109399500Y-61933699D01*
X109379815Y-62000738D01*
X109331795Y-62044184D01*
X109161151Y-62131132D01*
X108957350Y-62279201D01*
X108957345Y-62279205D01*
X108779205Y-62457345D01*
X108779201Y-62457350D01*
X108631132Y-62661151D01*
X108516760Y-62885616D01*
X108438910Y-63125214D01*
X108399500Y-63374038D01*
X101600500Y-63374038D01*
X101561090Y-63125215D01*
X101483241Y-62885621D01*
X101483239Y-62885618D01*
X101483239Y-62885616D01*
X101441747Y-62804184D01*
X101368870Y-62661155D01*
X101349952Y-62635117D01*
X101220798Y-62457350D01*
X101220794Y-62457345D01*
X101042654Y-62279205D01*
X101042649Y-62279201D01*
X100838848Y-62131132D01*
X100838847Y-62131131D01*
X100838845Y-62131130D01*
X100768747Y-62095413D01*
X100614383Y-62016760D01*
X100374785Y-61938910D01*
X100341884Y-61933699D01*
X100125962Y-61899500D01*
X99874038Y-61899500D01*
X99749626Y-61919205D01*
X99625214Y-61938910D01*
X99385616Y-62016760D01*
X99161151Y-62131132D01*
X98957350Y-62279201D01*
X98957345Y-62279205D01*
X98779205Y-62457345D01*
X98779201Y-62457350D01*
X98631132Y-62661151D01*
X98516760Y-62885616D01*
X98438910Y-63125214D01*
X98399500Y-63374038D01*
X98399500Y-63625961D01*
X98438910Y-63874785D01*
X98516760Y-64114383D01*
X98631132Y-64338848D01*
X98779201Y-64542649D01*
X98779205Y-64542654D01*
X98957345Y-64720794D01*
X98957350Y-64720798D01*
X99135117Y-64849952D01*
X99161155Y-64868870D01*
X99331795Y-64955815D01*
X99382591Y-65003789D01*
X99399500Y-65066300D01*
X99399500Y-65920943D01*
X99399500Y-66079057D01*
X99436976Y-66218917D01*
X99440423Y-66231783D01*
X99440426Y-66231790D01*
X99519475Y-66368709D01*
X99519479Y-66368714D01*
X99519480Y-66368716D01*
X99631284Y-66480520D01*
X99631286Y-66480521D01*
X99631290Y-66480524D01*
X99768209Y-66559573D01*
X99768216Y-66559577D01*
X99920943Y-66600500D01*
X115775500Y-66600500D01*
X115842539Y-66620185D01*
X115888294Y-66672989D01*
X115899500Y-66724500D01*
X115899500Y-67509335D01*
X115899501Y-67509353D01*
X115909860Y-67610760D01*
X115911279Y-67617386D01*
X115910084Y-67617641D01*
X115912241Y-67680552D01*
X115876503Y-67740590D01*
X115816330Y-67771331D01*
X115781091Y-67778340D01*
X115781082Y-67778343D01*
X115644511Y-67834912D01*
X115644498Y-67834919D01*
X115579124Y-67878602D01*
X115512447Y-67899480D01*
X115510233Y-67899500D01*
X111566300Y-67899500D01*
X111499261Y-67879815D01*
X111455815Y-67831795D01*
X111368870Y-67661155D01*
X111337070Y-67617386D01*
X111220798Y-67457350D01*
X111220794Y-67457345D01*
X111042654Y-67279205D01*
X111042649Y-67279201D01*
X110838848Y-67131132D01*
X110838847Y-67131131D01*
X110838845Y-67131130D01*
X110768747Y-67095413D01*
X110614383Y-67016760D01*
X110374785Y-66938910D01*
X110125962Y-66899500D01*
X109874038Y-66899500D01*
X109749626Y-66919205D01*
X109625214Y-66938910D01*
X109385616Y-67016760D01*
X109161151Y-67131132D01*
X108957350Y-67279201D01*
X108957345Y-67279205D01*
X108779205Y-67457345D01*
X108779201Y-67457350D01*
X108631132Y-67661151D01*
X108516760Y-67885616D01*
X108438910Y-68125214D01*
X108424069Y-68218917D01*
X108399500Y-68374038D01*
X108399500Y-68625962D01*
X108414221Y-68718907D01*
X108438910Y-68874785D01*
X108516760Y-69114383D01*
X108576580Y-69231784D01*
X108629128Y-69334916D01*
X108631132Y-69338848D01*
X108779201Y-69542649D01*
X108779205Y-69542654D01*
X108957345Y-69720794D01*
X108957350Y-69720798D01*
X109103541Y-69827011D01*
X109161155Y-69868870D01*
X109273440Y-69926082D01*
X109385616Y-69983239D01*
X109385618Y-69983239D01*
X109385621Y-69983241D01*
X109625215Y-70061090D01*
X109874038Y-70100500D01*
X109874039Y-70100500D01*
X110125961Y-70100500D01*
X110125962Y-70100500D01*
X110374785Y-70061090D01*
X110614379Y-69983241D01*
X110838845Y-69868870D01*
X111042656Y-69720793D01*
X111220793Y-69542656D01*
X111368870Y-69338845D01*
X111455815Y-69168204D01*
X111503789Y-69117409D01*
X111566300Y-69100500D01*
X115510233Y-69100500D01*
X115577272Y-69120185D01*
X115579124Y-69121398D01*
X115644498Y-69165080D01*
X115644511Y-69165087D01*
X115689479Y-69183713D01*
X115781087Y-69221658D01*
X115781091Y-69221658D01*
X115781092Y-69221659D01*
X115926079Y-69250500D01*
X115926082Y-69250500D01*
X116073920Y-69250500D01*
X116202157Y-69224991D01*
X116218913Y-69221658D01*
X116292489Y-69191181D01*
X116361956Y-69183713D01*
X116424435Y-69214988D01*
X116447327Y-69243743D01*
X116519477Y-69368712D01*
X116519479Y-69368715D01*
X116519480Y-69368716D01*
X116631284Y-69480520D01*
X116631286Y-69480521D01*
X116631290Y-69480524D01*
X116766796Y-69558757D01*
X116768216Y-69559577D01*
X116920943Y-69600500D01*
X117079057Y-69600500D01*
X124025500Y-69600500D01*
X124092539Y-69620185D01*
X124138294Y-69672989D01*
X124149500Y-69724500D01*
X124149500Y-72667564D01*
X124129815Y-72734603D01*
X124077011Y-72780358D01*
X124007853Y-72790302D01*
X123978051Y-72782127D01*
X123973780Y-72780358D01*
X123968913Y-72778342D01*
X123968911Y-72778341D01*
X123968907Y-72778340D01*
X123823920Y-72749500D01*
X123823918Y-72749500D01*
X123676082Y-72749500D01*
X123676080Y-72749500D01*
X123531092Y-72778340D01*
X123531082Y-72778343D01*
X123394511Y-72834912D01*
X123394498Y-72834919D01*
X123271584Y-72917048D01*
X123271580Y-72917051D01*
X123167051Y-73021580D01*
X123167048Y-73021584D01*
X123084919Y-73144498D01*
X123084912Y-73144511D01*
X123028343Y-73281082D01*
X123028340Y-73281092D01*
X122999500Y-73426079D01*
X122999500Y-73426082D01*
X122999500Y-73573918D01*
X122999500Y-73573920D01*
X122999499Y-73573920D01*
X123019618Y-73675058D01*
X123013391Y-73744650D01*
X122970528Y-73799827D01*
X122945456Y-73813810D01*
X122894510Y-73834913D01*
X122894498Y-73834919D01*
X122771584Y-73917048D01*
X122771580Y-73917051D01*
X122667051Y-74021580D01*
X122667048Y-74021584D01*
X122584919Y-74144498D01*
X122584912Y-74144511D01*
X122528343Y-74281082D01*
X122528340Y-74281092D01*
X122499500Y-74426079D01*
X122499500Y-74426082D01*
X122499500Y-74573918D01*
X122499500Y-74573920D01*
X122499499Y-74573920D01*
X122523116Y-74692644D01*
X122516889Y-74762236D01*
X122474026Y-74817413D01*
X122444832Y-74833018D01*
X122382671Y-74856202D01*
X122382664Y-74856206D01*
X122267455Y-74942452D01*
X122267452Y-74942455D01*
X122181206Y-75057664D01*
X122181202Y-75057671D01*
X122130908Y-75192517D01*
X122124675Y-75250500D01*
X122124501Y-75252123D01*
X122124500Y-75252135D01*
X122124500Y-76347870D01*
X122124501Y-76347876D01*
X122130909Y-76407485D01*
X122149439Y-76457168D01*
X122154423Y-76526860D01*
X122120937Y-76588183D01*
X122059613Y-76621667D01*
X122033257Y-76624500D01*
X121252129Y-76624500D01*
X121252123Y-76624501D01*
X121192518Y-76630908D01*
X121173547Y-76637984D01*
X121163632Y-76641682D01*
X121120300Y-76649500D01*
X94489767Y-76649500D01*
X94422728Y-76629815D01*
X94420876Y-76628602D01*
X94355501Y-76584919D01*
X94355488Y-76584912D01*
X94218917Y-76528343D01*
X94218907Y-76528340D01*
X94073920Y-76499500D01*
X94073918Y-76499500D01*
X93926082Y-76499500D01*
X93926080Y-76499500D01*
X93781092Y-76528340D01*
X93781082Y-76528343D01*
X93644511Y-76584912D01*
X93644498Y-76584919D01*
X93521584Y-76667048D01*
X93521580Y-76667051D01*
X93417051Y-76771580D01*
X93417048Y-76771584D01*
X93334919Y-76894498D01*
X93334912Y-76894511D01*
X93278343Y-77031082D01*
X93278340Y-77031094D01*
X93274641Y-77049691D01*
X93242257Y-77111602D01*
X93181541Y-77146176D01*
X93153024Y-77149500D01*
X24489767Y-77149500D01*
X24422728Y-77129815D01*
X24420876Y-77128602D01*
X24355501Y-77084919D01*
X24355488Y-77084912D01*
X24218917Y-77028343D01*
X24218907Y-77028340D01*
X24073920Y-76999500D01*
X24073918Y-76999500D01*
X23926082Y-76999500D01*
X23926080Y-76999500D01*
X23781092Y-77028340D01*
X23781082Y-77028343D01*
X23644511Y-77084912D01*
X23644498Y-77084919D01*
X23521584Y-77167048D01*
X23521580Y-77167051D01*
X23417051Y-77271580D01*
X23417048Y-77271584D01*
X23334919Y-77394498D01*
X23334912Y-77394511D01*
X23278343Y-77531082D01*
X23278340Y-77531092D01*
X23249500Y-77676079D01*
X23249500Y-77676082D01*
X23249500Y-77823918D01*
X23249500Y-77823920D01*
X23249499Y-77823920D01*
X2000000Y-77823920D01*
X2000000Y-69224983D01*
X63649500Y-69224983D01*
X63649500Y-70775001D01*
X63649501Y-70775018D01*
X63660000Y-70877796D01*
X63660001Y-70877799D01*
X63705894Y-71016294D01*
X63715186Y-71044334D01*
X63807288Y-71193656D01*
X63931344Y-71317712D01*
X64080666Y-71409814D01*
X64247203Y-71464999D01*
X64349991Y-71475500D01*
X65650008Y-71475499D01*
X65752797Y-71464999D01*
X65919334Y-71409814D01*
X66068656Y-71317712D01*
X66192712Y-71193656D01*
X66284814Y-71044334D01*
X66284814Y-71044331D01*
X66288178Y-71038879D01*
X66340126Y-70992154D01*
X66409088Y-70980931D01*
X66473170Y-71008774D01*
X66481398Y-71016294D01*
X66620213Y-71155109D01*
X66792179Y-71280048D01*
X66792181Y-71280049D01*
X66792184Y-71280051D01*
X66981588Y-71376557D01*
X67183757Y-71442246D01*
X67393713Y-71475500D01*
X67393714Y-71475500D01*
X67606286Y-71475500D01*
X67606287Y-71475500D01*
X67816243Y-71442246D01*
X68018412Y-71376557D01*
X68207816Y-71280051D01*
X68248490Y-71250500D01*
X68379786Y-71155109D01*
X68379788Y-71155106D01*
X68379792Y-71155104D01*
X68530104Y-71004792D01*
X68649683Y-70840204D01*
X68705011Y-70797540D01*
X68774624Y-70791561D01*
X68836420Y-70824166D01*
X68850313Y-70840199D01*
X68952560Y-70980931D01*
X68969896Y-71004792D01*
X69120213Y-71155109D01*
X69292179Y-71280048D01*
X69292181Y-71280049D01*
X69292184Y-71280051D01*
X69481588Y-71376557D01*
X69683757Y-71442246D01*
X69893713Y-71475500D01*
X69893714Y-71475500D01*
X70106286Y-71475500D01*
X70106287Y-71475500D01*
X70316243Y-71442246D01*
X70518412Y-71376557D01*
X70707816Y-71280051D01*
X70748490Y-71250500D01*
X70879786Y-71155109D01*
X70879788Y-71155106D01*
X70879792Y-71155104D01*
X71030104Y-71004792D01*
X71149683Y-70840204D01*
X71205011Y-70797540D01*
X71274624Y-70791561D01*
X71336420Y-70824166D01*
X71350313Y-70840199D01*
X71452560Y-70980931D01*
X71469896Y-71004792D01*
X71620213Y-71155109D01*
X71792179Y-71280048D01*
X71792181Y-71280049D01*
X71792184Y-71280051D01*
X71981588Y-71376557D01*
X72183757Y-71442246D01*
X72393713Y-71475500D01*
X72393714Y-71475500D01*
X72606286Y-71475500D01*
X72606287Y-71475500D01*
X72816243Y-71442246D01*
X73018412Y-71376557D01*
X73207816Y-71280051D01*
X73248490Y-71250500D01*
X73379786Y-71155109D01*
X73379788Y-71155106D01*
X73379792Y-71155104D01*
X73530104Y-71004792D01*
X73649683Y-70840204D01*
X73705011Y-70797540D01*
X73774624Y-70791561D01*
X73836420Y-70824166D01*
X73850313Y-70840199D01*
X73952560Y-70980931D01*
X73969896Y-71004792D01*
X74120213Y-71155109D01*
X74292179Y-71280048D01*
X74292181Y-71280049D01*
X74292184Y-71280051D01*
X74481588Y-71376557D01*
X74683757Y-71442246D01*
X74893713Y-71475500D01*
X74893714Y-71475500D01*
X75106286Y-71475500D01*
X75106287Y-71475500D01*
X75316243Y-71442246D01*
X75518412Y-71376557D01*
X75707816Y-71280051D01*
X75748490Y-71250500D01*
X75879786Y-71155109D01*
X75879788Y-71155106D01*
X75879792Y-71155104D01*
X76030104Y-71004792D01*
X76030106Y-71004788D01*
X76030109Y-71004786D01*
X76155048Y-70832820D01*
X76155047Y-70832820D01*
X76155051Y-70832816D01*
X76251557Y-70643412D01*
X76317246Y-70441243D01*
X76350500Y-70231287D01*
X76350500Y-69768713D01*
X76317246Y-69558757D01*
X76251557Y-69356588D01*
X76155051Y-69167184D01*
X76155049Y-69167181D01*
X76155048Y-69167179D01*
X76030109Y-68995213D01*
X75879786Y-68844890D01*
X75707820Y-68719951D01*
X75518414Y-68623444D01*
X75518413Y-68623443D01*
X75518412Y-68623443D01*
X75365997Y-68573920D01*
X92249499Y-68573920D01*
X92278340Y-68718907D01*
X92278343Y-68718917D01*
X92334912Y-68855488D01*
X92334919Y-68855501D01*
X92417048Y-68978415D01*
X92417051Y-68978419D01*
X92521580Y-69082948D01*
X92521584Y-69082951D01*
X92644498Y-69165080D01*
X92644511Y-69165087D01*
X92689479Y-69183713D01*
X92781087Y-69221658D01*
X92781091Y-69221658D01*
X92781092Y-69221659D01*
X92926079Y-69250500D01*
X92926082Y-69250500D01*
X93073920Y-69250500D01*
X93202157Y-69224991D01*
X93218913Y-69221658D01*
X93355495Y-69165084D01*
X93420876Y-69121398D01*
X93487553Y-69100520D01*
X93489767Y-69100500D01*
X98433700Y-69100500D01*
X98500739Y-69120185D01*
X98544184Y-69168204D01*
X98629128Y-69334916D01*
X98631132Y-69338848D01*
X98779201Y-69542649D01*
X98779205Y-69542654D01*
X98957345Y-69720794D01*
X98957350Y-69720798D01*
X99103541Y-69827011D01*
X99161155Y-69868870D01*
X99273440Y-69926082D01*
X99385616Y-69983239D01*
X99385618Y-69983239D01*
X99385621Y-69983241D01*
X99625215Y-70061090D01*
X99874038Y-70100500D01*
X99874039Y-70100500D01*
X100125961Y-70100500D01*
X100125962Y-70100500D01*
X100374785Y-70061090D01*
X100614379Y-69983241D01*
X100838845Y-69868870D01*
X101042656Y-69720793D01*
X101220793Y-69542656D01*
X101368870Y-69338845D01*
X101483241Y-69114379D01*
X101561090Y-68874785D01*
X101600500Y-68625962D01*
X101600500Y-68374038D01*
X101561090Y-68125215D01*
X101483241Y-67885621D01*
X101483239Y-67885618D01*
X101483239Y-67885616D01*
X101428580Y-67778342D01*
X101368870Y-67661155D01*
X101337070Y-67617386D01*
X101220798Y-67457350D01*
X101220794Y-67457345D01*
X101115584Y-67352135D01*
X103399500Y-67352135D01*
X103399500Y-69647870D01*
X103399501Y-69647876D01*
X103405908Y-69707483D01*
X103456202Y-69842328D01*
X103456206Y-69842335D01*
X103542452Y-69957544D01*
X103542455Y-69957547D01*
X103657664Y-70043793D01*
X103657671Y-70043797D01*
X103702618Y-70060561D01*
X103792517Y-70094091D01*
X103852127Y-70100500D01*
X104275500Y-70100499D01*
X104342539Y-70120183D01*
X104388294Y-70172987D01*
X104399500Y-70224499D01*
X104399500Y-70579057D01*
X104436976Y-70718917D01*
X104440423Y-70731783D01*
X104440426Y-70731790D01*
X104519475Y-70868709D01*
X104519479Y-70868714D01*
X104519480Y-70868716D01*
X104631284Y-70980520D01*
X104631286Y-70980521D01*
X104631290Y-70980524D01*
X104768209Y-71059573D01*
X104768216Y-71059577D01*
X104920943Y-71100500D01*
X105079057Y-71100500D01*
X107510233Y-71100500D01*
X107577272Y-71120185D01*
X107579124Y-71121398D01*
X107644498Y-71165080D01*
X107644511Y-71165087D01*
X107713486Y-71193657D01*
X107781087Y-71221658D01*
X107781091Y-71221658D01*
X107781092Y-71221659D01*
X107926079Y-71250500D01*
X107926082Y-71250500D01*
X108073920Y-71250500D01*
X108171462Y-71231096D01*
X108218913Y-71221658D01*
X108355495Y-71165084D01*
X108478416Y-71082951D01*
X108582951Y-70978416D01*
X108665084Y-70855495D01*
X108721658Y-70718913D01*
X108736676Y-70643414D01*
X108750500Y-70573920D01*
X108750500Y-70426079D01*
X108721659Y-70281092D01*
X108721658Y-70281091D01*
X108721658Y-70281087D01*
X108698219Y-70224499D01*
X108665087Y-70144511D01*
X108665080Y-70144498D01*
X108582951Y-70021584D01*
X108582948Y-70021580D01*
X108478419Y-69917051D01*
X108478415Y-69917048D01*
X108355501Y-69834919D01*
X108355488Y-69834912D01*
X108218917Y-69778343D01*
X108218907Y-69778340D01*
X108073920Y-69749500D01*
X108073918Y-69749500D01*
X107926082Y-69749500D01*
X107926080Y-69749500D01*
X107781092Y-69778340D01*
X107781082Y-69778343D01*
X107644511Y-69834912D01*
X107644498Y-69834919D01*
X107579124Y-69878602D01*
X107512447Y-69899480D01*
X107510233Y-69899500D01*
X106701067Y-69899500D01*
X106634028Y-69879815D01*
X106588273Y-69827011D01*
X106578329Y-69757853D01*
X106584885Y-69732168D01*
X106594090Y-69707485D01*
X106594091Y-69707483D01*
X106600500Y-69647873D01*
X106600499Y-67352128D01*
X106594091Y-67292517D01*
X106589124Y-67279201D01*
X106543797Y-67157671D01*
X106543793Y-67157664D01*
X106457547Y-67042455D01*
X106457544Y-67042452D01*
X106342335Y-66956206D01*
X106342328Y-66956202D01*
X106207482Y-66905908D01*
X106207483Y-66905908D01*
X106147883Y-66899501D01*
X106147881Y-66899500D01*
X106147873Y-66899500D01*
X106147864Y-66899500D01*
X103852129Y-66899500D01*
X103852123Y-66899501D01*
X103792516Y-66905908D01*
X103657671Y-66956202D01*
X103657664Y-66956206D01*
X103542455Y-67042452D01*
X103542452Y-67042455D01*
X103456206Y-67157664D01*
X103456202Y-67157671D01*
X103405908Y-67292517D01*
X103401350Y-67334916D01*
X103399501Y-67352123D01*
X103399500Y-67352135D01*
X101115584Y-67352135D01*
X101042654Y-67279205D01*
X101042649Y-67279201D01*
X100838848Y-67131132D01*
X100838847Y-67131131D01*
X100838845Y-67131130D01*
X100768747Y-67095413D01*
X100614383Y-67016760D01*
X100374785Y-66938910D01*
X100125962Y-66899500D01*
X99874038Y-66899500D01*
X99749626Y-66919205D01*
X99625214Y-66938910D01*
X99385616Y-67016760D01*
X99161151Y-67131132D01*
X98957350Y-67279201D01*
X98957345Y-67279205D01*
X98779205Y-67457345D01*
X98779201Y-67457350D01*
X98631132Y-67661151D01*
X98631130Y-67661155D01*
X98571421Y-67778342D01*
X98544185Y-67831795D01*
X98496211Y-67882591D01*
X98433700Y-67899500D01*
X93489767Y-67899500D01*
X93422728Y-67879815D01*
X93420876Y-67878602D01*
X93355501Y-67834919D01*
X93355488Y-67834912D01*
X93218917Y-67778343D01*
X93218907Y-67778340D01*
X93073920Y-67749500D01*
X93073918Y-67749500D01*
X92926082Y-67749500D01*
X92926080Y-67749500D01*
X92781092Y-67778340D01*
X92781082Y-67778343D01*
X92644511Y-67834912D01*
X92644498Y-67834919D01*
X92521584Y-67917048D01*
X92521580Y-67917051D01*
X92417051Y-68021580D01*
X92417048Y-68021584D01*
X92334919Y-68144498D01*
X92334912Y-68144511D01*
X92278343Y-68281082D01*
X92278340Y-68281092D01*
X92249500Y-68426079D01*
X92249500Y-68426082D01*
X92249500Y-68573918D01*
X92249500Y-68573920D01*
X92249499Y-68573920D01*
X75365997Y-68573920D01*
X75316243Y-68557754D01*
X75316241Y-68557753D01*
X75316240Y-68557753D01*
X75219700Y-68542463D01*
X75172587Y-68535001D01*
X75106287Y-68524500D01*
X74893713Y-68524500D01*
X74845042Y-68532208D01*
X74683760Y-68557753D01*
X74481585Y-68623444D01*
X74292179Y-68719951D01*
X74120213Y-68844890D01*
X73969894Y-68995209D01*
X73969890Y-68995214D01*
X73850318Y-69159793D01*
X73794989Y-69202459D01*
X73725375Y-69208438D01*
X73663580Y-69175833D01*
X73649682Y-69159793D01*
X73530109Y-68995214D01*
X73530105Y-68995209D01*
X73379786Y-68844890D01*
X73207820Y-68719951D01*
X73018414Y-68623444D01*
X73018413Y-68623443D01*
X73018412Y-68623443D01*
X72816243Y-68557754D01*
X72816241Y-68557753D01*
X72816240Y-68557753D01*
X72654957Y-68532208D01*
X72606287Y-68524500D01*
X72393713Y-68524500D01*
X72345042Y-68532208D01*
X72183760Y-68557753D01*
X71981585Y-68623444D01*
X71792179Y-68719951D01*
X71620213Y-68844890D01*
X71469894Y-68995209D01*
X71469890Y-68995214D01*
X71350318Y-69159793D01*
X71294989Y-69202459D01*
X71225375Y-69208438D01*
X71163580Y-69175833D01*
X71149682Y-69159793D01*
X71030109Y-68995214D01*
X71030105Y-68995209D01*
X70879786Y-68844890D01*
X70707820Y-68719951D01*
X70518414Y-68623444D01*
X70518413Y-68623443D01*
X70518412Y-68623443D01*
X70316243Y-68557754D01*
X70316241Y-68557753D01*
X70316240Y-68557753D01*
X70154957Y-68532208D01*
X70106287Y-68524500D01*
X69893713Y-68524500D01*
X69845042Y-68532208D01*
X69683760Y-68557753D01*
X69481585Y-68623444D01*
X69292179Y-68719951D01*
X69120213Y-68844890D01*
X68969894Y-68995209D01*
X68969890Y-68995214D01*
X68850318Y-69159793D01*
X68794989Y-69202459D01*
X68725375Y-69208438D01*
X68663580Y-69175833D01*
X68649682Y-69159793D01*
X68530109Y-68995214D01*
X68530105Y-68995209D01*
X68379786Y-68844890D01*
X68207820Y-68719951D01*
X68018414Y-68623444D01*
X68018413Y-68623443D01*
X68018412Y-68623443D01*
X67816243Y-68557754D01*
X67816241Y-68557753D01*
X67816240Y-68557753D01*
X67654957Y-68532208D01*
X67606287Y-68524500D01*
X67393713Y-68524500D01*
X67345042Y-68532208D01*
X67183760Y-68557753D01*
X66981585Y-68623444D01*
X66792179Y-68719951D01*
X66620215Y-68844889D01*
X66481398Y-68983706D01*
X66420075Y-69017190D01*
X66350383Y-69012206D01*
X66294450Y-68970334D01*
X66288178Y-68961120D01*
X66192712Y-68806344D01*
X66068657Y-68682289D01*
X66068656Y-68682288D01*
X65919334Y-68590186D01*
X65752797Y-68535001D01*
X65752795Y-68535000D01*
X65650010Y-68524500D01*
X64349998Y-68524500D01*
X64349981Y-68524501D01*
X64247203Y-68535000D01*
X64247200Y-68535001D01*
X64080668Y-68590185D01*
X64080663Y-68590187D01*
X63931342Y-68682289D01*
X63807289Y-68806342D01*
X63715187Y-68955663D01*
X63715185Y-68955668D01*
X63707647Y-68978416D01*
X63660001Y-69122203D01*
X63660001Y-69122204D01*
X63660000Y-69122204D01*
X63649500Y-69224983D01*
X2000000Y-69224983D01*
X2000000Y-58573920D01*
X90249499Y-58573920D01*
X90278340Y-58718907D01*
X90278343Y-58718917D01*
X90334912Y-58855488D01*
X90334919Y-58855501D01*
X90417048Y-58978415D01*
X90417051Y-58978419D01*
X90521580Y-59082948D01*
X90521584Y-59082951D01*
X90644498Y-59165080D01*
X90644511Y-59165087D01*
X90781082Y-59221656D01*
X90781087Y-59221658D01*
X90781091Y-59221658D01*
X90781092Y-59221659D01*
X90926079Y-59250500D01*
X90926082Y-59250500D01*
X91073920Y-59250500D01*
X91171462Y-59231096D01*
X91218913Y-59221658D01*
X91355495Y-59165084D01*
X91420876Y-59121398D01*
X91487553Y-59100520D01*
X91489767Y-59100500D01*
X103433700Y-59100500D01*
X103500739Y-59120185D01*
X103544184Y-59168204D01*
X103571420Y-59221658D01*
X103631132Y-59338848D01*
X103779201Y-59542649D01*
X103779205Y-59542654D01*
X103957345Y-59720794D01*
X103957350Y-59720798D01*
X104135117Y-59849952D01*
X104161155Y-59868870D01*
X104304184Y-59941747D01*
X104385616Y-59983239D01*
X104385618Y-59983239D01*
X104385621Y-59983241D01*
X104625215Y-60061090D01*
X104874038Y-60100500D01*
X104874039Y-60100500D01*
X105125961Y-60100500D01*
X105125962Y-60100500D01*
X105374785Y-60061090D01*
X105614379Y-59983241D01*
X105838845Y-59868870D01*
X106042656Y-59720793D01*
X106220793Y-59542656D01*
X106368870Y-59338845D01*
X106483241Y-59114379D01*
X106561090Y-58874785D01*
X106600500Y-58625962D01*
X106600500Y-58374038D01*
X106561090Y-58125215D01*
X106483241Y-57885621D01*
X106483239Y-57885618D01*
X106483239Y-57885616D01*
X106428580Y-57778342D01*
X106368870Y-57661155D01*
X106349952Y-57635117D01*
X106220798Y-57457350D01*
X106220794Y-57457345D01*
X106042654Y-57279205D01*
X106042649Y-57279201D01*
X105838848Y-57131132D01*
X105838847Y-57131131D01*
X105838845Y-57131130D01*
X105768747Y-57095413D01*
X105614383Y-57016760D01*
X105374785Y-56938910D01*
X105125962Y-56899500D01*
X104874038Y-56899500D01*
X104749626Y-56919205D01*
X104625214Y-56938910D01*
X104385616Y-57016760D01*
X104161151Y-57131132D01*
X103957350Y-57279201D01*
X103957345Y-57279205D01*
X103779205Y-57457345D01*
X103779201Y-57457350D01*
X103631132Y-57661151D01*
X103631130Y-57661155D01*
X103571421Y-57778342D01*
X103544185Y-57831795D01*
X103496211Y-57882591D01*
X103433700Y-57899500D01*
X91489767Y-57899500D01*
X91422728Y-57879815D01*
X91420876Y-57878602D01*
X91355501Y-57834919D01*
X91355488Y-57834912D01*
X91218917Y-57778343D01*
X91218907Y-57778340D01*
X91073920Y-57749500D01*
X91073918Y-57749500D01*
X90926082Y-57749500D01*
X90926080Y-57749500D01*
X90781092Y-57778340D01*
X90781082Y-57778343D01*
X90644511Y-57834912D01*
X90644498Y-57834919D01*
X90521584Y-57917048D01*
X90521580Y-57917051D01*
X90417051Y-58021580D01*
X90417048Y-58021584D01*
X90334919Y-58144498D01*
X90334912Y-58144511D01*
X90278343Y-58281082D01*
X90278340Y-58281092D01*
X90249500Y-58426079D01*
X90249500Y-58426082D01*
X90249500Y-58573918D01*
X90249500Y-58573920D01*
X90249499Y-58573920D01*
X2000000Y-58573920D01*
X2000000Y-43978711D01*
X10249500Y-43978711D01*
X10249500Y-44221288D01*
X10281161Y-44461785D01*
X10343947Y-44696104D01*
X10436773Y-44920205D01*
X10436776Y-44920212D01*
X10558064Y-45130289D01*
X10558066Y-45130292D01*
X10558067Y-45130293D01*
X10705733Y-45322736D01*
X10705739Y-45322743D01*
X10877256Y-45494260D01*
X10877262Y-45494265D01*
X11069711Y-45641936D01*
X11279788Y-45763224D01*
X11503900Y-45856054D01*
X11738211Y-45918838D01*
X11918586Y-45942584D01*
X11978711Y-45950500D01*
X11978712Y-45950500D01*
X12221289Y-45950500D01*
X12269388Y-45944167D01*
X12461789Y-45918838D01*
X12696100Y-45856054D01*
X12920212Y-45763224D01*
X13130289Y-45641936D01*
X13322738Y-45494265D01*
X13494265Y-45322738D01*
X13641936Y-45130289D01*
X13763224Y-44920212D01*
X13856054Y-44696100D01*
X13918838Y-44461789D01*
X13950500Y-44221288D01*
X13950500Y-43978712D01*
X13918838Y-43738211D01*
X13856054Y-43503900D01*
X13763224Y-43279788D01*
X13641936Y-43069711D01*
X13494265Y-42877262D01*
X13494260Y-42877256D01*
X13322743Y-42705739D01*
X13322736Y-42705733D01*
X13130293Y-42558067D01*
X13130292Y-42558066D01*
X13130289Y-42558064D01*
X12920212Y-42436776D01*
X12920205Y-42436773D01*
X12696104Y-42343947D01*
X12461785Y-42281161D01*
X12221289Y-42249500D01*
X12221288Y-42249500D01*
X11978712Y-42249500D01*
X11978711Y-42249500D01*
X11738214Y-42281161D01*
X11503895Y-42343947D01*
X11279794Y-42436773D01*
X11279785Y-42436777D01*
X11069706Y-42558067D01*
X10877263Y-42705733D01*
X10877256Y-42705739D01*
X10705739Y-42877256D01*
X10705733Y-42877263D01*
X10558067Y-43069706D01*
X10436777Y-43279785D01*
X10436773Y-43279794D01*
X10343947Y-43503895D01*
X10281161Y-43738214D01*
X10249500Y-43978711D01*
X2000000Y-43978711D01*
X2000000Y-42073920D01*
X71249499Y-42073920D01*
X71278340Y-42218907D01*
X71278343Y-42218917D01*
X71334912Y-42355488D01*
X71334919Y-42355501D01*
X71417048Y-42478415D01*
X71417051Y-42478419D01*
X71521580Y-42582948D01*
X71521584Y-42582951D01*
X71644498Y-42665080D01*
X71644511Y-42665087D01*
X71742645Y-42705735D01*
X71781087Y-42721658D01*
X71781091Y-42721658D01*
X71781092Y-42721659D01*
X71926079Y-42750500D01*
X71926082Y-42750500D01*
X72073920Y-42750500D01*
X72171462Y-42731096D01*
X72218913Y-42721658D01*
X72355495Y-42665084D01*
X72420876Y-42621398D01*
X72487553Y-42600520D01*
X72489767Y-42600500D01*
X79483134Y-42600500D01*
X79550173Y-42620185D01*
X79595928Y-42672989D01*
X79605872Y-42742147D01*
X79576847Y-42805703D01*
X79570815Y-42812181D01*
X79505739Y-42877256D01*
X79505733Y-42877263D01*
X79358067Y-43069706D01*
X79236777Y-43279785D01*
X79236773Y-43279794D01*
X79143947Y-43503895D01*
X79081161Y-43738214D01*
X79049500Y-43978711D01*
X79049500Y-44221288D01*
X79081161Y-44461785D01*
X79143947Y-44696104D01*
X79236773Y-44920205D01*
X79236776Y-44920212D01*
X79358064Y-45130289D01*
X79358066Y-45130292D01*
X79358067Y-45130293D01*
X79505733Y-45322736D01*
X79505739Y-45322743D01*
X79677256Y-45494260D01*
X79677262Y-45494265D01*
X79869711Y-45641936D01*
X80079788Y-45763224D01*
X80303900Y-45856054D01*
X80538211Y-45918838D01*
X80718586Y-45942584D01*
X80778711Y-45950500D01*
X80778712Y-45950500D01*
X81021289Y-45950500D01*
X81069388Y-45944167D01*
X81261789Y-45918838D01*
X81496100Y-45856054D01*
X81720212Y-45763224D01*
X81930289Y-45641936D01*
X82122738Y-45494265D01*
X82294265Y-45322738D01*
X82441936Y-45130289D01*
X82563224Y-44920212D01*
X82656054Y-44696100D01*
X82718838Y-44461789D01*
X82750500Y-44221288D01*
X82750500Y-43978712D01*
X82718838Y-43738211D01*
X82656054Y-43503900D01*
X82563224Y-43279788D01*
X82441936Y-43069711D01*
X82294265Y-42877262D01*
X82294260Y-42877256D01*
X82229185Y-42812181D01*
X82195700Y-42750858D01*
X82200684Y-42681166D01*
X82242556Y-42625233D01*
X82308020Y-42600816D01*
X82316866Y-42600500D01*
X140510233Y-42600500D01*
X140577272Y-42620185D01*
X140579124Y-42621398D01*
X140644498Y-42665080D01*
X140644511Y-42665087D01*
X140742645Y-42705735D01*
X140781087Y-42721658D01*
X140781091Y-42721658D01*
X140781092Y-42721659D01*
X140926079Y-42750500D01*
X140926082Y-42750500D01*
X141073920Y-42750500D01*
X141171462Y-42731096D01*
X141218913Y-42721658D01*
X141355495Y-42665084D01*
X141478416Y-42582951D01*
X141582951Y-42478416D01*
X141665084Y-42355495D01*
X141721658Y-42218913D01*
X141750500Y-42073918D01*
X141750500Y-41926082D01*
X141750500Y-41926079D01*
X141721659Y-41781092D01*
X141721658Y-41781091D01*
X141721658Y-41781087D01*
X141721656Y-41781082D01*
X141665087Y-41644511D01*
X141665080Y-41644498D01*
X141582951Y-41521584D01*
X141582948Y-41521580D01*
X141478419Y-41417051D01*
X141478415Y-41417048D01*
X141355501Y-41334919D01*
X141355488Y-41334912D01*
X141218917Y-41278343D01*
X141218907Y-41278340D01*
X141073920Y-41249500D01*
X141073918Y-41249500D01*
X140926082Y-41249500D01*
X140926080Y-41249500D01*
X140781092Y-41278340D01*
X140781082Y-41278343D01*
X140644511Y-41334912D01*
X140644498Y-41334919D01*
X140579124Y-41378602D01*
X140512447Y-41399480D01*
X140510233Y-41399500D01*
X72489767Y-41399500D01*
X72422728Y-41379815D01*
X72420876Y-41378602D01*
X72355501Y-41334919D01*
X72355488Y-41334912D01*
X72218917Y-41278343D01*
X72218907Y-41278340D01*
X72073920Y-41249500D01*
X72073918Y-41249500D01*
X71926082Y-41249500D01*
X71926080Y-41249500D01*
X71781092Y-41278340D01*
X71781082Y-41278343D01*
X71644511Y-41334912D01*
X71644498Y-41334919D01*
X71521584Y-41417048D01*
X71521580Y-41417051D01*
X71417051Y-41521580D01*
X71417048Y-41521584D01*
X71334919Y-41644498D01*
X71334912Y-41644511D01*
X71278343Y-41781082D01*
X71278340Y-41781092D01*
X71249500Y-41926079D01*
X71249500Y-41926082D01*
X71249500Y-42073918D01*
X71249500Y-42073920D01*
X71249499Y-42073920D01*
X2000000Y-42073920D01*
X2000000Y-40073920D01*
X67749499Y-40073920D01*
X67778340Y-40218907D01*
X67778343Y-40218917D01*
X67834912Y-40355488D01*
X67834919Y-40355501D01*
X67917048Y-40478415D01*
X67917051Y-40478419D01*
X68021580Y-40582948D01*
X68021584Y-40582951D01*
X68144498Y-40665080D01*
X68144511Y-40665087D01*
X68281082Y-40721656D01*
X68281087Y-40721658D01*
X68281091Y-40721658D01*
X68281092Y-40721659D01*
X68426079Y-40750500D01*
X68426082Y-40750500D01*
X68573920Y-40750500D01*
X68671462Y-40731096D01*
X68718913Y-40721658D01*
X68855495Y-40665084D01*
X68920876Y-40621398D01*
X68987553Y-40600520D01*
X68989767Y-40600500D01*
X138510233Y-40600500D01*
X138577272Y-40620185D01*
X138579124Y-40621398D01*
X138644498Y-40665080D01*
X138644511Y-40665087D01*
X138781082Y-40721656D01*
X138781087Y-40721658D01*
X138781091Y-40721658D01*
X138781092Y-40721659D01*
X138926079Y-40750500D01*
X138926082Y-40750500D01*
X139073920Y-40750500D01*
X139171462Y-40731096D01*
X139218913Y-40721658D01*
X139355495Y-40665084D01*
X139478416Y-40582951D01*
X139582951Y-40478416D01*
X139665084Y-40355495D01*
X139721658Y-40218913D01*
X139750500Y-40073918D01*
X139750500Y-39926082D01*
X139750500Y-39926079D01*
X139721659Y-39781092D01*
X139721658Y-39781091D01*
X139721658Y-39781087D01*
X139721656Y-39781082D01*
X139665087Y-39644511D01*
X139665080Y-39644498D01*
X139582951Y-39521584D01*
X139582948Y-39521580D01*
X139478419Y-39417051D01*
X139478415Y-39417048D01*
X139355501Y-39334919D01*
X139355488Y-39334912D01*
X139218917Y-39278343D01*
X139218907Y-39278340D01*
X139073920Y-39249500D01*
X139073918Y-39249500D01*
X138926082Y-39249500D01*
X138926080Y-39249500D01*
X138781092Y-39278340D01*
X138781082Y-39278343D01*
X138644511Y-39334912D01*
X138644498Y-39334919D01*
X138579124Y-39378602D01*
X138512447Y-39399480D01*
X138510233Y-39399500D01*
X68989767Y-39399500D01*
X68922728Y-39379815D01*
X68920876Y-39378602D01*
X68855501Y-39334919D01*
X68855488Y-39334912D01*
X68718917Y-39278343D01*
X68718907Y-39278340D01*
X68573920Y-39249500D01*
X68573918Y-39249500D01*
X68426082Y-39249500D01*
X68426080Y-39249500D01*
X68281092Y-39278340D01*
X68281082Y-39278343D01*
X68144511Y-39334912D01*
X68144498Y-39334919D01*
X68021584Y-39417048D01*
X68021580Y-39417051D01*
X67917051Y-39521580D01*
X67917048Y-39521584D01*
X67834919Y-39644498D01*
X67834912Y-39644511D01*
X67778343Y-39781082D01*
X67778340Y-39781092D01*
X67749500Y-39926079D01*
X67749500Y-39926082D01*
X67749500Y-40073918D01*
X67749500Y-40073920D01*
X67749499Y-40073920D01*
X2000000Y-40073920D01*
X2000000Y-34090649D01*
X63799500Y-34090649D01*
X63799500Y-34909335D01*
X63799501Y-34909353D01*
X63809860Y-35010760D01*
X63809861Y-35010763D01*
X63864309Y-35175076D01*
X63864314Y-35175087D01*
X63955183Y-35322407D01*
X63955184Y-35322408D01*
X63955186Y-35322411D01*
X64045094Y-35412319D01*
X64078578Y-35473643D01*
X64073594Y-35543334D01*
X64045094Y-35587681D01*
X63955183Y-35677592D01*
X63864314Y-35824912D01*
X63864309Y-35824923D01*
X63809861Y-35989237D01*
X63799500Y-36090649D01*
X63799500Y-36909335D01*
X63799501Y-36909353D01*
X63809860Y-37010760D01*
X63809861Y-37010763D01*
X63864309Y-37175076D01*
X63864314Y-37175087D01*
X63955183Y-37322407D01*
X63955186Y-37322411D01*
X64077588Y-37444813D01*
X64077592Y-37444816D01*
X64224912Y-37535685D01*
X64224914Y-37535686D01*
X64224921Y-37535690D01*
X64234679Y-37538923D01*
X64292123Y-37578692D01*
X64318948Y-37643207D01*
X64310238Y-37704081D01*
X64278343Y-37781082D01*
X64278340Y-37781092D01*
X64249500Y-37926079D01*
X64249500Y-37926082D01*
X64249500Y-38073918D01*
X64249500Y-38073920D01*
X64249499Y-38073920D01*
X64278340Y-38218907D01*
X64278343Y-38218917D01*
X64334912Y-38355488D01*
X64334919Y-38355501D01*
X64417048Y-38478415D01*
X64417051Y-38478419D01*
X64521580Y-38582948D01*
X64521584Y-38582951D01*
X64644498Y-38665080D01*
X64644511Y-38665087D01*
X64781082Y-38721656D01*
X64781087Y-38721658D01*
X64781091Y-38721658D01*
X64781092Y-38721659D01*
X64926079Y-38750500D01*
X64926082Y-38750500D01*
X65073920Y-38750500D01*
X65171462Y-38731096D01*
X65218913Y-38721658D01*
X65355495Y-38665084D01*
X65420876Y-38621398D01*
X65487553Y-38600520D01*
X65489767Y-38600500D01*
X136510233Y-38600500D01*
X136577272Y-38620185D01*
X136579124Y-38621398D01*
X136644498Y-38665080D01*
X136644511Y-38665087D01*
X136781082Y-38721656D01*
X136781087Y-38721658D01*
X136781091Y-38721658D01*
X136781092Y-38721659D01*
X136926079Y-38750500D01*
X136926082Y-38750500D01*
X137073920Y-38750500D01*
X137171462Y-38731096D01*
X137218913Y-38721658D01*
X137355495Y-38665084D01*
X137478416Y-38582951D01*
X137582951Y-38478416D01*
X137665084Y-38355495D01*
X137721658Y-38218913D01*
X137750500Y-38073918D01*
X137750500Y-37926082D01*
X137750500Y-37926079D01*
X137721659Y-37781092D01*
X137721658Y-37781091D01*
X137721658Y-37781087D01*
X137689761Y-37704081D01*
X137665087Y-37644511D01*
X137665080Y-37644498D01*
X137582951Y-37521584D01*
X137582948Y-37521580D01*
X137478419Y-37417051D01*
X137478415Y-37417048D01*
X137355501Y-37334919D01*
X137355488Y-37334912D01*
X137218917Y-37278343D01*
X137218907Y-37278340D01*
X137073920Y-37249500D01*
X137073918Y-37249500D01*
X136926082Y-37249500D01*
X136926080Y-37249500D01*
X136781092Y-37278340D01*
X136781082Y-37278343D01*
X136644511Y-37334912D01*
X136644498Y-37334919D01*
X136579124Y-37378602D01*
X136512447Y-37399480D01*
X136510233Y-37399500D01*
X73219440Y-37399500D01*
X73152401Y-37379815D01*
X73106646Y-37327011D01*
X73096702Y-37257853D01*
X73113902Y-37210402D01*
X73135685Y-37175087D01*
X73135690Y-37175079D01*
X73190139Y-37010761D01*
X73200500Y-36909343D01*
X73200499Y-36090658D01*
X73190139Y-35989239D01*
X73135690Y-35824921D01*
X73135686Y-35824915D01*
X73135685Y-35824912D01*
X73044816Y-35677592D01*
X73044813Y-35677588D01*
X72954906Y-35587681D01*
X72921421Y-35526358D01*
X72926405Y-35456666D01*
X72954906Y-35412319D01*
X73044814Y-35322411D01*
X73135690Y-35175079D01*
X73190139Y-35010761D01*
X73200500Y-34909343D01*
X73200499Y-34090658D01*
X73190139Y-33989239D01*
X73135690Y-33824921D01*
X73135686Y-33824915D01*
X73135685Y-33824912D01*
X73044816Y-33677592D01*
X73044813Y-33677588D01*
X72922411Y-33555186D01*
X72922407Y-33555183D01*
X72775087Y-33464314D01*
X72775081Y-33464311D01*
X72775079Y-33464310D01*
X72775076Y-33464309D01*
X72610762Y-33409861D01*
X72509350Y-33399500D01*
X72509343Y-33399500D01*
X72238163Y-33399500D01*
X72171124Y-33379815D01*
X72125369Y-33327011D01*
X72125327Y-33326921D01*
X71308872Y-31535329D01*
X71298984Y-31466162D01*
X71307145Y-31436461D01*
X71367051Y-31291835D01*
X71405500Y-31098541D01*
X71405500Y-30901459D01*
X71405500Y-30901456D01*
X71367052Y-30708170D01*
X71367051Y-30708169D01*
X71367051Y-30708165D01*
X71367049Y-30708160D01*
X71291635Y-30526092D01*
X71291628Y-30526079D01*
X71182139Y-30362218D01*
X71182136Y-30362214D01*
X71042785Y-30222863D01*
X71042781Y-30222860D01*
X70878920Y-30113371D01*
X70878907Y-30113364D01*
X70696839Y-30037950D01*
X70696829Y-30037947D01*
X70503543Y-29999500D01*
X70503541Y-29999500D01*
X70306459Y-29999500D01*
X70306457Y-29999500D01*
X70113170Y-30037947D01*
X70113160Y-30037950D01*
X69931089Y-30113366D01*
X69838890Y-30174971D01*
X69772213Y-30195848D01*
X69704833Y-30177363D01*
X69701110Y-30174971D01*
X69674740Y-30157352D01*
X69608914Y-30113368D01*
X69608911Y-30113366D01*
X69608910Y-30113366D01*
X69426839Y-30037950D01*
X69426829Y-30037947D01*
X69233543Y-29999500D01*
X69233541Y-29999500D01*
X69036459Y-29999500D01*
X69036457Y-29999500D01*
X68843170Y-30037947D01*
X68843160Y-30037950D01*
X68661092Y-30113364D01*
X68661079Y-30113371D01*
X68497218Y-30222860D01*
X68497214Y-30222863D01*
X68357863Y-30362214D01*
X68357860Y-30362218D01*
X68248371Y-30526079D01*
X68248364Y-30526092D01*
X68172950Y-30708160D01*
X68172947Y-30708170D01*
X68134500Y-30901456D01*
X68134500Y-30901459D01*
X68134500Y-31098541D01*
X68134500Y-31098543D01*
X68134499Y-31098543D01*
X68172947Y-31291829D01*
X68172950Y-31291839D01*
X68248364Y-31473907D01*
X68248371Y-31473920D01*
X68357860Y-31637781D01*
X68361726Y-31642492D01*
X68360002Y-31643906D01*
X68388698Y-31696458D01*
X68389540Y-31744952D01*
X68107823Y-33297722D01*
X68076487Y-33360170D01*
X68016364Y-33395764D01*
X67993797Y-33399174D01*
X67993798Y-33399180D01*
X67993676Y-33399192D01*
X67992144Y-33399424D01*
X67990674Y-33399499D01*
X67889239Y-33409860D01*
X67889236Y-33409861D01*
X67724923Y-33464309D01*
X67724912Y-33464314D01*
X67577592Y-33555183D01*
X67577588Y-33555186D01*
X67455186Y-33677588D01*
X67455183Y-33677592D01*
X67364314Y-33824912D01*
X67364309Y-33824923D01*
X67309861Y-33989237D01*
X67299500Y-34090649D01*
X67299500Y-34909335D01*
X67299501Y-34909353D01*
X67309860Y-35010760D01*
X67309861Y-35010763D01*
X67364309Y-35175076D01*
X67364314Y-35175087D01*
X67455183Y-35322407D01*
X67455184Y-35322408D01*
X67455186Y-35322411D01*
X67545094Y-35412319D01*
X67578578Y-35473643D01*
X67573594Y-35543334D01*
X67545094Y-35587681D01*
X67455183Y-35677592D01*
X67364314Y-35824912D01*
X67364309Y-35824923D01*
X67309861Y-35989237D01*
X67299500Y-36090649D01*
X67299500Y-36909335D01*
X67299501Y-36909353D01*
X67309860Y-37010760D01*
X67309861Y-37010763D01*
X67364309Y-37175076D01*
X67364312Y-37175083D01*
X67386098Y-37210402D01*
X67404539Y-37277795D01*
X67383617Y-37344458D01*
X67329975Y-37389228D01*
X67280560Y-37399500D01*
X66219440Y-37399500D01*
X66152401Y-37379815D01*
X66106646Y-37327011D01*
X66096702Y-37257853D01*
X66113902Y-37210402D01*
X66135685Y-37175087D01*
X66135690Y-37175079D01*
X66190139Y-37010761D01*
X66200500Y-36909343D01*
X66200499Y-36090658D01*
X66190139Y-35989239D01*
X66135690Y-35824921D01*
X66135686Y-35824915D01*
X66135685Y-35824912D01*
X66044816Y-35677592D01*
X66044813Y-35677588D01*
X65954906Y-35587681D01*
X65921421Y-35526358D01*
X65926405Y-35456666D01*
X65954906Y-35412319D01*
X66044814Y-35322411D01*
X66135690Y-35175079D01*
X66190139Y-35010761D01*
X66200500Y-34909343D01*
X66200499Y-34090658D01*
X66190139Y-33989239D01*
X66135690Y-33824921D01*
X66135686Y-33824915D01*
X66135685Y-33824912D01*
X66073731Y-33724470D01*
X66055290Y-33657078D01*
X66066433Y-33607954D01*
X66783141Y-32035239D01*
X66828854Y-31982399D01*
X66871787Y-31965044D01*
X66886835Y-31962051D01*
X67068914Y-31886632D01*
X67232782Y-31777139D01*
X67372139Y-31637782D01*
X67481632Y-31473914D01*
X67557051Y-31291835D01*
X67595500Y-31098541D01*
X67595500Y-30901459D01*
X67595500Y-30901456D01*
X67557052Y-30708170D01*
X67557051Y-30708169D01*
X67557051Y-30708165D01*
X67557049Y-30708160D01*
X67481635Y-30526092D01*
X67481628Y-30526079D01*
X67372139Y-30362218D01*
X67372136Y-30362214D01*
X67232785Y-30222863D01*
X67232781Y-30222860D01*
X67068920Y-30113371D01*
X67068907Y-30113364D01*
X66886839Y-30037950D01*
X66886829Y-30037947D01*
X66693543Y-29999500D01*
X66693541Y-29999500D01*
X66496459Y-29999500D01*
X66496457Y-29999500D01*
X66303170Y-30037947D01*
X66303160Y-30037950D01*
X66121092Y-30113364D01*
X66121079Y-30113371D01*
X65957218Y-30222860D01*
X65957214Y-30222863D01*
X65817863Y-30362214D01*
X65817860Y-30362218D01*
X65708371Y-30526079D01*
X65708364Y-30526092D01*
X65632950Y-30708160D01*
X65632947Y-30708170D01*
X65594500Y-30901456D01*
X65594500Y-30901459D01*
X65594500Y-31098541D01*
X65594500Y-31098543D01*
X65594499Y-31098543D01*
X65632947Y-31291829D01*
X65632949Y-31291835D01*
X65692852Y-31436454D01*
X65700321Y-31505924D01*
X65691127Y-31535328D01*
X64874672Y-33326921D01*
X64828959Y-33379762D01*
X64761936Y-33399500D01*
X64490665Y-33399500D01*
X64490646Y-33399501D01*
X64389239Y-33409860D01*
X64389236Y-33409861D01*
X64224923Y-33464309D01*
X64224912Y-33464314D01*
X64077592Y-33555183D01*
X64077588Y-33555186D01*
X63955186Y-33677588D01*
X63955183Y-33677592D01*
X63864314Y-33824912D01*
X63864309Y-33824923D01*
X63809861Y-33989237D01*
X63799500Y-34090649D01*
X2000000Y-34090649D01*
X2000000Y-23135258D01*
X25499500Y-23135258D01*
X25499500Y-23364741D01*
X25524446Y-23554215D01*
X25529452Y-23592238D01*
X25529453Y-23592240D01*
X25588842Y-23813887D01*
X25676650Y-24025876D01*
X25676657Y-24025890D01*
X25791392Y-24224617D01*
X25931081Y-24406661D01*
X25931089Y-24406670D01*
X26093330Y-24568911D01*
X26093338Y-24568918D01*
X26275382Y-24708607D01*
X26275385Y-24708608D01*
X26275388Y-24708611D01*
X26474112Y-24823344D01*
X26474117Y-24823346D01*
X26474123Y-24823349D01*
X26565480Y-24861190D01*
X26686113Y-24911158D01*
X26907762Y-24970548D01*
X27135266Y-25000500D01*
X27135273Y-25000500D01*
X27364727Y-25000500D01*
X27364734Y-25000500D01*
X27592238Y-24970548D01*
X27813887Y-24911158D01*
X28025888Y-24823344D01*
X28224612Y-24708611D01*
X28406661Y-24568919D01*
X28406665Y-24568914D01*
X28406670Y-24568911D01*
X28568911Y-24406670D01*
X28568914Y-24406665D01*
X28568919Y-24406661D01*
X28708611Y-24224612D01*
X28823344Y-24025888D01*
X28911158Y-23813887D01*
X28970548Y-23592238D01*
X29000500Y-23364734D01*
X29000500Y-23135266D01*
X29000499Y-23135258D01*
X37999500Y-23135258D01*
X37999500Y-23364741D01*
X38024446Y-23554215D01*
X38029452Y-23592238D01*
X38029453Y-23592240D01*
X38088842Y-23813887D01*
X38176650Y-24025876D01*
X38176657Y-24025890D01*
X38291392Y-24224617D01*
X38431081Y-24406661D01*
X38431089Y-24406670D01*
X38593330Y-24568911D01*
X38593338Y-24568918D01*
X38775382Y-24708607D01*
X38775385Y-24708608D01*
X38775388Y-24708611D01*
X38974112Y-24823344D01*
X38974117Y-24823346D01*
X38974123Y-24823349D01*
X39065480Y-24861190D01*
X39186113Y-24911158D01*
X39407762Y-24970548D01*
X39635266Y-25000500D01*
X39635273Y-25000500D01*
X39864727Y-25000500D01*
X39864734Y-25000500D01*
X40092238Y-24970548D01*
X40313887Y-24911158D01*
X40525888Y-24823344D01*
X40724612Y-24708611D01*
X40906661Y-24568919D01*
X40906665Y-24568914D01*
X40906670Y-24568911D01*
X41068911Y-24406670D01*
X41068914Y-24406665D01*
X41068919Y-24406661D01*
X41208611Y-24224612D01*
X41323344Y-24025888D01*
X41411158Y-23813887D01*
X41470548Y-23592238D01*
X41500500Y-23364734D01*
X41500500Y-23135266D01*
X41500499Y-23135258D01*
X95499500Y-23135258D01*
X95499500Y-23364741D01*
X95524446Y-23554215D01*
X95529452Y-23592238D01*
X95529453Y-23592240D01*
X95588842Y-23813887D01*
X95676650Y-24025876D01*
X95676657Y-24025890D01*
X95791392Y-24224617D01*
X95931081Y-24406661D01*
X95931089Y-24406670D01*
X96093330Y-24568911D01*
X96093338Y-24568918D01*
X96275382Y-24708607D01*
X96275385Y-24708608D01*
X96275388Y-24708611D01*
X96474112Y-24823344D01*
X96474117Y-24823346D01*
X96474123Y-24823349D01*
X96565480Y-24861190D01*
X96686113Y-24911158D01*
X96907762Y-24970548D01*
X97135266Y-25000500D01*
X97135273Y-25000500D01*
X97364727Y-25000500D01*
X97364734Y-25000500D01*
X97592238Y-24970548D01*
X97813887Y-24911158D01*
X98025888Y-24823344D01*
X98224612Y-24708611D01*
X98406661Y-24568919D01*
X98406665Y-24568914D01*
X98406670Y-24568911D01*
X98568911Y-24406670D01*
X98568914Y-24406665D01*
X98568919Y-24406661D01*
X98708611Y-24224612D01*
X98823344Y-24025888D01*
X98911158Y-23813887D01*
X98970548Y-23592238D01*
X99000500Y-23364734D01*
X99000500Y-23135266D01*
X99000499Y-23135258D01*
X107999500Y-23135258D01*
X107999500Y-23364741D01*
X108024446Y-23554215D01*
X108029452Y-23592238D01*
X108029453Y-23592240D01*
X108088842Y-23813887D01*
X108176650Y-24025876D01*
X108176657Y-24025890D01*
X108291392Y-24224617D01*
X108431081Y-24406661D01*
X108431089Y-24406670D01*
X108593330Y-24568911D01*
X108593338Y-24568918D01*
X108775382Y-24708607D01*
X108775385Y-24708608D01*
X108775388Y-24708611D01*
X108974112Y-24823344D01*
X108974117Y-24823346D01*
X108974123Y-24823349D01*
X109065480Y-24861190D01*
X109186113Y-24911158D01*
X109407762Y-24970548D01*
X109635266Y-25000500D01*
X109635273Y-25000500D01*
X109864727Y-25000500D01*
X109864734Y-25000500D01*
X110092238Y-24970548D01*
X110313887Y-24911158D01*
X110525888Y-24823344D01*
X110724612Y-24708611D01*
X110906661Y-24568919D01*
X110906665Y-24568914D01*
X110906670Y-24568911D01*
X111068911Y-24406670D01*
X111068914Y-24406665D01*
X111068919Y-24406661D01*
X111208611Y-24224612D01*
X111323344Y-24025888D01*
X111411158Y-23813887D01*
X111470548Y-23592238D01*
X111500500Y-23364734D01*
X111500500Y-23135266D01*
X111470548Y-22907762D01*
X111411158Y-22686113D01*
X111323344Y-22474112D01*
X111208611Y-22275388D01*
X111208608Y-22275385D01*
X111208607Y-22275382D01*
X111068918Y-22093338D01*
X111068911Y-22093330D01*
X110906670Y-21931089D01*
X110906661Y-21931081D01*
X110724617Y-21791392D01*
X110525890Y-21676657D01*
X110525876Y-21676650D01*
X110313887Y-21588842D01*
X110092238Y-21529452D01*
X110054215Y-21524446D01*
X109864741Y-21499500D01*
X109864734Y-21499500D01*
X109635266Y-21499500D01*
X109635258Y-21499500D01*
X109418715Y-21528009D01*
X109407762Y-21529452D01*
X109314076Y-21554554D01*
X109186112Y-21588842D01*
X108974123Y-21676650D01*
X108974109Y-21676657D01*
X108775382Y-21791392D01*
X108593338Y-21931081D01*
X108431081Y-22093338D01*
X108291392Y-22275382D01*
X108176657Y-22474109D01*
X108176650Y-22474123D01*
X108088842Y-22686112D01*
X108029453Y-22907759D01*
X108029451Y-22907770D01*
X107999500Y-23135258D01*
X99000499Y-23135258D01*
X98970548Y-22907762D01*
X98911158Y-22686113D01*
X98823344Y-22474112D01*
X98708611Y-22275388D01*
X98708608Y-22275385D01*
X98708607Y-22275382D01*
X98568918Y-22093338D01*
X98568911Y-22093330D01*
X98406670Y-21931089D01*
X98406661Y-21931081D01*
X98224617Y-21791392D01*
X98025890Y-21676657D01*
X98025876Y-21676650D01*
X97813887Y-21588842D01*
X97592238Y-21529452D01*
X97554215Y-21524446D01*
X97364741Y-21499500D01*
X97364734Y-21499500D01*
X97135266Y-21499500D01*
X97135258Y-21499500D01*
X96918715Y-21528009D01*
X96907762Y-21529452D01*
X96814076Y-21554554D01*
X96686112Y-21588842D01*
X96474123Y-21676650D01*
X96474109Y-21676657D01*
X96275382Y-21791392D01*
X96093338Y-21931081D01*
X95931081Y-22093338D01*
X95791392Y-22275382D01*
X95676657Y-22474109D01*
X95676650Y-22474123D01*
X95588842Y-22686112D01*
X95529453Y-22907759D01*
X95529451Y-22907770D01*
X95499500Y-23135258D01*
X41500499Y-23135258D01*
X41470548Y-22907762D01*
X41411158Y-22686113D01*
X41323344Y-22474112D01*
X41208611Y-22275388D01*
X41208608Y-22275385D01*
X41208607Y-22275382D01*
X41068918Y-22093338D01*
X41068911Y-22093330D01*
X40906670Y-21931089D01*
X40906661Y-21931081D01*
X40724617Y-21791392D01*
X40525890Y-21676657D01*
X40525876Y-21676650D01*
X40313887Y-21588842D01*
X40092238Y-21529452D01*
X40054215Y-21524446D01*
X39864741Y-21499500D01*
X39864734Y-21499500D01*
X39635266Y-21499500D01*
X39635258Y-21499500D01*
X39418715Y-21528009D01*
X39407762Y-21529452D01*
X39314076Y-21554554D01*
X39186112Y-21588842D01*
X38974123Y-21676650D01*
X38974109Y-21676657D01*
X38775382Y-21791392D01*
X38593338Y-21931081D01*
X38431081Y-22093338D01*
X38291392Y-22275382D01*
X38176657Y-22474109D01*
X38176650Y-22474123D01*
X38088842Y-22686112D01*
X38029453Y-22907759D01*
X38029451Y-22907770D01*
X37999500Y-23135258D01*
X29000499Y-23135258D01*
X28970548Y-22907762D01*
X28911158Y-22686113D01*
X28823344Y-22474112D01*
X28708611Y-22275388D01*
X28708608Y-22275385D01*
X28708607Y-22275382D01*
X28568918Y-22093338D01*
X28568911Y-22093330D01*
X28406670Y-21931089D01*
X28406661Y-21931081D01*
X28224617Y-21791392D01*
X28025890Y-21676657D01*
X28025876Y-21676650D01*
X27813887Y-21588842D01*
X27592238Y-21529452D01*
X27554215Y-21524446D01*
X27364741Y-21499500D01*
X27364734Y-21499500D01*
X27135266Y-21499500D01*
X27135258Y-21499500D01*
X26918715Y-21528009D01*
X26907762Y-21529452D01*
X26814076Y-21554554D01*
X26686112Y-21588842D01*
X26474123Y-21676650D01*
X26474109Y-21676657D01*
X26275382Y-21791392D01*
X26093338Y-21931081D01*
X25931081Y-22093338D01*
X25791392Y-22275382D01*
X25676657Y-22474109D01*
X25676650Y-22474123D01*
X25588842Y-22686112D01*
X25529453Y-22907759D01*
X25529451Y-22907770D01*
X25499500Y-23135258D01*
X2000000Y-23135258D01*
X2000000Y-18323920D01*
X23249499Y-18323920D01*
X23278340Y-18468907D01*
X23278343Y-18468917D01*
X23334912Y-18605488D01*
X23334919Y-18605501D01*
X23417048Y-18728415D01*
X23417051Y-18728419D01*
X23521580Y-18832948D01*
X23521584Y-18832951D01*
X23644498Y-18915080D01*
X23644511Y-18915087D01*
X23781082Y-18971656D01*
X23781087Y-18971658D01*
X23781091Y-18971658D01*
X23781092Y-18971659D01*
X23926079Y-19000500D01*
X23926082Y-19000500D01*
X24073920Y-19000500D01*
X24171462Y-18981096D01*
X24218913Y-18971658D01*
X24355495Y-18915084D01*
X24420876Y-18871398D01*
X24487553Y-18850520D01*
X24489767Y-18850500D01*
X25521154Y-18850500D01*
X25588193Y-18870185D01*
X25633948Y-18922989D01*
X25635715Y-18927048D01*
X25676650Y-19025876D01*
X25676657Y-19025890D01*
X25791392Y-19224617D01*
X25931081Y-19406661D01*
X25931089Y-19406670D01*
X26093330Y-19568911D01*
X26093338Y-19568918D01*
X26275382Y-19708607D01*
X26275385Y-19708608D01*
X26275388Y-19708611D01*
X26474112Y-19823344D01*
X26474117Y-19823346D01*
X26474123Y-19823349D01*
X26565480Y-19861190D01*
X26686113Y-19911158D01*
X26907762Y-19970548D01*
X27135266Y-20000500D01*
X27135273Y-20000500D01*
X27364727Y-20000500D01*
X27364734Y-20000500D01*
X27592238Y-19970548D01*
X27813887Y-19911158D01*
X28025888Y-19823344D01*
X28224612Y-19708611D01*
X28406661Y-19568919D01*
X28406665Y-19568914D01*
X28406670Y-19568911D01*
X28568911Y-19406670D01*
X28568914Y-19406665D01*
X28568919Y-19406661D01*
X28708611Y-19224612D01*
X28823344Y-19025888D01*
X28911158Y-18813887D01*
X28970548Y-18592238D01*
X29000500Y-18364734D01*
X29000500Y-18135266D01*
X29000499Y-18135258D01*
X37999500Y-18135258D01*
X37999500Y-18364741D01*
X38013216Y-18468917D01*
X38029452Y-18592238D01*
X38065941Y-18728419D01*
X38088842Y-18813887D01*
X38176650Y-19025876D01*
X38176657Y-19025890D01*
X38291392Y-19224617D01*
X38431081Y-19406661D01*
X38431089Y-19406670D01*
X38593330Y-19568911D01*
X38593338Y-19568918D01*
X38775382Y-19708607D01*
X38775385Y-19708608D01*
X38775388Y-19708611D01*
X38974112Y-19823344D01*
X38974117Y-19823346D01*
X38974123Y-19823349D01*
X39065480Y-19861190D01*
X39186113Y-19911158D01*
X39407762Y-19970548D01*
X39635266Y-20000500D01*
X39635273Y-20000500D01*
X39864727Y-20000500D01*
X39864734Y-20000500D01*
X40092238Y-19970548D01*
X40313887Y-19911158D01*
X40525888Y-19823344D01*
X40724612Y-19708611D01*
X40906661Y-19568919D01*
X40906665Y-19568914D01*
X40906670Y-19568911D01*
X41068911Y-19406670D01*
X41068914Y-19406665D01*
X41068919Y-19406661D01*
X41208611Y-19224612D01*
X41323344Y-19025888D01*
X41411158Y-18813887D01*
X41470548Y-18592238D01*
X41500500Y-18364734D01*
X41500500Y-18323920D01*
X93249499Y-18323920D01*
X93278340Y-18468907D01*
X93278343Y-18468917D01*
X93334912Y-18605488D01*
X93334919Y-18605501D01*
X93417048Y-18728415D01*
X93417051Y-18728419D01*
X93521580Y-18832948D01*
X93521584Y-18832951D01*
X93644498Y-18915080D01*
X93644511Y-18915087D01*
X93781082Y-18971656D01*
X93781087Y-18971658D01*
X93781091Y-18971658D01*
X93781092Y-18971659D01*
X93926079Y-19000500D01*
X93926082Y-19000500D01*
X94073920Y-19000500D01*
X94171462Y-18981096D01*
X94218913Y-18971658D01*
X94355495Y-18915084D01*
X94420876Y-18871398D01*
X94487553Y-18850520D01*
X94489767Y-18850500D01*
X95521154Y-18850500D01*
X95588193Y-18870185D01*
X95633948Y-18922989D01*
X95635715Y-18927048D01*
X95676650Y-19025876D01*
X95676657Y-19025890D01*
X95791392Y-19224617D01*
X95931081Y-19406661D01*
X95931089Y-19406670D01*
X96093330Y-19568911D01*
X96093338Y-19568918D01*
X96275382Y-19708607D01*
X96275385Y-19708608D01*
X96275388Y-19708611D01*
X96474112Y-19823344D01*
X96474117Y-19823346D01*
X96474123Y-19823349D01*
X96565480Y-19861190D01*
X96686113Y-19911158D01*
X96907762Y-19970548D01*
X97135266Y-20000500D01*
X97135273Y-20000500D01*
X97364727Y-20000500D01*
X97364734Y-20000500D01*
X97592238Y-19970548D01*
X97813887Y-19911158D01*
X98025888Y-19823344D01*
X98224612Y-19708611D01*
X98406661Y-19568919D01*
X98406665Y-19568914D01*
X98406670Y-19568911D01*
X98568911Y-19406670D01*
X98568914Y-19406665D01*
X98568919Y-19406661D01*
X98708611Y-19224612D01*
X98823344Y-19025888D01*
X98911158Y-18813887D01*
X98970548Y-18592238D01*
X99000500Y-18364734D01*
X99000500Y-18135266D01*
X99000499Y-18135258D01*
X107999500Y-18135258D01*
X107999500Y-18364741D01*
X108013216Y-18468917D01*
X108029452Y-18592238D01*
X108065941Y-18728419D01*
X108088842Y-18813887D01*
X108176650Y-19025876D01*
X108176657Y-19025890D01*
X108291392Y-19224617D01*
X108431081Y-19406661D01*
X108431089Y-19406670D01*
X108593330Y-19568911D01*
X108593338Y-19568918D01*
X108775382Y-19708607D01*
X108775385Y-19708608D01*
X108775388Y-19708611D01*
X108974112Y-19823344D01*
X108974117Y-19823346D01*
X108974123Y-19823349D01*
X109065480Y-19861190D01*
X109186113Y-19911158D01*
X109407762Y-19970548D01*
X109635266Y-20000500D01*
X109635273Y-20000500D01*
X109864727Y-20000500D01*
X109864734Y-20000500D01*
X110092238Y-19970548D01*
X110313887Y-19911158D01*
X110525888Y-19823344D01*
X110724612Y-19708611D01*
X110906661Y-19568919D01*
X110906665Y-19568914D01*
X110906670Y-19568911D01*
X111068911Y-19406670D01*
X111068914Y-19406665D01*
X111068919Y-19406661D01*
X111208611Y-19224612D01*
X111323344Y-19025888D01*
X111411158Y-18813887D01*
X111470548Y-18592238D01*
X111500500Y-18364734D01*
X111500500Y-18135266D01*
X111470548Y-17907762D01*
X111411158Y-17686113D01*
X111323344Y-17474112D01*
X111208611Y-17275388D01*
X111208608Y-17275385D01*
X111208607Y-17275382D01*
X111068918Y-17093338D01*
X111068911Y-17093330D01*
X110906670Y-16931089D01*
X110906661Y-16931081D01*
X110724617Y-16791392D01*
X110525890Y-16676657D01*
X110525876Y-16676650D01*
X110313887Y-16588842D01*
X110092238Y-16529452D01*
X110054215Y-16524446D01*
X109864741Y-16499500D01*
X109864734Y-16499500D01*
X109635266Y-16499500D01*
X109635258Y-16499500D01*
X109418715Y-16528009D01*
X109407762Y-16529452D01*
X109314076Y-16554554D01*
X109186112Y-16588842D01*
X108974123Y-16676650D01*
X108974109Y-16676657D01*
X108775382Y-16791392D01*
X108593338Y-16931081D01*
X108431081Y-17093338D01*
X108291392Y-17275382D01*
X108176657Y-17474109D01*
X108176650Y-17474123D01*
X108088842Y-17686112D01*
X108029453Y-17907759D01*
X108029451Y-17907770D01*
X107999500Y-18135258D01*
X99000499Y-18135258D01*
X98970548Y-17907762D01*
X98911158Y-17686113D01*
X98823344Y-17474112D01*
X98708611Y-17275388D01*
X98708608Y-17275385D01*
X98708607Y-17275382D01*
X98568918Y-17093338D01*
X98568911Y-17093330D01*
X98406670Y-16931089D01*
X98406661Y-16931081D01*
X98224617Y-16791392D01*
X98025890Y-16676657D01*
X98025876Y-16676650D01*
X97813887Y-16588842D01*
X97592238Y-16529452D01*
X97554215Y-16524446D01*
X97364741Y-16499500D01*
X97364734Y-16499500D01*
X97135266Y-16499500D01*
X97135258Y-16499500D01*
X96918715Y-16528009D01*
X96907762Y-16529452D01*
X96814076Y-16554554D01*
X96686112Y-16588842D01*
X96474123Y-16676650D01*
X96474109Y-16676657D01*
X96275382Y-16791392D01*
X96093338Y-16931081D01*
X95931081Y-17093338D01*
X95791392Y-17275382D01*
X95676657Y-17474109D01*
X95676650Y-17474123D01*
X95635715Y-17572952D01*
X95591875Y-17627356D01*
X95525580Y-17649421D01*
X95521154Y-17649500D01*
X94489767Y-17649500D01*
X94422728Y-17629815D01*
X94420876Y-17628602D01*
X94355501Y-17584919D01*
X94355488Y-17584912D01*
X94218917Y-17528343D01*
X94218907Y-17528340D01*
X94073920Y-17499500D01*
X94073918Y-17499500D01*
X93926082Y-17499500D01*
X93926080Y-17499500D01*
X93781092Y-17528340D01*
X93781082Y-17528343D01*
X93644511Y-17584912D01*
X93644498Y-17584919D01*
X93521584Y-17667048D01*
X93521580Y-17667051D01*
X93417051Y-17771580D01*
X93417048Y-17771584D01*
X93334919Y-17894498D01*
X93334912Y-17894511D01*
X93278343Y-18031082D01*
X93278340Y-18031092D01*
X93249500Y-18176079D01*
X93249500Y-18176082D01*
X93249500Y-18323918D01*
X93249500Y-18323920D01*
X93249499Y-18323920D01*
X41500500Y-18323920D01*
X41500500Y-18135266D01*
X41470548Y-17907762D01*
X41411158Y-17686113D01*
X41323344Y-17474112D01*
X41208611Y-17275388D01*
X41208608Y-17275385D01*
X41208607Y-17275382D01*
X41068918Y-17093338D01*
X41068911Y-17093330D01*
X40906670Y-16931089D01*
X40906661Y-16931081D01*
X40724617Y-16791392D01*
X40525890Y-16676657D01*
X40525876Y-16676650D01*
X40313887Y-16588842D01*
X40092238Y-16529452D01*
X40054215Y-16524446D01*
X39864741Y-16499500D01*
X39864734Y-16499500D01*
X39635266Y-16499500D01*
X39635258Y-16499500D01*
X39418715Y-16528009D01*
X39407762Y-16529452D01*
X39314076Y-16554554D01*
X39186112Y-16588842D01*
X38974123Y-16676650D01*
X38974109Y-16676657D01*
X38775382Y-16791392D01*
X38593338Y-16931081D01*
X38431081Y-17093338D01*
X38291392Y-17275382D01*
X38176657Y-17474109D01*
X38176650Y-17474123D01*
X38088842Y-17686112D01*
X38029453Y-17907759D01*
X38029451Y-17907770D01*
X37999500Y-18135258D01*
X29000499Y-18135258D01*
X28970548Y-17907762D01*
X28911158Y-17686113D01*
X28823344Y-17474112D01*
X28708611Y-17275388D01*
X28708608Y-17275385D01*
X28708607Y-17275382D01*
X28568918Y-17093338D01*
X28568911Y-17093330D01*
X28406670Y-16931089D01*
X28406661Y-16931081D01*
X28224617Y-16791392D01*
X28025890Y-16676657D01*
X28025876Y-16676650D01*
X27813887Y-16588842D01*
X27592238Y-16529452D01*
X27554215Y-16524446D01*
X27364741Y-16499500D01*
X27364734Y-16499500D01*
X27135266Y-16499500D01*
X27135258Y-16499500D01*
X26918715Y-16528009D01*
X26907762Y-16529452D01*
X26814076Y-16554554D01*
X26686112Y-16588842D01*
X26474123Y-16676650D01*
X26474109Y-16676657D01*
X26275382Y-16791392D01*
X26093338Y-16931081D01*
X25931081Y-17093338D01*
X25791392Y-17275382D01*
X25676657Y-17474109D01*
X25676650Y-17474123D01*
X25635715Y-17572952D01*
X25591875Y-17627356D01*
X25525580Y-17649421D01*
X25521154Y-17649500D01*
X24489767Y-17649500D01*
X24422728Y-17629815D01*
X24420876Y-17628602D01*
X24355501Y-17584919D01*
X24355488Y-17584912D01*
X24218917Y-17528343D01*
X24218907Y-17528340D01*
X24073920Y-17499500D01*
X24073918Y-17499500D01*
X23926082Y-17499500D01*
X23926080Y-17499500D01*
X23781092Y-17528340D01*
X23781082Y-17528343D01*
X23644511Y-17584912D01*
X23644498Y-17584919D01*
X23521584Y-17667048D01*
X23521580Y-17667051D01*
X23417051Y-17771580D01*
X23417048Y-17771584D01*
X23334919Y-17894498D01*
X23334912Y-17894511D01*
X23278343Y-18031082D01*
X23278340Y-18031092D01*
X23249500Y-18176079D01*
X23249500Y-18176082D01*
X23249500Y-18323918D01*
X23249500Y-18323920D01*
X23249499Y-18323920D01*
X2000000Y-18323920D01*
X2000000Y-4878711D01*
X3149500Y-4878711D01*
X3149500Y-5121288D01*
X3181161Y-5361785D01*
X3243947Y-5596104D01*
X3336773Y-5820205D01*
X3336776Y-5820212D01*
X3458064Y-6030289D01*
X3458066Y-6030292D01*
X3458067Y-6030293D01*
X3605733Y-6222736D01*
X3605739Y-6222743D01*
X3777256Y-6394260D01*
X3777262Y-6394265D01*
X3969711Y-6541936D01*
X4179788Y-6663224D01*
X4403900Y-6756054D01*
X4638211Y-6818838D01*
X4818586Y-6842584D01*
X4878711Y-6850500D01*
X4878712Y-6850500D01*
X5121289Y-6850500D01*
X5169388Y-6844167D01*
X5361789Y-6818838D01*
X5596100Y-6756054D01*
X5820212Y-6663224D01*
X6030289Y-6541936D01*
X6222738Y-6394265D01*
X6394265Y-6222738D01*
X6541936Y-6030289D01*
X6663224Y-5820212D01*
X6756054Y-5596100D01*
X6818838Y-5361789D01*
X6850500Y-5121288D01*
X6850500Y-4878712D01*
X6850500Y-4878711D01*
X143149500Y-4878711D01*
X143149500Y-5121288D01*
X143181161Y-5361785D01*
X143243947Y-5596104D01*
X143336773Y-5820205D01*
X143336776Y-5820212D01*
X143458064Y-6030289D01*
X143458066Y-6030292D01*
X143458067Y-6030293D01*
X143605733Y-6222736D01*
X143605739Y-6222743D01*
X143777256Y-6394260D01*
X143777262Y-6394265D01*
X143969711Y-6541936D01*
X144179788Y-6663224D01*
X144403900Y-6756054D01*
X144638211Y-6818838D01*
X144818586Y-6842584D01*
X144878711Y-6850500D01*
X144878712Y-6850500D01*
X145121289Y-6850500D01*
X145169388Y-6844167D01*
X145361789Y-6818838D01*
X145596100Y-6756054D01*
X145820212Y-6663224D01*
X146030289Y-6541936D01*
X146222738Y-6394265D01*
X146394265Y-6222738D01*
X146541936Y-6030289D01*
X146663224Y-5820212D01*
X146756054Y-5596100D01*
X146818838Y-5361789D01*
X146850500Y-5121288D01*
X146850500Y-4878712D01*
X146818838Y-4638211D01*
X146756054Y-4403900D01*
X146663224Y-4179788D01*
X146541936Y-3969711D01*
X146394265Y-3777262D01*
X146394260Y-3777256D01*
X146222743Y-3605739D01*
X146222736Y-3605733D01*
X146030293Y-3458067D01*
X146030292Y-3458066D01*
X146030289Y-3458064D01*
X145820212Y-3336776D01*
X145820205Y-3336773D01*
X145596104Y-3243947D01*
X145361785Y-3181161D01*
X145121289Y-3149500D01*
X145121288Y-3149500D01*
X144878712Y-3149500D01*
X144878711Y-3149500D01*
X144638214Y-3181161D01*
X144403895Y-3243947D01*
X144179794Y-3336773D01*
X144179785Y-3336777D01*
X143969706Y-3458067D01*
X143777263Y-3605733D01*
X143777256Y-3605739D01*
X143605739Y-3777256D01*
X143605733Y-3777263D01*
X143458067Y-3969706D01*
X143336777Y-4179785D01*
X143336773Y-4179794D01*
X143243947Y-4403895D01*
X143181161Y-4638214D01*
X143149500Y-4878711D01*
X6850500Y-4878711D01*
X6818838Y-4638211D01*
X6756054Y-4403900D01*
X6663224Y-4179788D01*
X6541936Y-3969711D01*
X6394265Y-3777262D01*
X6394260Y-3777256D01*
X6222743Y-3605739D01*
X6222736Y-3605733D01*
X6030293Y-3458067D01*
X6030292Y-3458066D01*
X6030289Y-3458064D01*
X5820212Y-3336776D01*
X5820205Y-3336773D01*
X5596104Y-3243947D01*
X5361785Y-3181161D01*
X5121289Y-3149500D01*
X5121288Y-3149500D01*
X4878712Y-3149500D01*
X4878711Y-3149500D01*
X4638214Y-3181161D01*
X4403895Y-3243947D01*
X4179794Y-3336773D01*
X4179785Y-3336777D01*
X3969706Y-3458067D01*
X3777263Y-3605733D01*
X3777256Y-3605739D01*
X3605739Y-3777256D01*
X3605733Y-3777263D01*
X3458067Y-3969706D01*
X3336777Y-4179785D01*
X3336773Y-4179794D01*
X3243947Y-4403895D01*
X3181161Y-4638214D01*
X3149500Y-4878711D01*
X2000000Y-4878711D01*
X2000000Y-2124000D01*
X2019685Y-2056961D01*
X2072489Y-2011206D01*
X2124000Y-2000000D01*
X147876000Y-2000000D01*
X147943039Y-2019685D01*
G37*
%TD.AperFunction*%
%TD*%
M02*
