<svg xmlns="http://www.w3.org/2000/svg" width="1560" height="1060" viewBox="-3 -3 156 106"><rect x="-3" y="-3" width="156" height="106" fill="#f6f6f6"/><g fill="#28282a"><rect width="150" height="100" rx="0.4" fill="#e8e1d1" stroke="#aca799" stroke-width="0.25"/><circle cx="5" cy="5" r="1.6" fill="#f6f6f6"/><circle cx="145" cy="5" r="1.6" fill="#f6f6f6"/><circle cx="5" cy="95" r="1.6" fill="#f6f6f6"/><circle cx="145" cy="95" r="1.6" fill="#f6f6f6"/><circle cx="45" cy="36.5" r="4.0" fill="#f6f6f6"/><circle cx="68.5" cy="69" r="2.6" fill="#f6f6f6"/><circle cx="69.1" cy="17.1" r="1.6" fill="#f6f6f6"/><circle cx="69.1" cy="55.9" r="1.6" fill="#f6f6f6"/><circle cx="137.9" cy="17.1" r="1.6" fill="#f6f6f6"/><circle cx="137.9" cy="55.9" r="1.6" fill="#f6f6f6"/><rect x="75" y="22.5" width="57" height="28" fill="#f6f6f6"/><rect x="39.28" y="74.25" width="15.2" height="10" rx="2" fill="#e8e1d1" stroke="#b9b2a4" stroke-width="0.25"/><text x="46.88" y="80.4" text-anchor="middle" font-family="Arial" font-size="3.2" font-weight="bold">ARM</text><rect x="108.07000000000001" y="74.25" width="15.2" height="10" rx="2" fill="#e8e1d1" stroke="#b9b2a4" stroke-width="0.25"/><text x="115.67" y="80.4" text-anchor="middle" font-family="Arial" font-size="3.2" font-weight="bold">PULL</text><g transform="translate(14 3) scale(0.08071748878923767) translate(-768 -288)"><path fill="black" fill-rule="evenodd" d="M 716.000,422.000 L 715.000,425.000 L 713.000,426.000 L 712.000,430.000 L 709.000,432.000 L 709.000,434.000 L 707.000,435.000 L 707.000,437.000 L 706.000,437.000 L 705.000,439.000 L 708.000,439.000 L 709.000,437.000 L 713.000,436.000 L 714.000,434.000 L 718.000,433.000 L 719.000,431.000 L 721.000,431.000 L 722.000,429.000 L 724.000,429.000 L 725.000,427.000 L 727.000,427.000 L 729.000,424.000 L 731.000,424.000 L 733.000,421.000 L 735.000,421.000 L 737.000,418.000 L 739.000,418.000 L 740.000,415.000 L 743.000,413.000 L 741.000,419.000 L 739.000,420.000 L 739.000,422.000 L 737.000,423.000 L 737.000,425.000 L 735.000,426.000 L 735.000,428.000 L 731.000,431.000 L 731.000,433.000 L 725.000,438.000 L 725.000,440.000 L 724.000,440.000 L 714.000,451.000 L 712.000,451.000 L 705.000,459.000 L 703.000,459.000 L 700.000,463.000 L 698.000,463.000 L 695.000,467.000 L 693.000,467.000 L 691.000,470.000 L 689.000,470.000 L 689.000,471.000 L 688.000,471.000 L 687.000,473.000 L 685.000,473.000 L 683.000,476.000 L 681.000,476.000 L 680.000,478.000 L 678.000,478.000 L 677.000,480.000 L 675.000,480.000 L 674.000,482.000 L 672.000,482.000 L 672.000,483.000 L 671.000,483.000 L 670.000,485.000 L 668.000,485.000 L 666.000,488.000 L 669.000,489.000 L 669.000,488.000 L 672.000,488.000 L 672.000,487.000 L 675.000,487.000 L 675.000,486.000 L 678.000,486.000 L 678.000,485.000 L 682.000,485.000 L 682.000,484.000 L 691.000,482.000 L 691.000,481.000 L 693.000,481.000 L 693.000,480.000 L 702.000,478.000 L 702.000,477.000 L 704.000,477.000 L 704.000,476.000 L 710.000,475.000 L 710.000,474.000 L 712.000,474.000 L 712.000,473.000 L 714.000,473.000 L 714.000,472.000 L 716.000,472.000 L 716.000,471.000 L 718.000,471.000 L 718.000,470.000 L 721.000,470.000 L 721.000,469.000 L 723.000,469.000 L 723.000,468.000 L 725.000,468.000 L 725.000,467.000 L 727.000,467.000 L 727.000,466.000 L 733.000,464.000 L 734.000,462.000 L 736.000,462.000 L 736.000,463.000 L 733.000,465.000 L 733.000,467.000 L 732.000,467.000 L 726.000,474.000 L 724.000,474.000 L 719.000,480.000 L 717.000,480.000 L 716.000,482.000 L 714.000,482.000 L 714.000,483.000 L 711.000,484.000 L 710.000,486.000 L 704.000,488.000 L 703.000,490.000 L 701.000,490.000 L 701.000,491.000 L 699.000,491.000 L 699.000,492.000 L 697.000,492.000 L 697.000,493.000 L 695.000,493.000 L 695.000,494.000 L 693.000,494.000 L 693.000,495.000 L 691.000,495.000 L 691.000,496.000 L 688.000,496.000 L 688.000,497.000 L 686.000,497.000 L 686.000,498.000 L 684.000,498.000 L 684.000,499.000 L 681.000,499.000 L 681.000,500.000 L 679.000,500.000 L 679.000,501.000 L 676.000,501.000 L 676.000,502.000 L 673.000,502.000 L 673.000,503.000 L 670.000,503.000 L 670.000,504.000 L 667.000,504.000 L 667.000,505.000 L 664.000,505.000 L 664.000,506.000 L 661.000,506.000 L 661.000,507.000 L 657.000,507.000 L 657.000,508.000 L 645.000,510.000 L 645.000,511.000 L 725.000,511.000 L 725.000,510.000 L 726.000,510.000 L 726.000,511.000 L 732.000,511.000 L 732.000,510.000 L 735.000,510.000 L 735.000,511.000 L 736.000,511.000 L 736.000,510.000 L 742.000,510.000 L 742.000,511.000 L 743.000,511.000 L 743.000,510.000 L 744.000,510.000 L 744.000,507.000 L 745.000,507.000 L 745.000,499.000 L 746.000,499.000 L 746.000,492.000 L 747.000,492.000 L 747.000,485.000 L 748.000,485.000 L 748.000,477.000 L 749.000,477.000 L 749.000,471.000 L 750.000,471.000 L 751.000,456.000 L 752.000,456.000 L 752.000,449.000 L 753.000,449.000 L 753.000,442.000 L 754.000,442.000 L 755.000,427.000 L 756.000,427.000 L 756.000,419.000 L 757.000,419.000 L 757.000,412.000 L 758.000,412.000 L 758.000,404.000 L 759.000,404.000 L 759.000,397.000 L 760.000,397.000 L 760.000,390.000 L 761.000,390.000 L 761.000,382.000 L 762.000,382.000 L 762.000,375.000 L 763.000,375.000 L 763.000,367.000 L 764.000,367.000 L 764.000,360.000 L 765.000,360.000 L 765.000,353.000 L 766.000,353.000 L 766.000,345.000 L 767.000,345.000 L 767.000,343.000 L 768.000,343.000 L 768.000,349.000 L 769.000,349.000 L 769.000,355.000 L 770.000,355.000 L 771.000,371.000 L 772.000,371.000 L 772.000,377.000 L 773.000,377.000 L 773.000,385.000 L 774.000,385.000 L 775.000,400.000 L 776.000,400.000 L 776.000,407.000 L 777.000,407.000 L 777.000,414.000 L 778.000,414.000 L 778.000,423.000 L 779.000,423.000 L 779.000,429.000 L 780.000,429.000 L 780.000,437.000 L 781.000,437.000 L 781.000,444.000 L 782.000,444.000 L 782.000,451.000 L 783.000,451.000 L 783.000,459.000 L 784.000,459.000 L 784.000,467.000 L 785.000,467.000 L 785.000,474.000 L 786.000,474.000 L 786.000,482.000 L 787.000,482.000 L 787.000,489.000 L 788.000,489.000 L 788.000,497.000 L 789.000,497.000 L 790.000,510.000 L 791.000,510.000 L 791.000,511.000 L 800.000,511.000 L 800.000,510.000 L 806.000,510.000 L 806.000,511.000 L 809.000,511.000 L 809.000,510.000 L 810.000,510.000 L 810.000,511.000 L 811.000,511.000 L 811.000,510.000 L 812.000,510.000 L 812.000,511.000 L 813.000,511.000 L 813.000,510.000 L 815.000,510.000 L 815.000,511.000 L 816.000,511.000 L 816.000,510.000 L 823.000,510.000 L 823.000,511.000 L 824.000,511.000 L 824.000,510.000 L 826.000,510.000 L 826.000,511.000 L 832.000,511.000 L 832.000,510.000 L 840.000,510.000 L 840.000,511.000 L 848.000,511.000 L 848.000,510.000 L 852.000,510.000 L 852.000,511.000 L 853.000,511.000 L 853.000,510.000 L 854.000,510.000 L 854.000,511.000 L 857.000,511.000 L 857.000,510.000 L 858.000,510.000 L 858.000,511.000 L 860.000,511.000 L 860.000,510.000 L 861.000,510.000 L 861.000,511.000 L 864.000,511.000 L 864.000,510.000 L 865.000,510.000 L 865.000,511.000 L 886.000,511.000 L 886.000,510.000 L 884.000,510.000 L 884.000,509.000 L 877.000,508.000 L 877.000,507.000 L 874.000,507.000 L 874.000,506.000 L 871.000,506.000 L 871.000,505.000 L 868.000,505.000 L 868.000,504.000 L 859.000,502.000 L 859.000,501.000 L 857.000,501.000 L 857.000,500.000 L 851.000,499.000 L 851.000,498.000 L 849.000,498.000 L 849.000,497.000 L 846.000,497.000 L 846.000,496.000 L 844.000,496.000 L 844.000,495.000 L 841.000,495.000 L 841.000,494.000 L 839.000,494.000 L 839.000,493.000 L 837.000,493.000 L 837.000,492.000 L 835.000,492.000 L 835.000,491.000 L 829.000,489.000 L 828.000,487.000 L 824.000,486.000 L 823.000,484.000 L 821.000,484.000 L 820.000,482.000 L 818.000,482.000 L 816.000,479.000 L 814.000,479.000 L 811.000,475.000 L 809.000,475.000 L 809.000,474.000 L 804.000,470.000 L 804.000,468.000 L 798.000,463.000 L 798.000,462.000 L 800.000,462.000 L 800.000,463.000 L 802.000,463.000 L 802.000,464.000 L 804.000,464.000 L 804.000,465.000 L 806.000,465.000 L 806.000,466.000 L 808.000,466.000 L 808.000,467.000 L 810.000,467.000 L 810.000,468.000 L 813.000,468.000 L 813.000,469.000 L 815.000,469.000 L 815.000,470.000 L 817.000,470.000 L 817.000,471.000 L 819.000,471.000 L 819.000,472.000 L 822.000,472.000 L 822.000,473.000 L 824.000,473.000 L 824.000,474.000 L 826.000,474.000 L 826.000,475.000 L 829.000,475.000 L 829.000,476.000 L 831.000,476.000 L 831.000,477.000 L 837.000,478.000 L 837.000,479.000 L 842.000,480.000 L 842.000,481.000 L 844.000,481.000 L 844.000,482.000 L 847.000,482.000 L 847.000,483.000 L 850.000,483.000 L 850.000,484.000 L 853.000,484.000 L 853.000,485.000 L 856.000,485.000 L 856.000,486.000 L 859.000,486.000 L 859.000,487.000 L 865.000,487.000 L 865.000,485.000 L 864.000,485.000 L 863.000,483.000 L 859.000,482.000 L 858.000,480.000 L 856.000,480.000 L 855.000,478.000 L 853.000,478.000 L 851.000,475.000 L 849.000,475.000 L 848.000,473.000 L 846.000,473.000 L 845.000,471.000 L 843.000,471.000 L 840.000,467.000 L 838.000,467.000 L 835.000,463.000 L 833.000,463.000 L 829.000,458.000 L 827.000,458.000 L 819.000,449.000 L 817.000,449.000 L 817.000,448.000 L 812.000,444.000 L 812.000,442.000 L 804.000,435.000 L 804.000,433.000 L 801.000,431.000 L 801.000,429.000 L 799.000,428.000 L 799.000,426.000 L 797.000,425.000 L 797.000,423.000 L 795.000,422.000 L 795.000,420.000 L 794.000,420.000 L 794.000,418.000 L 793.000,418.000 L 793.000,416.000 L 794.000,416.000 L 794.000,417.000 L 797.000,418.000 L 800.000,422.000 L 802.000,422.000 L 802.000,423.000 L 805.000,424.000 L 806.000,426.000 L 810.000,427.000 L 812.000,430.000 L 814.000,430.000 L 815.000,432.000 L 817.000,432.000 L 817.000,433.000 L 820.000,434.000 L 821.000,436.000 L 823.000,436.000 L 823.000,437.000 L 829.000,439.000 L 829.000,438.000 L 826.000,436.000 L 826.000,434.000 L 824.000,433.000 L 824.000,431.000 L 823.000,431.000 L 823.000,429.000 L 821.000,428.000 L 820.000,424.000 L 818.000,423.000 L 817.000,419.000 L 815.000,418.000 L 815.000,416.000 L 814.000,416.000 L 814.000,414.000 L 813.000,414.000 L 813.000,412.000 L 812.000,412.000 L 812.000,410.000 L 811.000,410.000 L 811.000,408.000 L 810.000,408.000 L 810.000,406.000 L 809.000,406.000 L 809.000,403.000 L 808.000,403.000 L 808.000,401.000 L 807.000,401.000 L 807.000,399.000 L 806.000,399.000 L 806.000,396.000 L 805.000,396.000 L 805.000,394.000 L 804.000,394.000 L 804.000,392.000 L 803.000,392.000 L 803.000,389.000 L 802.000,389.000 L 802.000,387.000 L 801.000,387.000 L 801.000,384.000 L 800.000,384.000 L 800.000,382.000 L 799.000,382.000 L 799.000,379.000 L 798.000,379.000 L 798.000,377.000 L 797.000,377.000 L 797.000,374.000 L 796.000,374.000 L 796.000,371.000 L 795.000,371.000 L 795.000,369.000 L 794.000,369.000 L 792.000,360.000 L 791.000,360.000 L 791.000,358.000 L 790.000,358.000 L 790.000,355.000 L 789.000,355.000 L 789.000,352.000 L 788.000,352.000 L 788.000,348.000 L 787.000,348.000 L 787.000,345.000 L 786.000,345.000 L 786.000,342.000 L 785.000,342.000 L 785.000,338.000 L 784.000,338.000 L 784.000,335.000 L 783.000,335.000 L 783.000,332.000 L 782.000,332.000 L 782.000,329.000 L 781.000,329.000 L 781.000,326.000 L 780.000,326.000 L 779.000,318.000 L 778.000,318.000 L 778.000,315.000 L 777.000,315.000 L 777.000,311.000 L 776.000,311.000 L 776.000,308.000 L 775.000,308.000 L 775.000,305.000 L 774.000,305.000 L 774.000,301.000 L 773.000,301.000 L 773.000,297.000 L 772.000,297.000 L 772.000,293.000 L 771.000,293.000 L 770.000,288.000 L 766.000,288.000 L 766.000,289.000 L 764.000,290.000 L 764.000,294.000 L 763.000,294.000 L 762.000,301.000 L 761.000,301.000 L 761.000,305.000 L 760.000,305.000 L 760.000,308.000 L 759.000,308.000 L 759.000,312.000 L 758.000,312.000 L 758.000,315.000 L 757.000,315.000 L 757.000,318.000 L 756.000,318.000 L 755.000,326.000 L 754.000,326.000 L 754.000,329.000 L 753.000,329.000 L 753.000,332.000 L 752.000,332.000 L 752.000,336.000 L 751.000,336.000 L 751.000,339.000 L 750.000,339.000 L 750.000,343.000 L 749.000,343.000 L 749.000,346.000 L 748.000,346.000 L 748.000,349.000 L 747.000,349.000 L 745.000,358.000 L 744.000,358.000 L 744.000,360.000 L 743.000,360.000 L 743.000,364.000 L 742.000,364.000 L 742.000,366.000 L 741.000,366.000 L 739.000,375.000 L 738.000,375.000 L 738.000,377.000 L 737.000,377.000 L 737.000,380.000 L 736.000,380.000 L 736.000,382.000 L 735.000,382.000 L 735.000,385.000 L 734.000,385.000 L 734.000,387.000 L 733.000,387.000 L 733.000,390.000 L 732.000,390.000 L 732.000,392.000 L 731.000,392.000 L 731.000,395.000 L 730.000,395.000 L 730.000,397.000 L 729.000,397.000 L 729.000,399.000 L 728.000,399.000 L 728.000,401.000 L 727.000,401.000 L 727.000,403.000 L 726.000,403.000 L 726.000,405.000 L 725.000,405.000 L 725.000,407.000 L 724.000,407.000 L 724.000,409.000 L 723.000,409.000 L 723.000,411.000 L 722.000,411.000 L 720.000,417.000 L 718.000,418.000 L 718.000,420.000 L 717.000,420.000 L 717.000,422.000 Z M 768.000,459.000 L 767.000,459.000 L 767.000,464.000 L 766.000,464.000 L 765.000,473.000 L 764.000,473.000 L 764.000,478.000 L 763.000,478.000 L 763.000,484.000 L 762.000,484.000 L 761.000,495.000 L 760.000,495.000 L 760.000,500.000 L 759.000,500.000 L 759.000,505.000 L 758.000,505.000 L 758.000,511.000 L 768.000,511.000 L 768.000,510.000 L 777.000,511.000 L 776.000,503.000 L 775.000,503.000 L 775.000,498.000 L 774.000,498.000 L 774.000,492.000 L 773.000,492.000 L 773.000,486.000 L 772.000,486.000 L 772.000,481.000 L 771.000,481.000 L 771.000,474.000 L 770.000,474.000 L 770.000,467.000 L 769.000,467.000 Z"/></g><text x="18" y="7.3" font-family="Arial" font-weight="bold" font-size="4">Iron</text><text x="20.4" y="13.1" font-family="Arial" font-weight="bold" font-size="4">Pine</text><text x="24.6" y="19.0" font-family="Arial" font-weight="bold" font-size="4">Outdoors</text></g><g transform="translate(78 3) scale(0.06304347826086956) translate(-334.0 -353.0)"><path fill="#28282a" fill-rule="evenodd" d="M 356.000,437.000 L 356.000,438.000 L 354.000,438.000 L 353.000,440.000 L 351.000,440.000 L 351.000,441.000 L 348.000,443.000 L 348.000,445.000 L 347.000,445.000 L 347.000,447.000 L 346.000,447.000 L 346.000,449.000 L 345.000,449.000 L 345.000,451.000 L 344.000,451.000 L 343.000,457.000 L 342.000,457.000 L 342.000,459.000 L 341.000,459.000 L 341.000,462.000 L 340.000,462.000 L 338.000,471.000 L 337.000,471.000 L 337.000,473.000 L 336.000,473.000 L 336.000,478.000 L 335.000,478.000 L 335.000,482.000 L 334.000,482.000 L 334.000,483.000 L 335.000,483.000 L 336.000,489.000 L 337.000,489.000 L 340.000,493.000 L 348.000,494.000 L 348.000,495.000 L 422.000,495.000 L 426.000,480.000 L 424.000,480.000 L 424.000,481.000 L 369.000,481.000 L 369.000,480.000 L 363.000,480.000 L 363.000,479.000 L 362.000,479.000 L 362.000,474.000 L 363.000,474.000 L 363.000,471.000 L 364.000,471.000 L 364.000,468.000 L 365.000,468.000 L 365.000,465.000 L 366.000,465.000 L 366.000,462.000 L 367.000,462.000 L 367.000,459.000 L 368.000,459.000 L 368.000,455.000 L 369.000,455.000 L 369.000,453.000 L 370.000,453.000 L 370.000,451.000 L 371.000,451.000 L 372.000,449.000 L 433.000,449.000 L 433.000,448.000 L 435.000,448.000 L 435.000,447.000 L 440.000,443.000 L 440.000,441.000 L 443.000,439.000 L 443.000,437.000 L 444.000,437.000 L 445.000,434.000 L 444.000,434.000 L 444.000,433.000 L 374.000,433.000 L 374.000,434.000 L 365.000,434.000 L 365.000,435.000 L 361.000,435.000 L 361.000,436.000 Z M 441.000,461.000 L 440.000,467.000 L 439.000,467.000 L 439.000,469.000 L 438.000,469.000 L 438.000,472.000 L 437.000,472.000 L 437.000,475.000 L 436.000,475.000 L 434.000,484.000 L 433.000,484.000 L 433.000,486.000 L 432.000,486.000 L 432.000,490.000 L 431.000,490.000 L 430.000,495.000 L 453.000,495.000 L 453.000,492.000 L 454.000,492.000 L 454.000,489.000 L 455.000,489.000 L 455.000,486.000 L 456.000,486.000 L 458.000,477.000 L 459.000,477.000 L 459.000,475.000 L 460.000,475.000 L 460.000,472.000 L 461.000,472.000 L 461.000,469.000 L 462.000,469.000 L 462.000,466.000 L 463.000,466.000 L 463.000,463.000 L 464.000,463.000 L 464.000,460.000 L 465.000,460.000 L 465.000,457.000 L 466.000,457.000 L 466.000,454.000 L 467.000,454.000 L 467.000,451.000 L 468.000,451.000 L 469.000,448.000 L 472.000,448.000 L 472.000,449.000 L 504.000,449.000 L 504.000,450.000 L 506.000,450.000 L 506.000,456.000 L 505.000,456.000 L 505.000,458.000 L 504.000,458.000 L 503.000,460.000 L 501.000,460.000 L 501.000,461.000 L 499.000,461.000 L 499.000,462.000 L 491.000,462.000 L 491.000,463.000 L 471.000,463.000 L 471.000,464.000 L 470.000,464.000 L 470.000,467.000 L 471.000,467.000 L 472.000,470.000 L 480.000,477.000 L 480.000,479.000 L 493.000,491.000 L 494.000,494.000 L 496.000,494.000 L 496.000,495.000 L 523.000,495.000 L 523.000,493.000 L 522.000,493.000 L 513.000,483.000 L 511.000,483.000 L 511.000,482.000 L 505.000,477.000 L 505.000,475.000 L 503.000,475.000 L 503.000,473.000 L 507.000,473.000 L 507.000,472.000 L 513.000,471.000 L 513.000,470.000 L 517.000,469.000 L 518.000,467.000 L 520.000,467.000 L 520.000,466.000 L 522.000,465.000 L 522.000,463.000 L 524.000,462.000 L 524.000,460.000 L 525.000,460.000 L 525.000,458.000 L 526.000,458.000 L 526.000,456.000 L 527.000,456.000 L 527.000,452.000 L 528.000,452.000 L 528.000,449.000 L 529.000,449.000 L 529.000,443.000 L 528.000,443.000 L 528.000,441.000 L 527.000,441.000 L 527.000,439.000 L 526.000,439.000 L 525.000,437.000 L 523.000,437.000 L 523.000,436.000 L 521.000,436.000 L 521.000,435.000 L 515.000,435.000 L 515.000,434.000 L 451.000,434.000 L 450.000,439.000 L 449.000,439.000 L 449.000,441.000 L 448.000,441.000 L 448.000,443.000 L 447.000,443.000 L 447.000,446.000 L 446.000,446.000 L 446.000,448.000 L 445.000,448.000 L 445.000,452.000 L 444.000,452.000 L 442.000,461.000 Z M 404.000,545.000 L 404.000,546.000 L 367.000,546.000 L 367.000,547.000 L 397.000,548.000 L 397.000,549.000 L 503.000,549.000 L 503.000,548.000 L 525.000,548.000 L 525.000,547.000 L 536.000,547.000 L 536.000,546.000 L 560.000,546.000 L 560.000,545.000 L 582.000,545.000 L 582.000,544.000 L 586.000,545.000 L 586.000,544.000 L 587.000,544.000 L 587.000,545.000 L 593.000,546.000 L 593.000,547.000 L 595.000,547.000 L 595.000,548.000 L 598.000,548.000 L 598.000,552.000 L 596.000,552.000 L 596.000,554.000 L 593.000,554.000 L 593.000,555.000 L 588.000,555.000 L 588.000,556.000 L 579.000,557.000 L 579.000,558.000 L 571.000,558.000 L 571.000,559.000 L 563.000,559.000 L 563.000,560.000 L 554.000,560.000 L 554.000,561.000 L 544.000,561.000 L 544.000,562.000 L 605.000,562.000 L 605.000,561.000 L 635.000,561.000 L 635.000,560.000 L 672.000,559.000 L 672.000,558.000 L 703.000,557.000 L 703.000,556.000 L 717.000,556.000 L 717.000,555.000 L 731.000,555.000 L 731.000,554.000 L 745.000,554.000 L 745.000,553.000 L 761.000,553.000 L 761.000,552.000 L 773.000,552.000 L 773.000,551.000 L 788.000,551.000 L 788.000,550.000 L 799.000,550.000 L 799.000,549.000 L 811.000,549.000 L 811.000,548.000 L 832.000,547.000 L 832.000,546.000 L 844.000,546.000 L 844.000,545.000 L 854.000,545.000 L 854.000,544.000 L 864.000,544.000 L 864.000,543.000 L 872.000,543.000 L 872.000,542.000 L 892.000,541.000 L 892.000,540.000 L 900.000,540.000 L 900.000,539.000 L 908.000,539.000 L 908.000,538.000 L 916.000,538.000 L 916.000,537.000 L 924.000,537.000 L 924.000,536.000 L 933.000,536.000 L 933.000,535.000 L 956.000,533.000 L 956.000,532.000 L 962.000,532.000 L 962.000,531.000 L 968.000,531.000 L 968.000,530.000 L 974.000,530.000 L 974.000,529.000 L 981.000,529.000 L 981.000,528.000 L 987.000,528.000 L 987.000,527.000 L 994.000,527.000 L 994.000,526.000 L 1006.000,525.000 L 1006.000,524.000 L 1017.000,523.000 L 1017.000,522.000 L 1022.000,522.000 L 1022.000,521.000 L 1027.000,521.000 L 1027.000,520.000 L 1032.000,520.000 L 1032.000,519.000 L 1037.000,519.000 L 1037.000,518.000 L 1044.000,518.000 L 1044.000,517.000 L 1049.000,517.000 L 1049.000,516.000 L 1054.000,516.000 L 1054.000,515.000 L 1059.000,515.000 L 1059.000,514.000 L 1064.000,514.000 L 1064.000,513.000 L 1069.000,513.000 L 1069.000,512.000 L 1075.000,512.000 L 1075.000,511.000 L 1079.000,511.000 L 1079.000,510.000 L 1089.000,509.000 L 1089.000,508.000 L 1093.000,508.000 L 1093.000,507.000 L 1097.000,507.000 L 1097.000,506.000 L 1102.000,506.000 L 1102.000,505.000 L 1107.000,505.000 L 1107.000,504.000 L 1113.000,504.000 L 1113.000,503.000 L 1116.000,503.000 L 1116.000,502.000 L 1110.000,502.000 L 1110.000,503.000 L 967.000,503.000 L 967.000,504.000 L 906.000,505.000 L 906.000,506.000 L 892.000,506.000 L 892.000,507.000 L 850.000,509.000 L 850.000,510.000 L 840.000,510.000 L 840.000,511.000 L 830.000,511.000 L 830.000,512.000 L 821.000,512.000 L 821.000,513.000 L 813.000,513.000 L 813.000,514.000 L 789.000,516.000 L 789.000,517.000 L 774.000,518.000 L 774.000,519.000 L 768.000,519.000 L 768.000,520.000 L 762.000,520.000 L 762.000,521.000 L 756.000,521.000 L 756.000,522.000 L 738.000,524.000 L 738.000,525.000 L 734.000,525.000 L 734.000,526.000 L 721.000,527.000 L 721.000,528.000 L 711.000,529.000 L 711.000,530.000 L 707.000,530.000 L 707.000,531.000 L 698.000,531.000 L 698.000,532.000 L 690.000,532.000 L 690.000,533.000 L 688.000,533.000 L 688.000,532.000 L 686.000,532.000 L 686.000,533.000 L 670.000,533.000 L 670.000,532.000 L 664.000,532.000 L 664.000,531.000 L 657.000,531.000 L 657.000,530.000 L 659.000,530.000 L 659.000,529.000 L 668.000,528.000 L 668.000,527.000 L 672.000,527.000 L 672.000,526.000 L 676.000,526.000 L 676.000,525.000 L 681.000,525.000 L 681.000,524.000 L 685.000,524.000 L 685.000,523.000 L 690.000,523.000 L 690.000,522.000 L 694.000,522.000 L 694.000,521.000 L 699.000,521.000 L 699.000,520.000 L 704.000,520.000 L 704.000,519.000 L 709.000,519.000 L 709.000,518.000 L 714.000,518.000 L 714.000,517.000 L 719.000,517.000 L 719.000,516.000 L 734.000,514.000 L 734.000,513.000 L 728.000,513.000 L 728.000,514.000 L 722.000,514.000 L 722.000,515.000 L 712.000,515.000 L 712.000,516.000 L 702.000,516.000 L 702.000,517.000 L 695.000,517.000 L 695.000,518.000 L 685.000,518.000 L 685.000,519.000 L 670.000,520.000 L 670.000,521.000 L 663.000,521.000 L 663.000,522.000 L 656.000,522.000 L 656.000,523.000 L 649.000,523.000 L 649.000,524.000 L 641.000,524.000 L 641.000,525.000 L 633.000,525.000 L 633.000,526.000 L 625.000,526.000 L 625.000,527.000 L 617.000,527.000 L 617.000,528.000 L 610.000,528.000 L 610.000,529.000 L 603.000,529.000 L 603.000,530.000 L 594.000,530.000 L 594.000,531.000 L 585.000,531.000 L 585.000,532.000 L 576.000,532.000 L 576.000,533.000 L 566.000,533.000 L 566.000,534.000 L 548.000,535.000 L 548.000,536.000 L 538.000,536.000 L 538.000,537.000 L 528.000,537.000 L 528.000,538.000 L 519.000,538.000 L 519.000,539.000 L 493.000,540.000 L 493.000,541.000 L 469.000,542.000 L 469.000,543.000 L 452.000,543.000 L 452.000,544.000 L 433.000,544.000 L 433.000,545.000 L 432.000,545.000 L 432.000,544.000 L 431.000,544.000 L 431.000,545.000 Z M 530.000,426.000 L 530.000,425.000 L 538.000,425.000 L 538.000,424.000 L 546.000,424.000 L 546.000,423.000 L 564.000,422.000 L 564.000,421.000 L 572.000,421.000 L 572.000,420.000 L 579.000,420.000 L 579.000,419.000 L 586.000,419.000 L 586.000,418.000 L 594.000,418.000 L 594.000,417.000 L 605.000,416.000 L 605.000,415.000 L 614.000,415.000 L 614.000,414.000 L 619.000,414.000 L 619.000,415.000 L 620.000,415.000 L 620.000,419.000 L 619.000,419.000 L 619.000,420.000 L 624.000,419.000 L 624.000,420.000 L 632.000,421.000 L 632.000,420.000 L 643.000,420.000 L 643.000,419.000 L 652.000,419.000 L 652.000,418.000 L 662.000,418.000 L 662.000,417.000 L 670.000,417.000 L 670.000,416.000 L 685.000,415.000 L 685.000,414.000 L 694.000,414.000 L 694.000,413.000 L 701.000,413.000 L 701.000,412.000 L 708.000,412.000 L 708.000,411.000 L 716.000,411.000 L 716.000,410.000 L 723.000,410.000 L 723.000,409.000 L 730.000,409.000 L 730.000,408.000 L 749.000,407.000 L 749.000,406.000 L 759.000,406.000 L 759.000,405.000 L 769.000,405.000 L 769.000,404.000 L 780.000,404.000 L 780.000,403.000 L 792.000,403.000 L 792.000,402.000 L 806.000,402.000 L 806.000,401.000 L 844.000,400.000 L 844.000,399.000 L 909.000,399.000 L 909.000,400.000 L 914.000,399.000 L 914.000,400.000 L 932.000,400.000 L 932.000,401.000 L 950.000,401.000 L 950.000,402.000 L 960.000,402.000 L 960.000,403.000 L 972.000,403.000 L 972.000,404.000 L 980.000,404.000 L 980.000,405.000 L 994.000,406.000 L 994.000,407.000 L 1000.000,407.000 L 1000.000,408.000 L 1005.000,408.000 L 1005.000,409.000 L 1010.000,409.000 L 1010.000,410.000 L 1025.000,412.000 L 1025.000,413.000 L 1037.000,415.000 L 1037.000,416.000 L 1040.000,416.000 L 1040.000,417.000 L 1044.000,417.000 L 1044.000,418.000 L 1047.000,418.000 L 1047.000,419.000 L 1055.000,420.000 L 1055.000,421.000 L 1058.000,421.000 L 1058.000,422.000 L 1062.000,422.000 L 1062.000,423.000 L 1066.000,423.000 L 1066.000,424.000 L 1071.000,424.000 L 1071.000,425.000 L 1077.000,425.000 L 1077.000,426.000 L 1111.000,426.000 L 1111.000,425.000 L 1125.000,425.000 L 1125.000,424.000 L 1140.000,424.000 L 1140.000,423.000 L 1154.000,423.000 L 1154.000,422.000 L 1163.000,422.000 L 1163.000,421.000 L 1174.000,421.000 L 1174.000,420.000 L 1176.000,420.000 L 1176.000,419.000 L 1180.000,419.000 L 1180.000,418.000 L 1176.000,418.000 L 1175.000,416.000 L 1166.000,415.000 L 1166.000,414.000 L 1164.000,414.000 L 1163.000,412.000 L 1161.000,412.000 L 1161.000,411.000 L 1159.000,411.000 L 1159.000,410.000 L 1156.000,410.000 L 1156.000,409.000 L 1154.000,409.000 L 1154.000,408.000 L 1152.000,408.000 L 1152.000,407.000 L 1149.000,407.000 L 1149.000,406.000 L 1147.000,406.000 L 1147.000,405.000 L 1144.000,405.000 L 1144.000,404.000 L 1141.000,404.000 L 1141.000,403.000 L 1138.000,403.000 L 1138.000,402.000 L 1135.000,402.000 L 1135.000,401.000 L 1131.000,401.000 L 1131.000,400.000 L 1128.000,400.000 L 1128.000,399.000 L 1125.000,399.000 L 1125.000,398.000 L 1122.000,398.000 L 1122.000,397.000 L 1119.000,397.000 L 1119.000,396.000 L 1116.000,396.000 L 1116.000,395.000 L 1113.000,395.000 L 1113.000,394.000 L 1109.000,394.000 L 1109.000,393.000 L 1105.000,393.000 L 1105.000,392.000 L 1101.000,392.000 L 1101.000,391.000 L 1098.000,391.000 L 1098.000,390.000 L 1089.000,389.000 L 1089.000,388.000 L 1085.000,388.000 L 1085.000,387.000 L 1081.000,387.000 L 1081.000,386.000 L 1075.000,386.000 L 1075.000,385.000 L 1067.000,384.000 L 1067.000,383.000 L 1064.000,383.000 L 1064.000,382.000 L 1061.000,382.000 L 1061.000,381.000 L 1057.000,381.000 L 1057.000,380.000 L 1055.000,381.000 L 1055.000,380.000 L 1050.000,379.000 L 1050.000,378.000 L 1059.000,378.000 L 1059.000,379.000 L 1068.000,379.000 L 1068.000,380.000 L 1083.000,381.000 L 1083.000,382.000 L 1089.000,382.000 L 1089.000,383.000 L 1095.000,383.000 L 1095.000,384.000 L 1102.000,384.000 L 1102.000,385.000 L 1108.000,385.000 L 1108.000,386.000 L 1115.000,386.000 L 1115.000,387.000 L 1119.000,387.000 L 1119.000,388.000 L 1124.000,388.000 L 1124.000,389.000 L 1128.000,389.000 L 1128.000,390.000 L 1133.000,390.000 L 1133.000,391.000 L 1136.000,391.000 L 1136.000,392.000 L 1148.000,394.000 L 1148.000,395.000 L 1155.000,396.000 L 1155.000,397.000 L 1158.000,397.000 L 1158.000,398.000 L 1160.000,398.000 L 1160.000,399.000 L 1163.000,399.000 L 1163.000,400.000 L 1172.000,402.000 L 1172.000,403.000 L 1174.000,403.000 L 1174.000,404.000 L 1176.000,404.000 L 1176.000,405.000 L 1179.000,405.000 L 1179.000,406.000 L 1185.000,408.000 L 1185.000,409.000 L 1188.000,410.000 L 1189.000,412.000 L 1191.000,412.000 L 1191.000,413.000 L 1199.000,420.000 L 1199.000,422.000 L 1200.000,422.000 L 1200.000,424.000 L 1201.000,424.000 L 1201.000,436.000 L 1200.000,436.000 L 1200.000,438.000 L 1199.000,438.000 L 1197.000,444.000 L 1196.000,444.000 L 1195.000,447.000 L 1189.000,452.000 L 1189.000,454.000 L 1188.000,454.000 L 1185.000,458.000 L 1183.000,458.000 L 1178.000,464.000 L 1176.000,464.000 L 1175.000,466.000 L 1173.000,466.000 L 1171.000,469.000 L 1169.000,469.000 L 1169.000,470.000 L 1166.000,471.000 L 1165.000,473.000 L 1168.000,473.000 L 1169.000,471.000 L 1172.000,471.000 L 1172.000,470.000 L 1174.000,470.000 L 1174.000,469.000 L 1176.000,469.000 L 1176.000,468.000 L 1178.000,468.000 L 1178.000,467.000 L 1183.000,466.000 L 1184.000,464.000 L 1190.000,462.000 L 1191.000,460.000 L 1193.000,460.000 L 1194.000,458.000 L 1196.000,458.000 L 1197.000,456.000 L 1199.000,456.000 L 1200.000,454.000 L 1202.000,454.000 L 1204.000,451.000 L 1206.000,451.000 L 1206.000,450.000 L 1214.000,443.000 L 1214.000,441.000 L 1216.000,440.000 L 1216.000,438.000 L 1217.000,438.000 L 1217.000,436.000 L 1218.000,436.000 L 1218.000,434.000 L 1219.000,434.000 L 1219.000,431.000 L 1220.000,431.000 L 1220.000,419.000 L 1219.000,419.000 L 1219.000,416.000 L 1222.000,417.000 L 1222.000,420.000 L 1223.000,420.000 L 1223.000,423.000 L 1224.000,423.000 L 1224.000,424.000 L 1223.000,424.000 L 1223.000,433.000 L 1222.000,433.000 L 1222.000,437.000 L 1221.000,437.000 L 1219.000,443.000 L 1218.000,443.000 L 1207.000,455.000 L 1205.000,455.000 L 1202.000,459.000 L 1200.000,459.000 L 1199.000,461.000 L 1197.000,461.000 L 1196.000,463.000 L 1194.000,463.000 L 1193.000,465.000 L 1191.000,465.000 L 1191.000,466.000 L 1188.000,467.000 L 1187.000,469.000 L 1181.000,471.000 L 1180.000,473.000 L 1178.000,473.000 L 1178.000,474.000 L 1176.000,474.000 L 1176.000,475.000 L 1174.000,475.000 L 1174.000,476.000 L 1172.000,476.000 L 1172.000,477.000 L 1170.000,477.000 L 1170.000,478.000 L 1168.000,478.000 L 1168.000,479.000 L 1166.000,479.000 L 1166.000,480.000 L 1162.000,480.000 L 1162.000,481.000 L 1156.000,483.000 L 1156.000,484.000 L 1158.000,484.000 L 1158.000,483.000 L 1162.000,483.000 L 1162.000,482.000 L 1166.000,482.000 L 1166.000,481.000 L 1169.000,481.000 L 1169.000,480.000 L 1173.000,480.000 L 1173.000,479.000 L 1179.000,478.000 L 1179.000,477.000 L 1181.000,477.000 L 1181.000,476.000 L 1187.000,475.000 L 1187.000,474.000 L 1189.000,474.000 L 1189.000,473.000 L 1193.000,473.000 L 1193.000,472.000 L 1195.000,472.000 L 1195.000,471.000 L 1198.000,471.000 L 1198.000,470.000 L 1200.000,470.000 L 1200.000,469.000 L 1202.000,469.000 L 1202.000,468.000 L 1205.000,468.000 L 1205.000,467.000 L 1207.000,467.000 L 1207.000,466.000 L 1209.000,466.000 L 1209.000,465.000 L 1212.000,465.000 L 1212.000,464.000 L 1214.000,464.000 L 1214.000,463.000 L 1216.000,463.000 L 1216.000,462.000 L 1218.000,462.000 L 1218.000,461.000 L 1224.000,459.000 L 1225.000,457.000 L 1229.000,456.000 L 1230.000,454.000 L 1234.000,453.000 L 1234.000,452.000 L 1237.000,451.000 L 1239.000,448.000 L 1241.000,448.000 L 1241.000,447.000 L 1246.000,443.000 L 1246.000,441.000 L 1249.000,439.000 L 1249.000,437.000 L 1250.000,437.000 L 1250.000,435.000 L 1251.000,435.000 L 1251.000,433.000 L 1252.000,433.000 L 1253.000,425.000 L 1254.000,425.000 L 1254.000,424.000 L 1253.000,424.000 L 1253.000,418.000 L 1252.000,418.000 L 1252.000,415.000 L 1251.000,415.000 L 1250.000,411.000 L 1249.000,411.000 L 1244.000,405.000 L 1242.000,405.000 L 1241.000,403.000 L 1239.000,403.000 L 1238.000,401.000 L 1236.000,401.000 L 1236.000,400.000 L 1234.000,400.000 L 1234.000,399.000 L 1232.000,399.000 L 1232.000,398.000 L 1230.000,398.000 L 1230.000,397.000 L 1228.000,397.000 L 1228.000,396.000 L 1226.000,396.000 L 1226.000,395.000 L 1224.000,395.000 L 1224.000,394.000 L 1222.000,394.000 L 1222.000,393.000 L 1220.000,393.000 L 1220.000,392.000 L 1217.000,392.000 L 1217.000,391.000 L 1215.000,391.000 L 1215.000,390.000 L 1212.000,390.000 L 1212.000,389.000 L 1209.000,389.000 L 1209.000,388.000 L 1205.000,388.000 L 1205.000,387.000 L 1202.000,387.000 L 1202.000,386.000 L 1199.000,386.000 L 1199.000,385.000 L 1196.000,385.000 L 1196.000,384.000 L 1191.000,384.000 L 1191.000,383.000 L 1188.000,383.000 L 1188.000,382.000 L 1183.000,382.000 L 1183.000,381.000 L 1178.000,381.000 L 1178.000,380.000 L 1170.000,379.000 L 1170.000,378.000 L 1157.000,377.000 L 1157.000,376.000 L 1153.000,376.000 L 1153.000,375.000 L 1138.000,374.000 L 1138.000,373.000 L 1135.000,374.000 L 1135.000,373.000 L 1121.000,372.000 L 1121.000,371.000 L 1098.000,370.000 L 1098.000,369.000 L 1083.000,369.000 L 1083.000,368.000 L 1068.000,368.000 L 1068.000,367.000 L 1054.000,367.000 L 1054.000,366.000 L 1008.000,365.000 L 1008.000,364.000 L 959.000,364.000 L 959.000,365.000 L 946.000,365.000 L 946.000,364.000 L 967.000,363.000 L 967.000,362.000 L 988.000,361.000 L 988.000,360.000 L 999.000,360.000 L 999.000,359.000 L 1033.000,359.000 L 1033.000,358.000 L 1128.000,359.000 L 1128.000,360.000 L 1153.000,360.000 L 1153.000,361.000 L 1173.000,361.000 L 1173.000,362.000 L 1187.000,362.000 L 1187.000,361.000 L 1178.000,361.000 L 1178.000,360.000 L 1170.000,360.000 L 1170.000,359.000 L 1158.000,359.000 L 1158.000,358.000 L 1148.000,358.000 L 1148.000,357.000 L 1135.000,357.000 L 1135.000,356.000 L 1104.000,355.000 L 1104.000,354.000 L 1075.000,354.000 L 1075.000,353.000 L 986.000,353.000 L 986.000,354.000 L 985.000,354.000 L 985.000,353.000 L 984.000,353.000 L 984.000,354.000 L 955.000,354.000 L 955.000,355.000 L 933.000,355.000 L 933.000,356.000 L 915.000,356.000 L 915.000,357.000 L 888.000,358.000 L 888.000,359.000 L 867.000,360.000 L 867.000,361.000 L 857.000,361.000 L 857.000,362.000 L 845.000,362.000 L 845.000,363.000 L 838.000,363.000 L 838.000,364.000 L 830.000,364.000 L 830.000,365.000 L 822.000,365.000 L 822.000,366.000 L 815.000,366.000 L 815.000,367.000 L 808.000,367.000 L 808.000,368.000 L 801.000,368.000 L 801.000,369.000 L 793.000,369.000 L 793.000,370.000 L 786.000,370.000 L 786.000,371.000 L 780.000,371.000 L 780.000,372.000 L 773.000,372.000 L 773.000,373.000 L 767.000,373.000 L 767.000,374.000 L 762.000,374.000 L 762.000,375.000 L 755.000,375.000 L 755.000,376.000 L 743.000,377.000 L 743.000,378.000 L 739.000,378.000 L 739.000,379.000 L 721.000,381.000 L 721.000,382.000 L 716.000,382.000 L 716.000,383.000 L 712.000,383.000 L 712.000,384.000 L 700.000,385.000 L 700.000,386.000 L 696.000,386.000 L 696.000,387.000 L 680.000,389.000 L 680.000,390.000 L 671.000,391.000 L 671.000,392.000 L 667.000,392.000 L 667.000,393.000 L 656.000,394.000 L 656.000,395.000 L 652.000,395.000 L 652.000,396.000 L 646.000,396.000 L 646.000,397.000 L 642.000,397.000 L 642.000,398.000 L 637.000,398.000 L 637.000,399.000 L 628.000,400.000 L 628.000,401.000 L 623.000,401.000 L 623.000,402.000 L 619.000,402.000 L 619.000,403.000 L 615.000,403.000 L 615.000,404.000 L 611.000,404.000 L 611.000,405.000 L 601.000,406.000 L 601.000,407.000 L 597.000,407.000 L 597.000,408.000 L 593.000,408.000 L 593.000,409.000 L 588.000,409.000 L 588.000,410.000 L 584.000,410.000 L 584.000,411.000 L 580.000,411.000 L 580.000,412.000 L 576.000,412.000 L 576.000,413.000 L 572.000,413.000 L 572.000,414.000 L 568.000,414.000 L 568.000,415.000 L 563.000,415.000 L 563.000,416.000 L 559.000,416.000 L 559.000,417.000 L 555.000,417.000 L 555.000,418.000 L 551.000,418.000 L 551.000,419.000 L 547.000,419.000 L 547.000,420.000 L 543.000,420.000 L 543.000,421.000 L 534.000,422.000 L 534.000,423.000 L 530.000,423.000 L 530.000,424.000 L 524.000,425.000 L 524.000,426.000 Z M 534.000,455.000 L 533.000,455.000 L 533.000,458.000 L 532.000,458.000 L 532.000,461.000 L 531.000,461.000 L 531.000,464.000 L 530.000,464.000 L 530.000,467.000 L 529.000,467.000 L 529.000,470.000 L 528.000,470.000 L 527.000,478.000 L 526.000,478.000 L 526.000,486.000 L 527.000,486.000 L 527.000,488.000 L 528.000,488.000 L 531.000,492.000 L 533.000,492.000 L 533.000,493.000 L 535.000,493.000 L 535.000,494.000 L 593.000,494.000 L 593.000,493.000 L 597.000,493.000 L 597.000,492.000 L 603.000,490.000 L 603.000,489.000 L 606.000,488.000 L 606.000,487.000 L 608.000,486.000 L 608.000,484.000 L 611.000,482.000 L 611.000,480.000 L 612.000,480.000 L 612.000,478.000 L 613.000,478.000 L 613.000,475.000 L 614.000,475.000 L 614.000,472.000 L 615.000,472.000 L 615.000,469.000 L 616.000,469.000 L 616.000,466.000 L 617.000,466.000 L 617.000,463.000 L 618.000,463.000 L 618.000,460.000 L 619.000,460.000 L 619.000,457.000 L 620.000,457.000 L 620.000,454.000 L 621.000,454.000 L 622.000,442.000 L 621.000,442.000 L 621.000,440.000 L 620.000,440.000 L 617.000,436.000 L 610.000,435.000 L 610.000,434.000 L 553.000,434.000 L 553.000,435.000 L 550.000,435.000 L 550.000,436.000 L 547.000,436.000 L 547.000,437.000 L 543.000,438.000 L 543.000,439.000 L 538.000,443.000 L 538.000,445.000 L 537.000,445.000 L 537.000,447.000 L 536.000,447.000 L 536.000,450.000 L 535.000,450.000 L 535.000,452.000 L 534.000,452.000 Z M 555.000,461.000 L 556.000,454.000 L 557.000,454.000 L 557.000,452.000 L 558.000,452.000 L 559.000,449.000 L 596.000,449.000 L 596.000,450.000 L 598.000,451.000 L 597.000,457.000 L 596.000,457.000 L 596.000,460.000 L 595.000,460.000 L 595.000,463.000 L 594.000,463.000 L 594.000,466.000 L 593.000,466.000 L 593.000,469.000 L 592.000,469.000 L 592.000,472.000 L 591.000,472.000 L 591.000,475.000 L 590.000,475.000 L 588.000,478.000 L 586.000,478.000 L 586.000,479.000 L 552.000,479.000 L 552.000,478.000 L 550.000,477.000 L 550.000,474.000 L 551.000,474.000 L 551.000,470.000 L 552.000,470.000 L 552.000,467.000 L 553.000,467.000 L 553.000,464.000 L 554.000,464.000 L 554.000,461.000 Z M 628.000,456.000 L 630.000,462.000 L 632.000,462.000 L 632.000,464.000 L 634.000,464.000 L 634.000,465.000 L 636.000,465.000 L 636.000,466.000 L 644.000,467.000 L 644.000,468.000 L 651.000,468.000 L 651.000,469.000 L 669.000,470.000 L 669.000,471.000 L 675.000,472.000 L 676.000,475.000 L 675.000,475.000 L 675.000,477.000 L 674.000,477.000 L 673.000,479.000 L 669.000,479.000 L 669.000,480.000 L 656.000,480.000 L 656.000,479.000 L 621.000,479.000 L 621.000,478.000 L 620.000,478.000 L 619.000,481.000 L 618.000,481.000 L 618.000,483.000 L 617.000,483.000 L 616.000,490.000 L 615.000,490.000 L 615.000,493.000 L 614.000,493.000 L 614.000,494.000 L 678.000,494.000 L 678.000,493.000 L 682.000,493.000 L 682.000,492.000 L 684.000,492.000 L 684.000,491.000 L 690.000,489.000 L 690.000,488.000 L 695.000,484.000 L 695.000,482.000 L 696.000,482.000 L 696.000,480.000 L 697.000,480.000 L 697.000,476.000 L 698.000,476.000 L 697.000,466.000 L 696.000,466.000 L 692.000,461.000 L 689.000,461.000 L 689.000,460.000 L 655.000,456.000 L 655.000,455.000 L 649.000,454.000 L 648.000,451.000 L 649.000,451.000 L 650.000,449.000 L 652.000,449.000 L 652.000,448.000 L 702.000,448.000 L 707.000,434.000 L 646.000,434.000 L 646.000,435.000 L 642.000,435.000 L 642.000,436.000 L 637.000,437.000 L 636.000,439.000 L 634.000,439.000 L 634.000,440.000 L 631.000,442.000 L 631.000,444.000 L 629.000,445.000 L 629.000,448.000 L 628.000,448.000 Z M 709.000,455.000 L 711.000,461.000 L 712.000,461.000 L 714.000,464.000 L 718.000,465.000 L 718.000,466.000 L 725.000,467.000 L 725.000,468.000 L 732.000,468.000 L 732.000,469.000 L 744.000,469.000 L 744.000,470.000 L 755.000,471.000 L 755.000,472.000 L 758.000,473.000 L 758.000,476.000 L 757.000,476.000 L 757.000,478.000 L 752.000,479.000 L 752.000,480.000 L 703.000,479.000 L 703.000,478.000 L 702.000,478.000 L 702.000,479.000 L 701.000,479.000 L 701.000,483.000 L 700.000,483.000 L 700.000,487.000 L 699.000,487.000 L 699.000,489.000 L 698.000,489.000 L 697.000,494.000 L 761.000,494.000 L 761.000,493.000 L 765.000,493.000 L 765.000,492.000 L 767.000,492.000 L 767.000,491.000 L 773.000,489.000 L 773.000,488.000 L 777.000,485.000 L 777.000,483.000 L 778.000,483.000 L 778.000,481.000 L 779.000,481.000 L 779.000,479.000 L 780.000,479.000 L 780.000,475.000 L 781.000,475.000 L 781.000,471.000 L 780.000,471.000 L 779.000,465.000 L 778.000,465.000 L 776.000,462.000 L 772.000,461.000 L 772.000,460.000 L 735.000,456.000 L 735.000,455.000 L 730.000,454.000 L 730.000,450.000 L 733.000,449.000 L 733.000,448.000 L 783.000,448.000 L 783.000,444.000 L 784.000,444.000 L 784.000,441.000 L 785.000,441.000 L 785.000,438.000 L 786.000,438.000 L 787.000,433.000 L 776.000,433.000 L 776.000,434.000 L 725.000,434.000 L 725.000,435.000 L 722.000,435.000 L 722.000,436.000 L 716.000,438.000 L 716.000,439.000 L 713.000,441.000 L 713.000,443.000 L 712.000,443.000 L 712.000,445.000 L 711.000,445.000 L 711.000,447.000 L 710.000,447.000 L 710.000,450.000 L 709.000,450.000 Z M 793.000,433.000 L 793.000,447.000 L 794.000,447.000 L 794.000,462.000 L 795.000,462.000 L 795.000,480.000 L 796.000,480.000 L 796.000,493.000 L 797.000,493.000 L 797.000,494.000 L 824.000,494.000 L 824.000,493.000 L 828.000,490.000 L 828.000,488.000 L 831.000,486.000 L 831.000,484.000 L 835.000,481.000 L 835.000,479.000 L 838.000,477.000 L 838.000,475.000 L 842.000,472.000 L 842.000,470.000 L 846.000,467.000 L 846.000,465.000 L 850.000,462.000 L 850.000,460.000 L 851.000,460.000 L 853.000,457.000 L 854.000,457.000 L 854.000,461.000 L 855.000,461.000 L 855.000,474.000 L 856.000,474.000 L 857.000,494.000 L 883.000,494.000 L 883.000,493.000 L 886.000,491.000 L 886.000,489.000 L 890.000,486.000 L 890.000,484.000 L 895.000,480.000 L 895.000,478.000 L 900.000,474.000 L 900.000,472.000 L 903.000,470.000 L 903.000,468.000 L 907.000,465.000 L 907.000,463.000 L 911.000,460.000 L 911.000,458.000 L 912.000,458.000 L 912.000,457.000 L 914.000,456.000 L 914.000,454.000 L 918.000,451.000 L 918.000,449.000 L 922.000,446.000 L 922.000,444.000 L 926.000,441.000 L 926.000,439.000 L 930.000,436.000 L 931.000,433.000 L 911.000,433.000 L 911.000,434.000 L 907.000,437.000 L 907.000,439.000 L 903.000,442.000 L 903.000,444.000 L 899.000,447.000 L 899.000,449.000 L 896.000,451.000 L 896.000,453.000 L 892.000,456.000 L 892.000,458.000 L 889.000,460.000 L 889.000,462.000 L 886.000,464.000 L 886.000,466.000 L 882.000,469.000 L 882.000,471.000 L 881.000,471.000 L 879.000,474.000 L 878.000,474.000 L 877.000,463.000 L 876.000,463.000 L 873.000,433.000 L 852.000,433.000 L 852.000,435.000 L 848.000,438.000 L 848.000,440.000 L 845.000,442.000 L 845.000,444.000 L 842.000,446.000 L 842.000,448.000 L 837.000,452.000 L 837.000,454.000 L 834.000,456.000 L 834.000,458.000 L 830.000,461.000 L 830.000,463.000 L 826.000,466.000 L 826.000,468.000 L 822.000,471.000 L 822.000,473.000 L 821.000,473.000 L 819.000,476.000 L 818.000,476.000 L 818.000,456.000 L 817.000,456.000 L 817.000,435.000 L 816.000,435.000 L 816.000,433.000 Z M 919.000,479.000 L 919.000,482.000 L 918.000,482.000 L 918.000,485.000 L 917.000,485.000 L 915.000,494.000 L 936.000,494.000 L 936.000,493.000 L 937.000,493.000 L 938.000,488.000 L 939.000,488.000 L 939.000,486.000 L 940.000,486.000 L 940.000,483.000 L 941.000,483.000 L 941.000,480.000 L 942.000,480.000 L 944.000,471.000 L 945.000,471.000 L 945.000,469.000 L 946.000,469.000 L 946.000,466.000 L 947.000,466.000 L 947.000,463.000 L 948.000,463.000 L 948.000,460.000 L 949.000,460.000 L 949.000,457.000 L 950.000,457.000 L 950.000,454.000 L 951.000,454.000 L 951.000,451.000 L 952.000,451.000 L 952.000,449.000 L 953.000,449.000 L 953.000,446.000 L 954.000,446.000 L 954.000,443.000 L 955.000,443.000 L 955.000,440.000 L 956.000,440.000 L 956.000,437.000 L 957.000,437.000 L 958.000,433.000 L 936.000,433.000 L 936.000,434.000 L 935.000,434.000 L 934.000,439.000 L 933.000,439.000 L 933.000,442.000 L 932.000,442.000 L 932.000,445.000 L 931.000,445.000 L 931.000,448.000 L 930.000,448.000 L 930.000,450.000 L 929.000,450.000 L 929.000,453.000 L 928.000,453.000 L 928.000,456.000 L 927.000,456.000 L 927.000,459.000 L 926.000,459.000 L 926.000,462.000 L 925.000,462.000 L 925.000,465.000 L 924.000,465.000 L 924.000,467.000 L 923.000,467.000 L 923.000,470.000 L 922.000,470.000 L 922.000,473.000 L 921.000,473.000 L 921.000,476.000 L 920.000,476.000 L 920.000,479.000 Z M 984.000,454.000 L 986.000,455.000 L 986.000,457.000 L 989.000,459.000 L 989.000,461.000 L 995.000,466.000 L 995.000,468.000 L 1001.000,473.000 L 1001.000,475.000 L 1007.000,480.000 L 1007.000,482.000 L 1013.000,487.000 L 1013.000,489.000 L 1014.000,489.000 L 1019.000,495.000 L 1038.000,495.000 L 1038.000,494.000 L 1039.000,494.000 L 1039.000,491.000 L 1040.000,491.000 L 1040.000,488.000 L 1041.000,488.000 L 1041.000,485.000 L 1042.000,485.000 L 1042.000,482.000 L 1043.000,482.000 L 1043.000,479.000 L 1044.000,479.000 L 1044.000,476.000 L 1045.000,476.000 L 1045.000,473.000 L 1046.000,473.000 L 1046.000,470.000 L 1047.000,470.000 L 1047.000,467.000 L 1048.000,467.000 L 1048.000,464.000 L 1049.000,464.000 L 1049.000,461.000 L 1050.000,461.000 L 1050.000,459.000 L 1051.000,459.000 L 1051.000,455.000 L 1052.000,455.000 L 1052.000,453.000 L 1053.000,453.000 L 1053.000,450.000 L 1054.000,450.000 L 1054.000,447.000 L 1055.000,447.000 L 1055.000,444.000 L 1056.000,444.000 L 1056.000,441.000 L 1057.000,441.000 L 1057.000,438.000 L 1058.000,438.000 L 1059.000,433.000 L 1038.000,433.000 L 1037.000,438.000 L 1036.000,438.000 L 1036.000,441.000 L 1035.000,441.000 L 1035.000,444.000 L 1034.000,444.000 L 1034.000,447.000 L 1033.000,447.000 L 1033.000,451.000 L 1032.000,451.000 L 1032.000,453.000 L 1031.000,453.000 L 1031.000,457.000 L 1030.000,457.000 L 1029.000,462.000 L 1028.000,462.000 L 1028.000,466.000 L 1027.000,466.000 L 1026.000,471.000 L 1023.000,470.000 L 1023.000,469.000 L 1020.000,467.000 L 1020.000,465.000 L 1016.000,462.000 L 1016.000,460.000 L 1015.000,460.000 L 1015.000,459.000 L 1011.000,456.000 L 1011.000,454.000 L 1003.000,447.000 L 1003.000,445.000 L 994.000,437.000 L 994.000,435.000 L 993.000,435.000 L 992.000,433.000 L 968.000,433.000 L 968.000,434.000 L 967.000,434.000 L 966.000,441.000 L 965.000,441.000 L 965.000,444.000 L 964.000,444.000 L 964.000,446.000 L 963.000,446.000 L 963.000,449.000 L 962.000,449.000 L 962.000,452.000 L 961.000,452.000 L 961.000,455.000 L 960.000,455.000 L 960.000,458.000 L 959.000,458.000 L 959.000,461.000 L 958.000,461.000 L 958.000,464.000 L 957.000,464.000 L 957.000,467.000 L 956.000,467.000 L 956.000,470.000 L 955.000,470.000 L 955.000,473.000 L 954.000,473.000 L 954.000,476.000 L 953.000,476.000 L 953.000,479.000 L 952.000,479.000 L 952.000,482.000 L 951.000,482.000 L 950.000,487.000 L 949.000,487.000 L 949.000,490.000 L 948.000,490.000 L 948.000,494.000 L 969.000,494.000 L 969.000,491.000 L 970.000,491.000 L 970.000,489.000 L 971.000,489.000 L 971.000,486.000 L 972.000,486.000 L 974.000,477.000 L 975.000,477.000 L 975.000,475.000 L 976.000,475.000 L 978.000,466.000 L 979.000,466.000 L 979.000,464.000 L 980.000,464.000 L 980.000,460.000 L 981.000,460.000 L 981.000,457.000 L 982.000,457.000 L 982.000,453.000 L 984.000,453.000 Z M 1067.000,439.000 L 1067.000,443.000 L 1066.000,443.000 L 1064.000,452.000 L 1063.000,452.000 L 1063.000,454.000 L 1062.000,454.000 L 1062.000,458.000 L 1061.000,458.000 L 1061.000,461.000 L 1060.000,461.000 L 1060.000,463.000 L 1059.000,463.000 L 1059.000,466.000 L 1058.000,466.000 L 1058.000,469.000 L 1057.000,469.000 L 1055.000,478.000 L 1054.000,478.000 L 1054.000,480.000 L 1053.000,480.000 L 1053.000,483.000 L 1052.000,483.000 L 1052.000,486.000 L 1051.000,486.000 L 1051.000,490.000 L 1050.000,490.000 L 1049.000,495.000 L 1128.000,495.000 L 1128.000,494.000 L 1131.000,494.000 L 1131.000,493.000 L 1133.000,493.000 L 1133.000,492.000 L 1139.000,490.000 L 1139.000,489.000 L 1143.000,486.000 L 1143.000,484.000 L 1145.000,483.000 L 1145.000,481.000 L 1146.000,481.000 L 1146.000,479.000 L 1147.000,479.000 L 1147.000,477.000 L 1148.000,477.000 L 1148.000,474.000 L 1149.000,474.000 L 1149.000,471.000 L 1150.000,471.000 L 1152.000,462.000 L 1153.000,462.000 L 1153.000,458.000 L 1154.000,458.000 L 1155.000,451.000 L 1156.000,451.000 L 1156.000,445.000 L 1157.000,445.000 L 1157.000,442.000 L 1156.000,442.000 L 1155.000,438.000 L 1154.000,438.000 L 1152.000,435.000 L 1149.000,435.000 L 1149.000,434.000 L 1139.000,434.000 L 1139.000,433.000 L 1138.000,433.000 L 1138.000,434.000 L 1133.000,434.000 L 1133.000,433.000 L 1070.000,433.000 L 1069.000,436.000 L 1068.000,436.000 L 1068.000,439.000 Z M 1078.000,481.000 L 1077.000,478.000 L 1078.000,478.000 L 1078.000,475.000 L 1079.000,475.000 L 1081.000,466.000 L 1082.000,466.000 L 1082.000,464.000 L 1083.000,464.000 L 1083.000,461.000 L 1084.000,461.000 L 1084.000,458.000 L 1085.000,458.000 L 1087.000,449.000 L 1089.000,449.000 L 1089.000,448.000 L 1127.000,448.000 L 1127.000,449.000 L 1131.000,449.000 L 1130.000,458.000 L 1129.000,458.000 L 1129.000,461.000 L 1128.000,461.000 L 1128.000,464.000 L 1127.000,464.000 L 1127.000,467.000 L 1126.000,467.000 L 1124.000,476.000 L 1123.000,476.000 L 1120.000,480.000 L 1079.000,480.000 L 1079.000,481.000 Z"/></g></svg>